<svg width="1136" height="265" viewBox="0 0 1136 265" fill="currentColor" xmlns="http://www.w3.org/2000/svg">
<path d="M57.17 183.71C58.2746 183.71 59.1621 184.609 59.2443 185.71C60.2531 199.243 71.4137 209.78 84.82 209.78C100.13 209.78 109.65 201.09 109.65 188.26C109.65 169.64 85.24 164.26 64.96 157.23C23.17 142.33 0 122.89 0 80.27C0 37.65 37.65 0 84.41 0C138.578 0 164.687 34.0774 168.648 78.9508C168.75 80.1075 167.832 81.1 166.671 81.1H113.72C112.615 81.1 111.727 80.2019 111.66 79.0993C110.87 65.9488 102.219 55.45 86.07 55.45C72.83 55.45 60 63.31 60 79.45C60 98.07 82.76 101.38 103.86 107.59C148.13 120.83 168.82 145.66 168.82 184.55C168.82 228.41 131.58 264.82 84.83 264.82C31.4336 264.8 0.924365 229.475 0.0206651 185.716C-0.00214149 184.612 0.895431 183.71 2 183.71H57.17Z" fill="currentColor"/>
<path d="M209.77 10.28C209.77 9.17546 210.665 8.28003 211.77 8.28003H268.59C269.695 8.28003 270.59 9.17546 270.59 10.28V254.53C270.59 255.635 269.695 256.53 268.59 256.53H211.77C210.665 256.53 209.77 255.635 209.77 254.53V10.28Z" fill="currentColor"/>
<path d="M443.54 0C488.617 0 520.141 16.3355 545.931 41.9736C546.733 42.7705 546.701 44.0746 545.87 44.8406L506.531 81.0938C505.772 81.7942 504.604 81.7984 503.826 81.1187C487.103 66.5195 466.492 57.5 443.54 57.5C399.27 57.5 370.72 90.6 370.72 132.39C370.72 178.32 403.41 207.28 444.78 207.28C486.943 207.28 508.06 184.681 510.782 161.413C510.917 160.262 509.996 159.28 508.838 159.28H442.23C441.126 159.28 440.23 158.385 440.23 157.28V108.73C440.23 107.625 441.126 106.73 442.23 106.73H574.77C575.875 106.73 576.77 107.625 576.77 108.73V130.31C576.77 203.55 533.74 264.78 443.54 264.78C364.93 264.78 309.07 206.44 309.07 132.38C309.07 58.32 364.93 0 443.54 0Z" fill="currentColor"/>
<path d="M616.49 10.28C616.49 9.17546 617.385 8.28003 618.49 8.28003H671.903C672.676 8.28003 673.381 8.72638 673.711 9.42608L734.667 138.522C735.388 140.048 737.558 140.051 738.282 138.527L799.647 9.42146C799.979 8.72427 800.682 8.28003 801.454 8.28003H854.05C855.155 8.28003 856.05 9.17546 856.05 10.28V254.53C856.05 255.635 855.155 256.53 854.05 256.53H797.64C796.535 256.53 795.64 255.635 795.64 254.53V155.259C795.64 153.11 792.713 152.473 791.821 154.428L741.974 263.64C741.649 264.353 740.938 264.81 740.154 264.81H732.799C732.014 264.81 731.302 264.351 730.978 263.636L681.132 153.662C680.243 151.701 677.31 152.335 677.31 154.487V254.53C677.31 255.635 676.415 256.53 675.31 256.53H618.49C617.385 256.53 616.49 255.635 616.49 254.53V10.28Z" fill="currentColor"/>
<path d="M1002.8 1.14788C1003.13 0.447177 1003.83 0 1004.61 0H1012.83C1013.61 0 1014.31 0.445004 1014.64 1.1431L1134.39 253.673C1135.01 255 1134.05 256.53 1132.58 256.53H1071.62C1070.86 256.53 1070.16 256.091 1069.82 255.401L1058.51 232.009C1058.17 231.319 1057.47 230.88 1056.71 230.88H961.172C960.396 230.88 959.69 231.329 959.361 232.033L948.439 255.378C948.11 256.081 947.404 256.53 946.628 256.53H885.683C884.216 256.53 883.248 255.004 883.873 253.678L1002.8 1.14788ZM1034.17 187.43C1035.62 187.43 1036.59 185.927 1035.99 184.603L1008.89 124.919C1008.79 124.688 1008.56 124.54 1008.3 124.54C1008.05 124.54 1007.82 124.687 1007.72 124.916L980.236 184.593C979.626 185.919 980.594 187.43 982.053 187.43H1034.17Z" fill="currentColor"/>
</svg>