<svg width="80" height="80" viewBox="0 0 80 80" fill="none" xmlns="http://www.w3.org/2000/svg">
<g clip-path="url(#clip0_182_16)">
<mask id="mask0_182_16" style="mask-type:luminance" maskUnits="userSpaceOnUse" x="0" y="0" width="80" height="80">
<path d="M80 0H0V80H80V0Z" fill="white"/>
</mask>
<g mask="url(#mask0_182_16)">
<path d="M86 -6H-6V86H86V-6Z" fill="#291D21"/>
<path d="M-0.807051 40.8213C1.1472 12.3863 15.4823 -0.575697 42.1982 1.93539C66.3992 2.56229 78.8708 14.3564 79.613 37.3176C77.296 66.1553 62.7458 79.7269 35.9625 78.0325C13.4765 78.2535 2.44649 65.8711 2.87239 40.8855L-0.807051 40.8213Z" fill="#6B9F2E" stroke="black" stroke-width="2.3"/>
<path d="M50.5802 30.34C57.6936 30.34 63.4602 28.0745 63.4602 25.28C63.4602 22.4854 57.6936 20.22 50.5802 20.22C43.4668 20.22 37.7002 22.4854 37.7002 25.28C37.7002 28.0745 43.4668 30.34 50.5802 30.34Z" fill="white" stroke="black" stroke-width="1.725"/>
<path d="M52.5121 30.4366C55.4998 30.4366 57.9217 28.0146 57.9217 25.027C57.9217 22.0394 55.4998 19.6174 52.5121 19.6174C49.5245 19.6174 47.1025 22.0394 47.1025 25.027C47.1025 28.0146 49.5245 30.4366 52.5121 30.4366Z" fill="black"/>
<path d="M51.0953 26.453C52.1623 26.453 53.0273 25.588 53.0273 24.521C53.0273 23.454 52.1623 22.589 51.0953 22.589C50.0283 22.589 49.1633 23.454 49.1633 24.521C49.1633 25.588 50.0283 26.453 51.0953 26.453Z" fill="white"/>
<mask id="mask1_182_16" style="mask-type:luminance" maskUnits="userSpaceOnUse" x="37" y="20" width="27" height="11">
<path d="M50.5802 30.34C57.6936 30.34 63.4602 28.0745 63.4602 25.28C63.4602 22.4854 57.6936 20.22 50.5802 20.22C43.4668 20.22 37.7002 22.4854 37.7002 25.28C37.7002 28.0745 43.4668 30.34 50.5802 30.34Z" fill="white"/>
</mask>
<g mask="url(#mask1_182_16)">
<path d="M37.7002 20.128C46.2869 19.5024 54.8735 19.5024 63.4602 20.128" stroke="black" stroke-width="2.3" stroke-linecap="round"/>
</g>
<path d="M29.42 30.34C36.5335 30.34 42.3 28.0745 42.3 25.28C42.3 22.4854 36.5335 20.22 29.42 20.22C22.3066 20.22 16.54 22.4854 16.54 25.28C16.54 28.0745 22.3066 30.34 29.42 30.34Z" fill="white" stroke="black" stroke-width="1.725"/>
<path d="M31.3522 30.4366C34.3399 30.4366 36.7618 28.0146 36.7618 25.027C36.7618 22.0394 34.3399 19.6174 31.3522 19.6174C28.3646 19.6174 25.9426 22.0394 25.9426 25.027C25.9426 28.0146 28.3646 30.4366 31.3522 30.4366Z" fill="black"/>
<path d="M29.9352 26.453C31.0022 26.453 31.8672 25.588 31.8672 24.521C31.8672 23.454 31.0022 22.589 29.9352 22.589C28.8682 22.589 28.0032 23.454 28.0032 24.521C28.0032 25.588 28.8682 26.453 29.9352 26.453Z" fill="white"/>
<mask id="mask2_182_16" style="mask-type:luminance" maskUnits="userSpaceOnUse" x="16" y="20" width="27" height="11">
<path d="M29.42 30.34C36.5335 30.34 42.3 28.0745 42.3 25.28C42.3 22.4854 36.5335 20.22 29.42 20.22C22.3066 20.22 16.54 22.4854 16.54 25.28C16.54 28.0745 22.3066 30.34 29.42 30.34Z" fill="white"/>
</mask>
<g mask="url(#mask2_182_16)">
<path d="M16.54 20.128C25.1267 19.5024 33.7134 19.5024 42.3 20.128" stroke="black" stroke-width="2.3" stroke-linecap="round"/>
</g>
<path d="M18.8691 49.9326C32.8229 53.2188 46.9103 53.9571 61.1311 52.1474" stroke="black" stroke-width="17.25" stroke-linecap="round"/>
<path d="M18.8691 49.9326C32.8229 53.2188 46.9103 53.9571 61.1311 52.1474" stroke="#D04030" stroke-width="13.8" stroke-linecap="round"/>
<path d="M18.8691 49.9326C32.8229 53.2188 46.9103 53.9571 61.1311 52.1474" stroke="#2B1A12" stroke-width="3.45" stroke-linecap="round"/>
</g>
</g>
<defs>
<clipPath id="clip0_182_16">
<rect width="80" height="80" fill="white"/>
</clipPath>
</defs>
</svg>
