<svg version="1.1" xmlns="http://www.w3.org/2000/svg" style="display: block;" viewBox="0 0 2048 2048" width="1024" height="1024">
<defs>
	<linearGradient id="Gradient1" gradientUnits="userSpaceOnUse" x1="706.029" y1="1198.73" x2="702.2" y2="1244.54">
		<stop class="stop0" offset="0" stop-opacity="1" stop-color="rgb(42,47,49)"/>
		<stop class="stop1" offset="1" stop-opacity="1" stop-color="rgb(68,62,61)"/>
	</linearGradient>
	<linearGradient id="Gradient2" gradientUnits="userSpaceOnUse" x1="810.974" y1="1394.99" x2="811.009" y2="1388.26">
		<stop class="stop0" offset="0" stop-opacity="1" stop-color="rgb(48,45,45)"/>
		<stop class="stop1" offset="1" stop-opacity="1" stop-color="rgb(68,69,71)"/>
	</linearGradient>
</defs>
<path transform="translate(0,0)" fill="rgb(253,252,246)" d="M 0 0 L 2048 0 L 2048 2048 L 0 2048 L 0 0 z M 1090.47 236.855 C 1064.48 221.305 1035.06 208.398 1004.26 216.387 C 979.804 222.728 957.183 239.358 936.592 253.533 C 900.417 278.436 863.158 307.338 834.365 340.732 C 819.915 357.491 807.385 376.305 794.822 394.519 C 774.032 424.662 753.855 455.319 732.393 484.984 C 694.951 484.688 659.053 484.038 621.713 488.776 C 510.677 502.864 407.914 562.645 317.797 625.537 C 299.029 638.635 279.48 650.815 261.022 664.315 C 240.077 679.635 219.744 697.467 201.26 715.648 C 142.641 773.31 96.2659 847.197 95.8703 931.905 C 95.6548 978.068 113.04 1023.84 145.907 1056.55 C 164.862 1075.42 188.168 1089.18 208.18 1106.9 C 260.538 1153.27 280.857 1226.6 281.359 1294.73 C 281.654 1334.9 272.366 1373.46 269.478 1413.23 C 262.497 1509.4 302.639 1586.58 364.03 1657.05 C 371.61 1665.76 379.914 1673.82 387.773 1682.27 C 387.73 1686.86 386.35 1699.2 388.568 1702.77 C 388.775 1711.97 388.976 1748.85 394.49 1754.38 L 396.339 1754.21 C 402.59 1746.02 400.003 1706.92 399.996 1695.12 C 405.714 1699.26 411.411 1703.8 417.85 1706.77 C 425.134 1720.7 431.644 1734.98 442.343 1746.69 C 438.942 1735.84 432.818 1726.4 428.215 1716.09 C 429.001 1715.97 429.787 1715.61 430.571 1715.74 C 433.864 1716.27 445.462 1724.77 449.1 1726.81 C 462.65 1734.42 477.675 1741.36 492.185 1747.02 C 530.303 1761.88 568.927 1769.46 609.698 1771.24 C 617.164 1771.56 625.618 1772.45 632.982 1771.51 C 645.862 1782.27 685.211 1817.85 700.951 1815.61 C 702.597 1815.37 702.798 1815.22 704.201 1814.68 L 704.911 1813.18 C 699.522 1808.38 691.58 1805.91 685.397 1802.04 C 671.989 1793.63 659.234 1783.13 647.704 1772.28 C 655.847 1767.08 679.298 1767.64 689.841 1765.55 C 720.645 1759.21 750.98 1750.78 780.637 1740.32 C 790.159 1755.14 797.904 1770.7 804.644 1786.95 C 808.249 1795.65 815.759 1822.93 820.746 1827.43 L 823.273 1827.3 C 824.666 1826.2 825.679 1825.85 826.189 1824.05 C 830.009 1810.54 798.038 1749.88 789.73 1734.83 C 802.633 1727.14 819.77 1723.01 833.748 1716.82 C 857.608 1706.24 880.751 1692.35 905.411 1683.79 C 922.753 1677.76 941.265 1675.95 958.456 1668.96 C 970.749 1665.65 1018.52 1650.2 1028.71 1653.78 L 1028.3 1655.61 C 999.288 1665.3 912.745 1689.03 900.36 1715.35 C 895.86 1724.91 900.364 1738.02 903.987 1747.32 C 908.406 1758.67 936.978 1818.58 944.978 1822.49 C 946.321 1823.15 946.114 1822.75 947.8 1822.04 C 949.191 1818.9 948.519 1818.4 947.265 1815.17 C 935.196 1784.07 910.738 1755.3 906.507 1721.11 C 927.018 1701.71 952.53 1691.34 978.758 1681.91 C 988.083 1688.14 999.856 1695.75 1004.49 1706.41 L 991.971 1712.42 C 988.864 1713.63 985.947 1714.88 983.01 1716.46 C 975.174 1720.69 964.569 1709.9 941.716 1721.69 C 934.915 1732.6 928.578 1743.14 931.773 1756.58 C 933.796 1765.1 939.756 1772.2 947.299 1776.46 C 954.168 1780.43 962.366 1781.41 969.979 1779.17 C 978.015 1776.85 985.346 1771.34 989.155 1763.81 C 993.655 1754.92 992.759 1745.24 989.456 1736.14 C 987.635 1731.12 985.012 1726.19 982.102 1721.73 C 986.148 1719.67 990.188 1717.39 994.446 1715.81 L 998.882 1714.09 C 1014.02 1731.63 1040.36 1741.23 1062.86 1743.38 C 1148.91 1751.58 1338.56 1626.75 1409.66 1574.82 C 1439.81 1552.81 1468.3 1528.59 1497.16 1504.96 C 1496.54 1516.55 1493.28 1527.53 1489.74 1538.54 C 1481.91 1562.9 1441.25 1666.15 1426.38 1679.45 C 1421.46 1683.84 1413.23 1686.7 1406.64 1686.06 C 1405.55 1685.96 1404.88 1685.78 1403.77 1685.55 C 1403.48 1685.41 1403.19 1685.28 1402.91 1685.14 C 1392.77 1680.04 1382.98 1666.27 1371 1667.69 L 1369.87 1668.8 C 1372.64 1672.31 1378.73 1673.85 1382.54 1676.3 C 1388.71 1680.27 1394.1 1685.64 1400.65 1688.97 C 1408.01 1691.34 1414.68 1691.83 1421.77 1688.21 C 1427.28 1685.4 1431.36 1680.8 1434.83 1675.78 C 1452.84 1649.78 1463.94 1616.15 1475.42 1586.93 C 1481.29 1571.96 1488.05 1556.87 1492.69 1541.48 C 1496.91 1527.44 1497.9 1512.72 1502.11 1498.8 C 1502.22 1498.44 1502.34 1498.08 1502.45 1497.72 C 1516.71 1489.27 1526.35 1474.58 1539.84 1465.13 C 1540 1465.73 1540.18 1466.33 1540.33 1466.94 C 1542.98 1477.79 1540.54 1492.13 1539.04 1503.11 C 1530.72 1564.01 1507.17 1625.53 1473.53 1676.9 C 1448.54 1715.04 1421.84 1749.63 1387.3 1779.7 C 1379.26 1786.69 1370.51 1794.13 1361.51 1799.83 C 1356.59 1802.94 1350.85 1805.26 1346.21 1808.66 C 1344.38 1809.99 1343.9 1810.32 1343.18 1812.52 C 1349.52 1814.68 1358.52 1809.79 1364.29 1806.95 C 1434.49 1772.46 1503.86 1663.63 1528.56 1590.19 C 1540.42 1554.95 1549.45 1515.69 1549.11 1478.34 C 1609.59 1528.61 1634.08 1551.24 1641.75 1633.42 C 1643.48 1651.98 1638.15 1653.13 1634.59 1668.47 C 1628.6 1679.76 1622.55 1690.88 1615.54 1701.58 C 1603.43 1720.08 1559.48 1776.34 1557.63 1794.18 L 1557.87 1794.72 C 1560.63 1794.18 1561.89 1792.33 1563.39 1790.04 C 1570.86 1778.66 1576.96 1766.39 1584.46 1755 C 1598.62 1733.47 1629.39 1696.22 1636.64 1673.75 C 1639.17 1670.01 1640.92 1665.51 1642.85 1661.43 C 1642.5 1679.28 1642.27 1731.31 1647.65 1746.17 C 1648.56 1748.66 1649.21 1749.22 1651.61 1750.19 L 1653.54 1748.68 C 1655.71 1742.49 1655.54 1734.59 1656.05 1728.03 C 1659.61 1682.02 1654.85 1633.8 1645.24 1588.69 C 1633.16 1532.03 1596.2 1497.57 1549.38 1467.13 C 1548.7 1455.58 1545.7 1446.65 1539.34 1437.02 C 1548.18 1426.51 1558.29 1416.81 1567.76 1406.85 C 1588.08 1385.5 1608.93 1363.81 1627.98 1341.32 C 1753 1193.64 1856.89 1045.14 1918.67 859.96 C 1932.44 818.709 1945.23 776.909 1951.22 733.712 C 1965.69 629.42 1916.18 515.619 1854.22 433.996 C 1774.28 328.685 1656.25 254 1537.72 199.21 C 1486.95 175.738 1432.57 153.808 1376.74 146.36 C 1295.48 135.52 1226.06 163.124 1155.63 199.321 C 1133.36 210.767 1110.49 221.653 1090.47 236.855 z"/>
<path transform="translate(0,0)" fill="rgb(183,213,220)" d="M 1090.47 236.855 C 1110.49 221.653 1133.36 210.767 1155.63 199.321 C 1226.06 163.124 1295.48 135.52 1376.74 146.36 C 1432.57 153.808 1486.95 175.738 1537.72 199.21 C 1656.25 254 1774.28 328.685 1854.22 433.996 C 1916.18 515.619 1965.69 629.42 1951.22 733.712 C 1945.23 776.909 1932.44 818.709 1918.67 859.96 C 1856.89 1045.14 1753 1193.64 1627.98 1341.32 C 1608.93 1363.81 1588.08 1385.5 1567.76 1406.85 C 1558.29 1416.81 1548.18 1426.51 1539.34 1437.02 C 1512.57 1418.03 1484.06 1403.42 1454.36 1389.64 C 1453.87 1385.95 1454.13 1382.58 1452.83 1378.99 C 1449.02 1368.45 1441.37 1362.42 1431.63 1357.6 C 1514.55 1320.82 1612.58 1280.28 1663.83 1200.99 C 1683.27 1170.91 1696.02 1137.06 1688.09 1100.98 C 1681.26 1069.9 1658 1032.86 1638.49 1007.74 C 1624.94 990.291 1609.94 973.996 1597.14 955.965 C 1562.8 908.122 1529.61 859.462 1497.61 810.026 C 1480.07 782.781 1469.92 750.847 1453.79 722.525 C 1434.52 688.693 1409.69 658.763 1390.36 625.055 C 1384.08 614.114 1379.32 602.433 1373.8 591.11 C 1367.89 578.954 1361.15 567.142 1354.63 555.301 C 1330.78 511.994 1304.53 471.134 1277.72 429.692 C 1259.58 401.646 1241.6 372.861 1221.09 346.458 C 1189.12 305.289 1134.02 264.951 1090.47 236.855 z"/>
<path transform="translate(0,0)" fill="rgb(61,62,60)" d="M 732.393 484.984 C 753.855 455.319 774.032 424.662 794.822 394.519 C 807.385 376.305 819.915 357.491 834.365 340.732 C 863.158 307.338 900.417 278.436 936.592 253.533 C 957.183 239.358 979.804 222.728 1004.26 216.387 C 1035.06 208.398 1064.48 221.305 1090.47 236.855 C 1134.02 264.951 1189.12 305.289 1221.09 346.458 C 1241.6 372.861 1259.58 401.646 1277.72 429.692 C 1304.53 471.134 1330.78 511.994 1354.63 555.301 C 1361.15 567.142 1367.89 578.954 1373.8 591.11 C 1379.32 602.433 1384.08 614.114 1390.36 625.055 C 1409.69 658.763 1434.52 688.693 1453.79 722.525 C 1469.92 750.847 1480.07 782.781 1497.61 810.026 C 1529.61 859.462 1562.8 908.122 1597.14 955.965 C 1609.94 973.996 1624.94 990.291 1638.49 1007.74 C 1658 1032.86 1681.26 1069.9 1688.09 1100.98 C 1696.02 1137.06 1683.27 1170.91 1663.83 1200.99 C 1612.58 1280.28 1514.55 1320.82 1431.63 1357.6 C 1441.37 1362.42 1449.02 1368.45 1452.83 1378.99 C 1454.13 1382.58 1453.87 1385.95 1454.36 1389.64 C 1484.06 1403.42 1512.57 1418.03 1539.34 1437.02 C 1545.7 1446.65 1548.7 1455.58 1549.38 1467.13 C 1596.2 1497.57 1633.16 1532.03 1645.24 1588.69 C 1654.85 1633.8 1659.61 1682.02 1656.05 1728.03 C 1655.54 1734.59 1655.71 1742.49 1653.54 1748.68 L 1651.61 1750.19 C 1649.21 1749.22 1648.56 1748.66 1647.65 1746.17 C 1642.27 1731.31 1642.5 1679.28 1642.85 1661.43 C 1640.92 1665.51 1639.17 1670.01 1636.64 1673.75 L 1636.24 1672.33 C 1633.88 1673.72 1632 1681.13 1629.71 1683.79 C 1629.29 1681.4 1634.03 1673.1 1635.23 1670.3 L 1634.59 1668.47 C 1638.15 1653.13 1643.48 1651.98 1641.75 1633.42 C 1634.08 1551.24 1609.59 1528.61 1549.11 1478.34 C 1549.45 1515.69 1540.42 1554.95 1528.56 1590.19 C 1503.86 1663.63 1434.49 1772.46 1364.29 1806.95 C 1358.52 1809.79 1349.52 1814.68 1343.18 1812.52 C 1343.9 1810.32 1344.38 1809.99 1346.21 1808.66 C 1350.85 1805.26 1356.59 1802.94 1361.51 1799.83 C 1370.51 1794.13 1379.26 1786.69 1387.3 1779.7 C 1421.84 1749.63 1448.54 1715.04 1473.53 1676.9 C 1507.17 1625.53 1530.72 1564.01 1539.04 1503.11 C 1540.54 1492.13 1542.98 1477.79 1540.33 1466.94 C 1540.18 1466.33 1540 1465.73 1539.84 1465.13 C 1539.42 1462.92 1539.03 1460.67 1538.51 1458.48 C 1534.91 1443.34 1515.54 1436.37 1503.56 1428.76 L 1499.9 1426.07 C 1482.36 1417.12 1465.31 1406.05 1446.38 1400.29 C 1429.74 1413.9 1412.17 1411.22 1397.9 1422.31 C 1394.93 1421.33 1394.31 1420.81 1391.42 1422.4 C 1390.62 1422.85 1389.45 1423.78 1388.68 1424.36 C 1375.44 1425.21 1359.58 1433.71 1346.99 1438.13 C 1333.99 1442.6 1320.83 1446.63 1307.56 1450.21 C 1260.29 1462.8 1210.11 1464.3 1161.47 1465.09 C 1148.32 1476.94 1134.4 1487.01 1120.77 1498.15 C 1103.96 1511.12 1087.2 1524.18 1069.45 1535.85 C 1044.31 1552.38 1017.78 1566.34 991.361 1580.64 C 959.509 1598.21 927.3 1615.14 894.755 1631.39 C 858.113 1648.45 821.935 1665.63 783.088 1677.18 C 777.894 1678.72 763.147 1680.87 760.542 1685.43 C 767.722 1702.59 780.551 1718.55 789.73 1734.83 C 798.038 1749.88 830.009 1810.54 826.189 1824.05 C 825.679 1825.85 824.666 1826.2 823.273 1827.3 L 820.746 1827.43 C 815.759 1822.93 808.249 1795.65 804.644 1786.95 C 797.904 1770.7 790.159 1755.14 780.637 1740.32 C 773.007 1728.26 746.649 1689.33 745.95 1677.37 C 746.918 1675.38 747.44 1674.74 749.402 1673.7 C 751.047 1674.3 753.361 1675.43 755.081 1675.58 C 760.06 1676.01 769.255 1671.31 773.994 1669.6 C 813.326 1655.46 850.797 1639.71 888.724 1622.14 C 906.199 1613.81 923.335 1604.78 940.09 1595.07 C 918.519 1592.08 897.457 1587.18 876.275 1582.23 C 850.558 1572.7 823.733 1566.01 797.779 1557.07 C 719.323 1530.04 606.057 1482.73 547.185 1423.01 C 531.827 1430.22 520.682 1436.89 514.586 1453.77 C 497.768 1500.33 526.293 1593.32 547.189 1636.97 C 567.186 1678.74 593.821 1713.19 624.549 1747.51 C 631.847 1755.66 639.314 1765.34 647.704 1772.28 C 659.234 1783.13 671.989 1793.63 685.397 1802.04 C 691.58 1805.91 699.522 1808.38 704.911 1813.18 L 704.201 1814.68 C 702.798 1815.22 702.597 1815.37 700.951 1815.61 C 685.211 1817.85 645.862 1782.27 632.982 1771.51 C 570.742 1715.97 522.832 1635.84 505.521 1554.06 C 500.731 1531.43 500.427 1508.68 496.768 1486 C 487.689 1491.4 479.182 1498.29 470.874 1504.81 C 441.518 1527.85 421.372 1552.04 411.631 1588.66 C 402.024 1624.78 402.167 1652.53 415.41 1687.26 C 419.169 1697.11 422.943 1706.92 428.215 1716.09 C 432.818 1726.4 438.942 1735.84 442.343 1746.69 C 431.644 1734.98 425.134 1720.7 417.85 1706.77 C 411.044 1691.8 404.613 1676.72 400.87 1660.66 C 400.955 1672.16 400.454 1683.63 399.996 1695.12 C 400.003 1706.92 402.59 1746.02 396.339 1754.21 L 394.49 1754.38 C 388.976 1748.85 388.775 1711.97 388.568 1702.77 C 388.184 1669.85 390.434 1635.86 396.114 1603.41 C 408.349 1533.5 443.543 1510.57 497.391 1472.53 C 511.547 1409.38 532.253 1423.68 579.165 1396.93 C 596.255 1387.19 609.546 1373.02 622.364 1358.39 C 578.769 1341.68 535.389 1323.24 495.656 1298.56 C 442.968 1265.84 401.489 1230.33 371.724 1174.78 C 365.755 1163.65 358.943 1151.94 356.263 1139.46 C 350.936 1114.65 359.118 1088.47 370.691 1066.69 C 389.049 1032.15 413.546 1003.22 437.104 972.325 C 453.459 950.877 468.724 928.727 484.616 906.949 C 500.05 885.8 516.307 864.819 530.397 842.747 C 552.268 808.488 567.702 770.53 587.221 735.014 C 596.704 717.751 607.072 700.99 618.285 684.797 C 627.554 671.559 638.16 658.444 646.191 644.425 C 652.13 634.059 656.473 622.861 661.594 612.086 C 668.683 597.17 676.254 582.431 683.764 567.722 C 698.247 539.36 715.562 512.007 732.393 484.984 z M 1075.74 242.904 C 1050.05 229.607 1026.29 221.864 997.762 231.005 C 983.011 235.732 968.806 242.787 955.687 250.976 C 933.485 264.835 913.088 282.377 892.788 298.868 C 874.728 313.541 854.529 328.727 839.018 346.036 C 823.74 363.085 811.203 383.946 798.042 402.745 C 778.58 430.543 757.659 458.262 740.371 487.479 C 716.974 522.937 695.991 559.93 677.564 598.208 C 691.896 581.097 707.765 565.343 722.683 548.749 C 740.674 528.737 757.997 507.845 776.728 488.534 C 787.912 476.878 816.635 443.625 826.924 437.024 C 829.176 437.685 829.198 437.896 830.602 439.812 C 830.51 453.828 797.494 483.524 787.772 495.686 C 767.632 516.17 748.745 537.999 729.589 559.4 C 685.116 609.084 640.485 660.191 606.005 717.535 C 594.026 737.456 584.364 758.668 574.249 779.566 C 567.291 793.94 559.803 808.066 553.026 822.523 C 577.54 805.398 601.908 788.063 626.126 770.52 C 641.767 759.043 656.918 746.74 672.922 735.781 C 690.807 723.534 710.419 713.919 728.288 701.835 C 799.62 662.284 876.436 633.56 956.217 616.604 C 979.668 611.517 1002.73 606.972 1026.6 604.395 C 1079.31 597.478 1127.21 607.648 1177.22 623.3 C 1167.6 613.327 1155.72 605.224 1144.27 597.475 C 1116.61 578.757 1087.1 563.208 1057.61 547.63 C 1038.91 537.753 1019.48 528.328 1002.2 516.069 C 992.621 509.27 981.697 500.656 977.189 489.496 C 974.904 483.838 974.687 477.831 977.327 472.246 C 985.737 454.459 1016.21 444.651 1033.7 438.405 C 1039.54 436.323 1054.24 429.47 1059.89 432.147 L 1060.77 435.038 C 1057.02 439.588 1002.51 451.683 986.478 470.013 C 983.318 473.626 981.249 477.956 981.651 482.843 C 983.567 506.134 1044.27 533.366 1063.82 543.885 C 1090.9 558.462 1118.58 572.426 1143.89 589.996 C 1153.08 596.354 1162.1 602.954 1170.93 609.788 C 1179.2 616.304 1187.21 623.576 1196.19 629.093 C 1207.92 636.306 1222.81 640.719 1235.47 646.381 C 1257.86 656.317 1279.43 668 1299.98 681.32 C 1373.24 728.297 1433.96 790.654 1500.91 845.641 C 1485.18 808.729 1471.16 771.23 1452.12 735.829 C 1439.34 712.084 1424.18 688.073 1407.17 667.131 C 1400.06 658.375 1391.79 650.618 1384.7 641.838 C 1367.91 621.043 1351.79 600.003 1334.17 579.873 L 1295.22 535.244 C 1289.04 528.257 1283.04 520.64 1276.21 514.301 C 1277.55 516.854 1278.77 518.817 1278.7 521.802 L 1277.53 522.46 C 1269.05 516.263 1261.63 503.646 1255.25 495.086 C 1255 494.946 1254.72 494.846 1254.5 494.664 C 1243.58 485.741 1147.19 351.828 1146.46 342.884 L 1147.82 341.349 L 1150.18 341.397 C 1161.32 350.936 1170.5 369.665 1178.86 382.119 C 1193.09 403.305 1207.6 424.786 1223.32 444.89 C 1223.1 443.076 1222.96 441.344 1222.96 439.516 L 1225.03 438.088 C 1227.73 438.304 1229.31 439.538 1231.09 441.469 C 1241.69 452.96 1250.98 465.912 1261.25 477.737 C 1295.29 517.412 1329.76 556.707 1364.66 595.616 C 1359.59 581.49 1351.82 568.422 1344.61 555.307 C 1323.81 517.523 1300.37 481.318 1277 445.102 C 1256.36 413.098 1234.68 375.427 1208.96 347.552 C 1176.04 311.876 1118.07 266.778 1075.74 242.904 z M 1033.56 610.109 C 938.276 621.216 845.799 649.525 760.627 693.662 C 752.39 697.848 728.857 708.22 722.729 713.996 C 677.573 739.423 638.016 771.964 595.991 801.96 C 582.265 811.758 554.796 828.074 544.26 838.351 C 538.255 844.209 533.539 852.516 528.805 859.416 C 520.148 872.035 511.622 884.762 502.799 897.267 C 473.237 939.166 441.449 979.955 413.949 1023.27 C 455.642 980.645 624.959 905.536 684.676 878.661 C 734.28 857.629 783.731 835.787 834.743 818.271 C 861.967 808.923 889.956 801.331 917.861 794.325 C 950.509 786.128 983.832 779.019 1017.59 777.836 C 1042.74 776.955 1067.41 779.611 1092.16 783.818 C 1134.72 792.841 1176.4 805.986 1217.39 820.497 C 1257.39 834.662 1296.47 851.264 1335.64 867.554 C 1385.38 888.16 1434.54 910.151 1483.06 933.503 C 1530.66 956.377 1582.98 980.91 1623.19 1015.64 C 1617.12 1002.72 1607.36 990.929 1599.25 979.205 L 1564.12 927.608 L 1540.07 892.43 C 1536.4 887.062 1532.74 880.415 1528.32 875.692 C 1526.6 873.849 1526.14 875.396 1524.2 874.738 C 1521.69 873.886 1511.49 862.452 1508.87 860.135 C 1495.91 848.661 1481.87 838.281 1468.77 826.897 C 1416.98 781.894 1362.3 729.496 1304.93 692.341 C 1273.14 671.749 1239.34 655.383 1204.54 640.566 C 1207.83 644.526 1211.08 648.521 1214.28 652.551 C 1237.85 682.158 1258.01 717.186 1266.8 754.203 C 1268.06 759.48 1270.18 767.294 1269.3 772.672 C 1268.97 774.723 1268.79 774.918 1267.1 776.195 C 1266.36 775.892 1265.44 775.863 1264.89 775.287 C 1262.98 773.274 1260.58 753.966 1259.26 749.453 C 1249.62 716.594 1233.79 688.125 1213.39 660.837 C 1208.27 653.979 1203.07 646.551 1196.77 640.738 C 1187.44 632.129 1174.36 628.806 1162.53 625.114 C 1119.05 611.55 1078.82 607.36 1033.56 610.109 z M 1093.01 792.245 C 1065.04 787.827 1037.27 785.185 1008.91 786.816 C 986.967 788.078 965.416 792.304 943.971 796.914 C 874.195 811.913 806.961 836.048 740.978 863.024 C 722.201 870.701 704.043 879.854 685.125 887.186 C 600.251 927.526 512.31 965.179 435.213 1019.41 C 419.877 1030.2 403.11 1042.04 390.488 1055.92 C 382.096 1065.34 375.652 1076.32 371.528 1088.24 C 367.815 1098.76 365.984 1109.55 365.601 1120.67 C 373.851 1109.31 381.264 1097.27 391.174 1087.23 C 439.88 1037.9 555.805 977.899 620.634 948.638 C 642.626 938.712 665.45 930.747 687.386 920.646 C 713.318 908.806 740.352 899.021 766.92 888.672 C 834.793 862.234 915.716 830.121 987.611 821.746 C 1021.1 817.999 1054.97 819.607 1087.96 826.509 C 1108.22 830.068 1128.61 835.532 1148.27 841.573 C 1199.16 857.215 1248.81 875.98 1298.4 895.263 C 1401.15 935.217 1504.17 977.95 1595.82 1040.12 C 1617.27 1054.67 1640 1070.83 1657.64 1089.92 C 1666.83 1099.86 1672.87 1110.45 1679.16 1122.29 C 1679.38 1103.39 1673.3 1085.84 1663.39 1069.84 C 1618.9 998.007 1423.22 915.268 1343.74 881.352 C 1308.56 866.339 1273.34 850.766 1237.45 837.533 C 1190.07 820.065 1142.16 803.942 1093.01 792.245 z M 949.43 1179.43 L 948.323 1177.62 C 929.906 1174.14 805.019 1184.82 782.764 1189.49 L 781.763 1191.58 C 778.684 1188.94 777.679 1189.31 773.619 1189.58 C 762.824 1190.29 752.183 1192.85 741.421 1193.78 C 719.027 1197.7 617.571 1209.31 605.509 1221.17 C 604.645 1223.62 604.321 1224.98 605.499 1227.44 C 607.194 1230.99 609.052 1231.78 612.645 1232.74 C 610.909 1234.69 611.244 1236.91 610.99 1239.46 C 614.565 1257.71 647.302 1308.75 659.026 1327.33 C 665.138 1330.05 677.593 1333.84 680.447 1339.89 C 680.003 1342.49 679.689 1343.63 677.438 1345.2 C 675.083 1346.84 672.039 1348.07 669.457 1349.34 C 665.482 1366.2 657.564 1376.09 643.411 1385.72 C 654.519 1393.78 666.104 1400.77 678.896 1405.84 C 708.115 1417.42 739.821 1421.68 770.614 1427.05 C 791.363 1430.67 812.004 1434.75 832.89 1437.57 C 851.781 1440.02 870.529 1444.33 889.214 1447.97 C 917.877 1453.73 946.656 1458.88 975.534 1463.44 C 971.27 1440.14 969.812 1416.02 967.326 1392.46 C 963.432 1355.56 959.205 1318.64 955.846 1281.69 C 954.752 1269.65 952.5 1209.6 949.441 1203.61 L 946.32 1203.14 C 942.088 1198.4 936.883 1204.21 932.271 1200.79 L 932.728 1199.56 C 937.578 1198.29 942.677 1200.6 947.215 1198.87 C 948.587 1197.5 949.446 1196.48 950.115 1194.61 C 951.267 1191.4 951.109 1182.37 949.43 1179.43 z M 1284.64 1185.88 C 1257.16 1184.42 1229.9 1180.24 1202.5 1177.76 C 1158.12 1173.74 999.751 1163 963.479 1175.31 L 962.422 1175.66 C 961.729 1175.9 961.045 1176.16 960.362 1176.42 C 962.055 1207.69 981.758 1450.27 989.321 1464.01 C 1004.01 1467.23 1044.5 1458.7 1061.77 1457.04 C 1094.54 1453.89 1127.27 1455.8 1159.94 1453.03 C 1160.29 1447.41 1159.59 1437.32 1161.62 1432.36 L 1161.81 1438.31 L 1163.98 1440.16 C 1164.07 1444.46 1163.54 1448.82 1163.22 1453.11 C 1220.12 1451.41 1270.51 1450.16 1325.66 1433.18 C 1340.21 1428.7 1354 1422.87 1368.14 1417.36 C 1375.89 1414.33 1384.32 1412.67 1391.91 1409.4 C 1394.12 1408.45 1394.78 1408.47 1395.65 1406.19 C 1391.32 1399.36 1392.89 1386.17 1392.82 1378.03 C 1392.71 1365.53 1391.93 1352.48 1394.34 1340.15 C 1401.74 1302.29 1438.24 1263.01 1441.2 1231.31 C 1441.61 1226.91 1440.98 1221.82 1437.85 1218.44 C 1426.96 1206.73 1310 1188.3 1288.77 1186.96 C 1287.47 1186.41 1286.02 1186.19 1284.64 1185.88 z M 602.019 1398.23 L 599.567 1399.21 L 598.012 1398.34 C 591.959 1401.92 586.514 1406.21 580.244 1409.48 C 571.639 1413.97 562.445 1416.96 553.622 1420.91 C 603.623 1477.91 750.969 1535.72 824.243 1559.76 C 838.903 1564.57 853.793 1569.87 868.774 1573.54 C 894.602 1582.13 920.03 1586.89 946.818 1591.31 C 962.744 1583.62 978.758 1575.31 994.021 1566.39 C 991.627 1547.11 987.608 1527.97 983.913 1508.91 C 981.733 1497.66 980.375 1486.1 977.033 1475.13 C 958.805 1474.58 940.333 1470.12 922.435 1466.83 C 892.633 1461.04 862.724 1455.82 832.725 1451.16 C 809.239 1446.48 785.469 1443.18 762.057 1438.23 C 783.465 1453.33 808.51 1466.11 832.783 1475.97 C 844.061 1481.57 892.7 1498.73 897.285 1506.26 C 896.286 1508.34 896.327 1507.91 894.362 1508.7 C 876.867 1504.38 860.263 1497.95 843.418 1491.63 C 816.943 1480.75 791.171 1468.23 766.251 1454.15 C 755.906 1448.23 746.519 1440.04 735.786 1434.93 C 727.152 1430.82 716.286 1429.57 706.98 1427.25 C 686.002 1422.03 650.358 1410.23 636.659 1392.54 C 634.475 1389.72 632.665 1386.35 633.186 1382.73 C 635.58 1382.28 637.951 1381.79 640.33 1381.27 C 641.115 1381.1 641.662 1381.03 642.405 1380.76 C 652.266 1377.2 660.889 1360.35 664.687 1351.52 L 635.236 1359.61 C 625.733 1370.81 618.122 1382.17 606.636 1391.68 C 604.63 1393.34 602.502 1394.75 601.115 1397 L 602.019 1398.23 z M 870.311 910.151 C 848.578 918.958 834.387 938.651 825.37 959.651 C 813.45 987.411 812.764 1018.2 824.316 1046.22 C 832.221 1065.4 846.628 1083.2 866.156 1091.28 C 871.081 1093.32 875.638 1093.85 880.923 1094.1 C 896.669 1091.56 908.512 1084.68 917.915 1071.76 C 933.148 1050.85 936.862 1022.59 932.601 997.553 C 927.986 970.439 915.818 932.732 891.795 916.388 C 884.772 911.61 878.723 909.628 870.311 910.151 z M 1170.78 912.117 C 1152.69 917.154 1140.54 933.548 1131.65 949.189 C 1114.96 978.576 1110.07 1013.16 1119.44 1045.8 C 1124.46 1063.27 1134.78 1080.86 1151.37 1089.58 C 1160.08 1094.17 1168.37 1094.87 1177.9 1093.37 C 1199.92 1084.51 1215.46 1069.34 1224.9 1047.46 C 1236.46 1020.66 1234.65 991.319 1223.94 964.551 C 1216.8 946.715 1203.84 922.294 1185.4 914.081 C 1180.44 911.872 1176.12 911.761 1170.78 912.117 z M 688.22 932.038 C 681.793 934.351 675.304 936.55 669.036 939.272 C 668.104 979.137 696.778 1098.52 710.365 1137.42 C 714.877 1150.34 722.046 1168.96 731.533 1179.04 C 733.25 1180.86 734.827 1181.03 737.286 1180.97 C 737.603 1180.96 737.92 1180.93 738.237 1180.91 C 744.322 1180.08 750.454 1179.06 756.578 1178.63 C 725.529 1115.12 708.214 1048.58 696.685 979.159 C 695.468 971.826 692.039 934.844 688.22 932.038 z M 1357.15 931.623 C 1343.78 1013.72 1328.1 1097.52 1296.31 1174.82 C 1302.67 1175.72 1310.12 1175.82 1316.24 1177.39 C 1319.05 1177.92 1320.85 1178.83 1323.52 1177.62 C 1327.18 1168.61 1329.44 1159.03 1332.47 1149.79 C 1347.26 1104.62 1359.94 1057.07 1367 1010 C 1369.09 996.167 1370.92 982.297 1372.48 968.395 C 1373.53 958.377 1373.99 947.962 1375.84 938.072 C 1369.57 936.024 1363.34 933.874 1357.15 931.623 z M 648.463 948.042 C 576.254 979.075 454.689 1037.83 401.066 1092.68 C 401.406 1115.97 408.362 1141.73 420.08 1161.91 C 423.229 1166.85 426.28 1171.91 429.582 1176.75 C 438.283 1170.01 445.857 1161.17 453.537 1153.26 L 486.214 1119.95 C 528.056 1076.93 568.708 1032.78 610.294 989.519 C 623.267 976.024 635.827 962.082 649.204 948.989 L 648.807 948.126 L 648.463 948.042 z M 1381.58 947.417 C 1376.74 1027.54 1355.88 1104.2 1331.35 1180.19 C 1357.91 1184.18 1410.11 1190.98 1433.45 1200.73 C 1439.34 1203.18 1445.34 1206.81 1449.12 1212.06 C 1453.76 1218.51 1454 1227.36 1452.65 1234.9 C 1447.22 1265.25 1424.47 1292.72 1413.27 1321.44 C 1437.04 1308.33 1461.94 1297.46 1485.67 1284.37 C 1525.47 1262.28 1586.92 1222.29 1609.57 1182.38 C 1567.32 1140.89 1524.21 1100.27 1483.87 1056.89 C 1459.04 1030.17 1435.07 1002.71 1409.97 976.237 C 1400.97 966.743 1391.86 955.354 1381.58 947.417 z M 1399.02 947.71 C 1413.31 966.266 1430.58 983.149 1446.35 1000.48 C 1474.56 1031.51 1502.33 1062.7 1531.91 1092.46 C 1559.47 1120.19 1588.61 1146.36 1615.67 1174.58 C 1619.35 1168.68 1622.8 1162.88 1625.76 1156.59 C 1635.93 1136.08 1641.92 1114.94 1643.59 1092.06 C 1599.62 1047.27 1527.56 1010.76 1471.94 982.003 C 1448.57 969.917 1423.97 956.211 1399.02 947.71 z M 659.543 948.707 C 611.021 998.324 564.622 1050.24 516.732 1100.5 C 490.205 1128.35 460.515 1154.36 435.973 1183.94 C 467.341 1229.28 529.016 1266.98 578.2 1290.95 C 600.092 1301.61 622.213 1311.68 643.871 1322.82 C 631.109 1303.86 590.796 1240.99 594.613 1219.39 C 595.467 1214.55 598.56 1211.02 602.586 1208.4 C 620.065 1197.02 698.519 1185.1 723.248 1183.59 C 699.754 1139.62 687.284 1090.64 676.956 1042.08 C 674.706 1031.5 662.066 951.093 659.543 948.707 z M 391.821 1099.95 C 380.218 1114.59 373.397 1130.49 375.713 1149.52 C 381.419 1196.42 434.689 1242.42 470.376 1269.84 C 510.578 1300.73 557.772 1321.29 604.764 1339.5 C 612.553 1342.52 626.355 1349.36 634.497 1348.88 C 636.005 1348.79 637.871 1347.96 639.27 1347.38 C 646.03 1344.27 652.514 1341.66 659.816 1340.09 L 658.376 1339.28 C 639.886 1329.03 619.662 1321.37 600.635 1312.08 C 522.403 1273.88 423.595 1221.08 397.788 1130.7 C 395.171 1121.53 393.587 1111.62 392.644 1102.15 C 392.492 1100.62 392.668 1101.2 391.821 1099.95 z M 1652.43 1102.56 C 1643.28 1170.77 1608.12 1210.89 1555.12 1251.35 C 1530.88 1270.08 1504.94 1286.5 1477.64 1300.4 C 1457.26 1310.69 1435.35 1319.74 1415.62 1331.1 C 1412.41 1332.95 1408.77 1335.77 1408 1339.63 C 1407.51 1342.1 1408.33 1343.9 1409.91 1345.75 C 1412.22 1348.45 1416.73 1349.41 1420.02 1350.19 L 1423.35 1348.79 C 1501.22 1313.46 1576.88 1286.27 1635.53 1219.8 C 1648.29 1205.34 1661.14 1188.03 1668.06 1169.88 C 1674.38 1153.28 1672.1 1136.74 1664.94 1120.96 C 1662.36 1115.27 1657.57 1106.14 1652.43 1102.56 z M 1407.63 1357.97 C 1403.51 1362.47 1404.48 1371.05 1404.75 1376.98 C 1405.17 1386.19 1406.14 1395.62 1408.11 1404.64 C 1416.52 1402.25 1424.9 1400.03 1432.88 1396.38 C 1436.13 1394.39 1440.34 1392.38 1441.03 1388.2 C 1441.71 1384.11 1438.56 1379.56 1435.95 1376.72 C 1429.35 1369.52 1417 1360.52 1407.63 1357.97 z M 1088.11 1466.49 C 1055.33 1468.38 1023.09 1475.15 990.444 1477.14 C 994.127 1504.74 1001.5 1531.6 1004.53 1559.38 C 1013.51 1555.73 1022.22 1550.91 1030.49 1545.86 C 1054.33 1532.29 1077.25 1517.18 1099.12 1500.62 C 1114.44 1489.23 1129.25 1477.02 1144.74 1465.9 C 1125.84 1465.79 1107 1466.41 1088.11 1466.49 z"/>
<path transform="translate(0,0)" fill="rgb(253,252,246)" d="M 740.371 487.479 C 757.659 458.262 778.58 430.543 798.042 402.745 C 811.203 383.946 823.74 363.085 839.018 346.036 C 854.529 328.727 874.728 313.541 892.788 298.868 C 913.088 282.377 933.485 264.835 955.687 250.976 C 968.806 242.787 983.011 235.732 997.762 231.005 C 1026.29 221.864 1050.05 229.607 1075.74 242.904 C 1075.48 243.151 1075.22 243.401 1074.96 243.644 C 1066.81 251.228 1056.98 257.304 1048.11 264.053 C 1036.84 272.631 1026.17 282.181 1015.67 291.672 C 987.475 317.162 959.591 343.891 934.035 372.05 C 915.785 392.159 898.688 413.538 880.994 434.161 C 866.661 450.867 834.798 487.867 826.191 506.782 L 825.405 506.978 C 813.231 502.24 800.299 499.38 787.772 495.686 C 797.494 483.524 830.51 453.828 830.602 439.812 C 829.198 437.896 829.176 437.685 826.924 437.024 C 816.635 443.625 787.912 476.878 776.728 488.534 C 764.405 491.19 752.569 490.069 740.371 487.479 z"/>
<path transform="translate(0,0)" fill="rgb(183,213,220)" d="M 1075.74 242.904 C 1118.07 266.778 1176.04 311.876 1208.96 347.552 C 1234.68 375.427 1256.36 413.098 1277 445.102 C 1300.37 481.318 1323.81 517.523 1344.61 555.307 C 1351.82 568.422 1359.59 581.49 1364.66 595.616 C 1329.76 556.707 1295.29 517.412 1261.25 477.737 C 1250.98 465.912 1241.69 452.96 1231.09 441.469 C 1229.31 439.538 1227.73 438.304 1225.03 438.088 L 1222.96 439.516 C 1222.96 441.344 1223.1 443.076 1223.32 444.89 C 1207.6 424.786 1193.09 403.305 1178.86 382.119 C 1170.5 369.665 1161.32 350.936 1150.18 341.397 L 1147.82 341.349 L 1146.46 342.884 C 1147.19 351.828 1243.58 485.741 1254.5 494.664 C 1254.72 494.846 1255 494.946 1255.25 495.086 C 1261.63 503.646 1269.05 516.263 1277.53 522.46 L 1278.7 521.802 C 1278.77 518.817 1277.55 516.854 1276.21 514.301 C 1283.04 520.64 1289.04 528.257 1295.22 535.244 L 1334.17 579.873 C 1351.79 600.003 1367.91 621.043 1384.7 641.838 C 1391.79 650.618 1400.06 658.375 1407.17 667.131 C 1424.18 688.073 1439.34 712.084 1452.12 735.829 C 1471.16 771.23 1485.18 808.729 1500.91 845.641 C 1433.96 790.654 1373.24 728.297 1299.98 681.32 C 1279.43 668 1257.86 656.317 1235.47 646.381 C 1222.81 640.719 1207.92 636.306 1196.19 629.093 C 1187.21 623.576 1179.2 616.304 1170.93 609.788 C 1162.1 602.954 1153.08 596.354 1143.89 589.996 C 1118.58 572.426 1090.9 558.462 1063.82 543.885 C 1044.27 533.366 983.567 506.134 981.651 482.843 C 981.249 477.956 983.318 473.626 986.478 470.013 C 1002.51 451.683 1057.02 439.588 1060.77 435.038 L 1059.89 432.147 C 1054.24 429.47 1039.54 436.323 1033.7 438.405 C 1016.21 444.651 985.737 454.459 977.327 472.246 C 974.687 477.831 974.904 483.838 977.189 489.496 C 981.697 500.656 992.621 509.27 1002.2 516.069 C 1019.48 528.328 1038.91 537.753 1057.61 547.63 C 1087.1 563.208 1116.61 578.757 1144.27 597.475 C 1155.72 605.224 1167.6 613.327 1177.22 623.3 C 1127.21 607.648 1079.31 597.478 1026.6 604.395 C 1025.59 604.257 1023.29 604.251 1022.47 603.829 C 1018.4 601.743 1013.73 595.987 1010.14 592.806 C 1000.75 584.473 990.713 576.007 979.624 570.019 C 928.509 542.42 882.47 522.251 826.191 506.782 C 834.798 487.867 866.661 450.867 880.994 434.161 C 898.688 413.538 915.785 392.159 934.035 372.05 C 959.591 343.891 987.475 317.162 1015.67 291.672 C 1026.17 282.181 1036.84 272.631 1048.11 264.053 C 1056.98 257.304 1066.81 251.228 1074.96 243.644 C 1075.22 243.401 1075.48 243.151 1075.74 242.904 z"/>
<path transform="translate(0,0)" fill="rgb(254,229,167)" d="M 387.773 1682.27 C 379.914 1673.82 371.61 1665.76 364.03 1657.05 C 302.639 1586.58 262.497 1509.4 269.478 1413.23 C 272.366 1373.46 281.654 1334.9 281.359 1294.73 C 280.857 1226.6 260.538 1153.27 208.18 1106.9 C 188.168 1089.18 164.862 1075.42 145.907 1056.55 C 113.04 1023.84 95.6548 978.068 95.8703 931.905 C 96.2659 847.197 142.641 773.31 201.26 715.648 C 219.744 697.467 240.077 679.635 261.022 664.315 C 279.48 650.815 299.029 638.635 317.797 625.537 C 407.914 562.645 510.677 502.864 621.713 488.776 C 659.053 484.038 694.951 484.688 732.393 484.984 C 715.562 512.007 698.247 539.36 683.764 567.722 C 676.254 582.431 668.683 597.17 661.594 612.086 C 656.473 622.861 652.13 634.059 646.191 644.425 C 638.16 658.444 627.554 671.559 618.285 684.797 C 607.072 700.99 596.704 717.751 587.221 735.014 C 567.702 770.53 552.268 808.488 530.397 842.747 C 516.307 864.819 500.05 885.8 484.616 906.949 C 468.724 928.727 453.459 950.877 437.104 972.325 C 413.546 1003.22 389.049 1032.15 370.691 1066.69 C 359.118 1088.47 350.936 1114.65 356.263 1139.46 C 358.943 1151.94 365.755 1163.65 371.724 1174.78 C 401.489 1230.33 442.968 1265.84 495.656 1298.56 C 535.389 1323.24 578.769 1341.68 622.364 1358.39 C 609.546 1373.02 596.255 1387.19 579.165 1396.93 C 532.253 1423.68 511.547 1409.38 497.391 1472.53 C 443.543 1510.57 408.349 1533.5 396.114 1603.41 C 390.434 1635.86 388.184 1669.85 388.568 1702.77 C 386.35 1699.2 387.73 1686.86 387.773 1682.27 z"/>
<path transform="translate(0,0)" fill="rgb(254,229,167)" d="M 677.564 598.208 C 695.991 559.93 716.974 522.937 740.371 487.479 C 752.569 490.069 764.405 491.19 776.728 488.534 C 757.997 507.845 740.674 528.737 722.683 548.749 C 707.765 565.343 691.896 581.097 677.564 598.208 z"/>
<path transform="translate(0,0)" fill="rgb(254,229,167)" d="M 553.026 822.523 C 559.803 808.066 567.291 793.94 574.249 779.566 C 584.364 758.668 594.026 737.456 606.005 717.535 C 640.485 660.191 685.116 609.084 729.589 559.4 C 748.745 537.999 767.632 516.17 787.772 495.686 C 800.299 499.38 813.231 502.24 825.405 506.978 C 818.701 521.568 808.133 534.674 800.031 548.538 C 789.959 565.774 780.804 583.698 771.512 601.37 C 754.846 633.06 736.392 666.675 728.288 701.835 C 710.419 713.919 690.807 723.534 672.922 735.781 C 656.918 746.74 641.767 759.043 626.126 770.52 C 601.908 788.063 577.54 805.398 553.026 822.523 z"/>
<path transform="translate(0,0)" fill="rgb(177,209,218)" d="M 825.405 506.978 L 826.191 506.782 C 882.47 522.251 928.509 542.42 979.624 570.019 C 990.713 576.007 1000.75 584.473 1010.14 592.806 C 1013.73 595.987 1018.4 601.743 1022.47 603.829 C 1023.29 604.251 1025.59 604.257 1026.6 604.395 C 1002.73 606.972 979.668 611.517 956.217 616.604 C 876.436 633.56 799.62 662.284 728.288 701.835 C 736.392 666.675 754.846 633.06 771.512 601.37 C 780.804 583.698 789.959 565.774 800.031 548.538 C 808.133 534.674 818.701 521.568 825.405 506.978 z"/>
<path transform="translate(0,0)" fill="rgb(183,213,220)" d="M 1033.56 610.109 C 1078.82 607.36 1119.05 611.55 1162.53 625.114 C 1174.36 628.806 1187.44 632.129 1196.77 640.738 C 1203.07 646.551 1208.27 653.979 1213.39 660.837 C 1233.79 688.125 1249.62 716.594 1259.26 749.453 C 1260.58 753.966 1262.98 773.274 1264.89 775.287 C 1265.44 775.863 1266.36 775.892 1267.1 776.195 C 1268.79 774.918 1268.97 774.723 1269.3 772.672 C 1270.18 767.294 1268.06 759.48 1266.8 754.203 C 1258.01 717.186 1237.85 682.158 1214.28 652.551 C 1211.08 648.521 1207.83 644.526 1204.54 640.566 C 1239.34 655.383 1273.14 671.749 1304.93 692.341 C 1362.3 729.496 1416.98 781.894 1468.77 826.897 C 1481.87 838.281 1495.91 848.661 1508.87 860.135 C 1511.49 862.452 1521.69 873.886 1524.2 874.738 C 1526.14 875.396 1526.6 873.849 1528.32 875.692 C 1532.74 880.415 1536.4 887.062 1540.07 892.43 L 1564.12 927.608 L 1599.25 979.205 C 1607.36 990.929 1617.12 1002.72 1623.19 1015.64 C 1582.98 980.91 1530.66 956.377 1483.06 933.503 C 1434.54 910.151 1385.38 888.16 1335.64 867.554 C 1296.47 851.264 1257.39 834.662 1217.39 820.497 C 1176.4 805.986 1134.72 792.841 1092.16 783.818 C 1091.83 744.169 1084.99 705.072 1068.81 668.679 C 1062.31 654.08 1052.18 640.449 1043.21 627.278 C 1040.64 623.502 1035.36 617.585 1033.96 613.414 C 1033.42 611.823 1033.53 611.563 1033.56 610.109 z"/>
<path transform="translate(0,0)" fill="rgb(177,209,218)" d="M 722.729 713.996 C 728.857 708.22 752.39 697.848 760.627 693.662 C 845.799 649.525 938.276 621.216 1033.56 610.109 C 1033.53 611.563 1033.42 611.823 1033.96 613.414 C 1035.36 617.585 1040.64 623.502 1043.21 627.278 C 1052.18 640.449 1062.31 654.08 1068.81 668.679 C 1084.99 705.072 1091.83 744.169 1092.16 783.818 C 1067.41 779.611 1042.74 776.955 1017.59 777.836 C 983.832 779.019 950.509 786.128 917.861 794.325 C 889.956 801.331 861.967 808.923 834.743 818.271 C 783.731 835.787 734.28 857.629 684.676 878.661 C 686.748 837.054 696.855 794.023 709.029 754.289 C 712.772 742.074 721.295 726.186 722.729 713.996 z"/>
<path transform="translate(0,0)" fill="rgb(254,229,167)" d="M 413.949 1023.27 C 441.449 979.955 473.237 939.166 502.799 897.267 C 511.622 884.762 520.148 872.035 528.805 859.416 C 533.539 852.516 538.255 844.209 544.26 838.351 C 554.796 828.074 582.265 811.758 595.991 801.96 C 638.016 771.964 677.573 739.423 722.729 713.996 C 721.295 726.186 712.772 742.074 709.029 754.289 C 696.855 794.023 686.748 837.054 684.676 878.661 C 624.959 905.536 455.642 980.645 413.949 1023.27 z"/>
<path transform="translate(0,0)" fill="rgb(177,209,218)" d="M 1093.01 792.245 C 1089.94 803.187 1089.66 815.253 1087.96 826.509 C 1054.97 819.607 1021.1 817.999 987.611 821.746 C 915.716 830.121 834.793 862.234 766.92 888.672 C 740.352 899.021 713.318 908.806 687.386 920.646 C 686.307 909.529 684.901 898.371 685.125 887.186 C 704.043 879.854 722.201 870.701 740.978 863.024 C 806.961 836.048 874.195 811.913 943.971 796.914 C 965.416 792.304 986.967 788.078 1008.91 786.816 C 1037.27 785.185 1065.04 787.827 1093.01 792.245 z"/>
<path transform="translate(0,0)" fill="rgb(183,213,220)" d="M 1087.96 826.509 C 1089.66 815.253 1089.94 803.187 1093.01 792.245 C 1142.16 803.942 1190.07 820.065 1237.45 837.533 C 1273.34 850.766 1308.56 866.339 1343.74 881.352 C 1423.22 915.268 1618.9 998.007 1663.39 1069.84 C 1673.3 1085.84 1679.38 1103.39 1679.16 1122.29 C 1672.87 1110.45 1666.83 1099.86 1657.64 1089.92 C 1640 1070.83 1617.27 1054.67 1595.82 1040.12 C 1504.17 977.95 1401.15 935.217 1298.4 895.263 C 1248.81 875.98 1199.16 857.215 1148.27 841.573 C 1128.61 835.532 1108.22 830.068 1087.96 826.509 z"/>
<path transform="translate(0,0)" fill="rgb(254,229,167)" d="M 365.601 1120.67 C 365.984 1109.55 367.815 1098.76 371.528 1088.24 C 375.652 1076.32 382.096 1065.34 390.488 1055.92 C 403.11 1042.04 419.877 1030.2 435.213 1019.41 C 512.31 965.179 600.251 927.526 685.125 887.186 C 684.901 898.371 686.307 909.529 687.386 920.646 C 665.45 930.747 642.626 938.712 620.634 948.638 C 555.805 977.899 439.88 1037.9 391.174 1087.23 C 381.264 1097.27 373.851 1109.31 365.601 1120.67 z"/>
<path transform="translate(0,0)" fill="rgb(254,229,167)" d="M 880.923 1094.1 C 875.638 1093.85 871.081 1093.32 866.156 1091.28 C 846.628 1083.2 832.221 1065.4 824.316 1046.22 C 812.764 1018.2 813.45 987.411 825.37 959.651 C 834.387 938.651 848.578 918.958 870.311 910.151 C 878.723 909.628 884.772 911.61 891.795 916.388 C 915.818 932.732 927.986 970.439 932.601 997.553 C 936.862 1022.59 933.148 1050.85 917.915 1071.76 C 908.512 1084.68 896.669 1091.56 880.923 1094.1 z"/>
<path transform="translate(0,0)" fill="rgb(254,229,167)" d="M 1177.9 1093.37 C 1168.37 1094.87 1160.08 1094.17 1151.37 1089.58 C 1134.78 1080.86 1124.46 1063.27 1119.44 1045.8 C 1110.07 1013.16 1114.96 978.576 1131.65 949.189 C 1140.54 933.548 1152.69 917.154 1170.78 912.117 C 1176.12 911.761 1180.44 911.872 1185.4 914.081 C 1203.84 922.294 1216.8 946.715 1223.94 964.551 C 1234.65 991.319 1236.46 1020.66 1224.9 1047.46 C 1215.46 1069.34 1199.92 1084.51 1177.9 1093.37 z"/>
<path transform="translate(0,0)" fill="rgb(254,229,167)" d="M 669.036 939.272 C 675.304 936.55 681.793 934.351 688.22 932.038 C 692.039 934.844 695.468 971.826 696.685 979.159 C 708.214 1048.58 725.529 1115.12 756.578 1178.63 C 750.454 1179.06 744.322 1180.08 738.237 1180.91 C 737.92 1180.93 737.603 1180.96 737.286 1180.97 C 734.827 1181.03 733.25 1180.86 731.533 1179.04 C 722.046 1168.96 714.877 1150.34 710.365 1137.42 C 696.778 1098.52 668.104 979.137 669.036 939.272 z"/>
<path transform="translate(0,0)" fill="rgb(183,213,220)" d="M 1296.31 1174.82 C 1328.1 1097.52 1343.78 1013.72 1357.15 931.623 C 1363.34 933.874 1369.57 936.024 1375.84 938.072 C 1373.99 947.962 1373.53 958.377 1372.48 968.395 C 1370.92 982.297 1369.09 996.167 1367 1010 C 1359.94 1057.07 1347.26 1104.62 1332.47 1149.79 C 1329.44 1159.03 1327.18 1168.61 1323.52 1177.62 C 1320.85 1178.83 1319.05 1177.92 1316.24 1177.39 C 1310.12 1175.82 1302.67 1175.72 1296.31 1174.82 z"/>
<path transform="translate(0,0)" fill="rgb(254,229,167)" d="M 401.066 1092.68 C 454.689 1037.83 576.254 979.075 648.463 948.042 L 648.807 948.126 L 649.204 948.989 C 635.827 962.082 623.267 976.024 610.294 989.519 C 568.708 1032.78 528.056 1076.93 486.214 1119.95 L 453.537 1153.26 C 445.857 1161.17 438.283 1170.01 429.582 1176.75 C 426.28 1171.91 423.229 1166.85 420.08 1161.91 C 408.362 1141.73 401.406 1115.97 401.066 1092.68 z"/>
<path transform="translate(0,0)" fill="rgb(183,213,220)" d="M 1331.35 1180.19 C 1355.88 1104.2 1376.74 1027.54 1381.58 947.417 C 1391.86 955.354 1400.97 966.743 1409.97 976.237 C 1435.07 1002.71 1459.04 1030.17 1483.87 1056.89 C 1524.21 1100.27 1567.32 1140.89 1609.57 1182.38 C 1586.92 1222.29 1525.47 1262.28 1485.67 1284.37 C 1461.94 1297.46 1437.04 1308.33 1413.27 1321.44 C 1424.47 1292.72 1447.22 1265.25 1452.65 1234.9 C 1454 1227.36 1453.76 1218.51 1449.12 1212.06 C 1445.34 1206.81 1439.34 1203.18 1433.45 1200.73 C 1410.11 1190.98 1357.91 1184.18 1331.35 1180.19 z"/>
<path transform="translate(0,0)" fill="rgb(183,213,220)" d="M 1615.67 1174.58 C 1588.61 1146.36 1559.47 1120.19 1531.91 1092.46 C 1502.33 1062.7 1474.56 1031.51 1446.35 1000.48 C 1430.58 983.149 1413.31 966.266 1399.02 947.71 C 1423.97 956.211 1448.57 969.917 1471.94 982.003 C 1527.56 1010.76 1599.62 1047.27 1643.59 1092.06 C 1641.92 1114.94 1635.93 1136.08 1625.76 1156.59 C 1622.8 1162.88 1619.35 1168.68 1615.67 1174.58 z"/>
<path transform="translate(0,0)" fill="rgb(254,229,167)" d="M 435.973 1183.94 C 460.515 1154.36 490.205 1128.35 516.732 1100.5 C 564.622 1050.24 611.021 998.324 659.543 948.707 C 662.066 951.093 674.706 1031.5 676.956 1042.08 C 687.284 1090.64 699.754 1139.62 723.248 1183.59 C 698.519 1185.1 620.065 1197.02 602.586 1208.4 C 598.56 1211.02 595.467 1214.55 594.613 1219.39 C 590.796 1240.99 631.109 1303.86 643.871 1322.82 C 622.213 1311.68 600.092 1301.61 578.2 1290.95 C 529.016 1266.98 467.341 1229.28 435.973 1183.94 z"/>
<path transform="translate(0,0)" fill="rgb(254,229,167)" d="M 639.27 1347.38 C 637.871 1347.96 636.005 1348.79 634.497 1348.88 C 626.355 1349.36 612.553 1342.52 604.764 1339.5 C 557.772 1321.29 510.578 1300.73 470.376 1269.84 C 434.689 1242.42 381.419 1196.42 375.713 1149.52 C 373.397 1130.49 380.218 1114.59 391.821 1099.95 C 392.668 1101.2 392.492 1100.62 392.644 1102.15 C 393.587 1111.62 395.171 1121.53 397.788 1130.7 C 423.595 1221.08 522.403 1273.88 600.635 1312.08 C 619.662 1321.37 639.886 1329.03 658.376 1339.28 L 659.816 1340.09 C 652.514 1341.66 646.03 1344.27 639.27 1347.38 z"/>
<path transform="translate(0,0)" fill="rgb(183,213,220)" d="M 1423.35 1348.79 L 1420.02 1350.19 C 1416.73 1349.41 1412.22 1348.45 1409.91 1345.75 C 1408.33 1343.9 1407.51 1342.1 1408 1339.63 C 1408.77 1335.77 1412.41 1332.95 1415.62 1331.1 C 1435.35 1319.74 1457.26 1310.69 1477.64 1300.4 C 1504.94 1286.5 1530.88 1270.08 1555.12 1251.35 C 1608.12 1210.89 1643.28 1170.77 1652.43 1102.56 C 1657.57 1106.14 1662.36 1115.27 1664.94 1120.96 C 1672.1 1136.74 1674.38 1153.28 1668.06 1169.88 C 1661.14 1188.03 1648.29 1205.34 1635.53 1219.8 C 1576.88 1286.27 1501.22 1313.46 1423.35 1348.79 z"/>
<path transform="translate(0,0)" fill="rgb(177,209,218)" d="M 960.362 1176.42 C 961.045 1176.16 961.729 1175.9 962.422 1175.66 L 963.479 1175.31 C 999.751 1163 1158.12 1173.74 1202.5 1177.76 C 1229.9 1180.24 1257.16 1184.42 1284.64 1185.88 L 1272.78 1211.33 C 1238.72 1207.31 1204.7 1202.84 1170.49 1200.26 C 1132.54 1197.4 1093.83 1196.71 1055.76 1196.91 C 1044.41 1196.97 1029.37 1195.2 1018.69 1198.33 L 1016.88 1199.98 C 1016.95 1201.98 1017.05 1202.26 1018.15 1203.93 C 1020.57 1203.84 1019.28 1204.21 1021.14 1202.97 C 1026.78 1199.19 1047.35 1201.89 1054.47 1201.99 C 1126.35 1202.99 1198.94 1205.3 1270.11 1216.37 C 1233.98 1284.21 1165.41 1352.95 1161.62 1432.36 C 1159.59 1437.32 1160.29 1447.41 1159.94 1453.03 C 1127.27 1455.8 1094.54 1453.89 1061.77 1457.04 C 1044.5 1458.7 1004.01 1467.23 989.321 1464.01 C 981.758 1450.27 962.055 1207.69 960.362 1176.42 z"/>
<path transform="translate(0,0)" fill="rgb(177,209,218)" d="M 782.764 1189.49 C 805.019 1184.82 929.906 1174.14 948.323 1177.62 L 949.43 1179.43 C 948.366 1185.39 948.74 1191.02 949.098 1197.03 C 898.567 1196.77 846.655 1202.02 796.512 1208.36 C 793.842 1201.32 787.604 1195.2 782.764 1189.49 z"/>
<path transform="translate(0,0)" fill="rgb(58,58,53)" d="M 949.43 1179.43 C 951.109 1182.37 951.267 1191.4 950.115 1194.61 C 949.446 1196.48 948.587 1197.5 947.215 1198.87 C 942.677 1200.6 937.578 1198.29 932.728 1199.56 L 932.271 1200.79 C 936.883 1204.21 942.088 1198.4 946.32 1203.14 C 935.241 1205.32 917.165 1204.19 905.087 1204.63 C 880.644 1205.52 856.304 1207.92 831.982 1210.47 C 821.47 1211.57 810.074 1212.03 799.805 1214.36 C 797.894 1212.31 797.353 1210.94 796.512 1208.36 C 846.655 1202.02 898.567 1196.77 949.098 1197.03 C 948.74 1191.02 948.366 1185.39 949.43 1179.43 z"/>
<path transform="translate(0,0)" fill="rgb(58,58,53)" d="M 1284.64 1185.88 C 1286.02 1186.19 1287.47 1186.41 1288.77 1186.96 C 1284.84 1195.23 1281.14 1203.75 1276.82 1211.81 C 1298.32 1215.98 1402.97 1227.74 1413.99 1241.5 C 1416.63 1244.78 1415.71 1249.25 1414.77 1252.97 C 1414.45 1254.2 1414.1 1255.42 1413.73 1256.64 C 1412.47 1254.87 1411.98 1254.63 1410.11 1253.67 C 1410.87 1250.49 1411.35 1248.27 1410.67 1245.04 C 1406.96 1239.25 1393.73 1237.84 1387.21 1236.41 C 1367.81 1232.08 1348.29 1228.34 1328.67 1225.19 C 1310.95 1222.44 1292.62 1220.67 1275.23 1216.36 C 1264.44 1234.54 1253.65 1252.37 1241.9 1269.96 C 1216.65 1307.77 1188.49 1344.86 1174.22 1388.52 C 1168.31 1406.6 1168.29 1422.93 1163.98 1440.16 L 1161.81 1438.31 L 1161.62 1432.36 C 1165.41 1352.95 1233.98 1284.21 1270.11 1216.37 C 1198.94 1205.3 1126.35 1202.99 1054.47 1201.99 C 1047.35 1201.89 1026.78 1199.19 1021.14 1202.97 C 1019.28 1204.21 1020.57 1203.84 1018.15 1203.93 C 1017.05 1202.26 1016.95 1201.98 1016.88 1199.98 L 1018.69 1198.33 C 1029.37 1195.2 1044.41 1196.97 1055.76 1196.91 C 1093.83 1196.71 1132.54 1197.4 1170.49 1200.26 C 1204.7 1202.84 1238.72 1207.31 1272.78 1211.33 L 1284.64 1185.88 z"/>
<path transform="translate(0,0)" fill="rgb(183,213,220)" d="M 1288.77 1186.96 C 1310 1188.3 1426.96 1206.73 1437.85 1218.44 C 1440.98 1221.82 1441.61 1226.91 1441.2 1231.31 C 1438.24 1263.01 1401.74 1302.29 1394.34 1340.15 C 1391.93 1352.48 1392.71 1365.53 1392.82 1378.03 C 1392.89 1386.17 1391.32 1399.36 1395.65 1406.19 C 1394.78 1408.47 1394.12 1408.45 1391.91 1409.4 C 1384.32 1412.67 1375.89 1414.33 1368.14 1417.36 C 1354 1422.87 1340.21 1428.7 1325.66 1433.18 C 1270.51 1450.16 1220.12 1451.41 1163.22 1453.11 C 1163.54 1448.82 1164.07 1444.46 1163.98 1440.16 C 1168.29 1422.93 1168.31 1406.6 1174.22 1388.52 C 1188.49 1344.86 1216.65 1307.77 1241.9 1269.96 C 1253.65 1252.37 1264.44 1234.54 1275.23 1216.36 C 1292.62 1220.67 1310.95 1222.44 1328.67 1225.19 C 1348.29 1228.34 1367.81 1232.08 1387.21 1236.41 C 1393.73 1237.84 1406.96 1239.25 1410.67 1245.04 C 1411.35 1248.27 1410.87 1250.49 1410.11 1253.67 C 1405.62 1266.1 1400.38 1277.98 1394.75 1289.93 C 1385.02 1310.57 1366.11 1341.62 1376.21 1365.17 C 1377.29 1367.67 1378.5 1370.23 1380.95 1371.59 L 1381.94 1370.86 C 1381.21 1362.08 1377.6 1354.02 1378.01 1345.07 C 1378.84 1327.05 1405.51 1278.18 1413.73 1256.64 C 1414.1 1255.42 1414.45 1254.2 1414.77 1252.97 C 1415.71 1249.25 1416.63 1244.78 1413.99 1241.5 C 1402.97 1227.74 1298.32 1215.98 1276.82 1211.81 C 1281.14 1203.75 1284.84 1195.23 1288.77 1186.96 z"/>
<path transform="translate(0,0)" fill="rgb(177,209,218)" d="M 741.421 1193.78 C 752.183 1192.85 762.824 1190.29 773.619 1189.58 C 777.679 1189.31 778.684 1188.94 781.763 1191.58 C 785.063 1197.46 789.517 1202.59 792.615 1208.56 C 780.032 1210.96 767.023 1211.82 754.277 1213.11 C 750.363 1206.33 746.086 1200.07 741.421 1193.78 z"/>
<path transform="translate(0,0)" fill="url(#Gradient1)" d="M 781.763 1191.58 L 782.764 1189.49 C 787.604 1195.2 793.842 1201.32 796.512 1208.36 C 797.353 1210.94 797.894 1212.31 799.805 1214.36 C 803.292 1222.17 806.691 1230.07 808.896 1238.36 L 805.561 1242.07 C 803.369 1232.67 799.544 1223.65 795.918 1214.73 L 756.008 1218.53 C 707.63 1225.08 659.48 1233.99 610.99 1239.46 C 611.244 1236.91 610.909 1234.69 612.645 1232.74 C 633.129 1234.04 656.196 1227.51 676.52 1224.2 C 702.398 1220.22 728.318 1216.52 754.277 1213.11 C 767.023 1211.82 780.032 1210.96 792.615 1208.56 C 789.517 1202.59 785.063 1197.46 781.763 1191.58 z"/>
<path transform="translate(0,0)" fill="rgb(254,229,167)" d="M 612.645 1232.74 C 609.052 1231.78 607.194 1230.99 605.499 1227.44 C 604.321 1224.98 604.645 1223.62 605.509 1221.17 C 617.571 1209.31 719.027 1197.7 741.421 1193.78 C 746.086 1200.07 750.363 1206.33 754.277 1213.11 C 728.318 1216.52 702.398 1220.22 676.52 1224.2 C 656.196 1227.51 633.129 1234.04 612.645 1232.74 z"/>
<path transform="translate(0,0)" fill="rgb(177,209,218)" d="M 946.32 1203.14 L 949.441 1203.61 C 952.5 1209.6 954.752 1269.65 955.846 1281.69 C 959.205 1318.64 963.432 1355.56 967.326 1392.46 C 969.812 1416.02 971.27 1440.14 975.534 1463.44 C 946.656 1458.88 917.877 1453.73 889.214 1447.97 C 870.529 1444.33 851.781 1440.02 832.89 1437.57 C 832.376 1424.33 832.006 1411.08 831.78 1397.83 C 843.915 1397.62 855.978 1397.93 867.161 1392.56 C 869.167 1391.78 869.398 1391.67 870.643 1389.93 C 870.711 1382 853.862 1355.72 849.245 1346.31 C 832.148 1311.44 820.148 1275.47 808.896 1238.36 C 806.691 1230.07 803.292 1222.17 799.805 1214.36 C 810.074 1212.03 821.47 1211.57 831.982 1210.47 C 856.304 1207.92 880.644 1205.52 905.087 1204.63 C 917.165 1204.19 935.241 1205.32 946.32 1203.14 z"/>
<path transform="translate(0,0)" fill="rgb(177,209,218)" d="M 756.008 1218.53 L 795.918 1214.73 C 799.544 1223.65 803.369 1232.67 805.561 1242.07 C 818.612 1281.4 830.844 1320.08 850.101 1356.95 C 853.486 1363.43 866.165 1381.98 864.877 1388.76 C 862.442 1390.18 860.476 1390.72 857.767 1391.36 C 846.85 1392.38 836.027 1393.15 825.057 1393.18 C 826.111 1350.21 777.483 1257.86 756.008 1218.53 z"/>
<path transform="translate(0,0)" fill="rgb(254,229,167)" d="M 610.99 1239.46 C 659.48 1233.99 707.63 1225.08 756.008 1218.53 C 777.483 1257.86 826.111 1350.21 825.057 1393.18 C 801.953 1393.06 778.178 1388.83 755.254 1386.16 C 733.039 1383.44 712.873 1382.5 690.504 1384.63 C 686.443 1385.02 678.878 1384.97 675.785 1387.88 C 675.552 1388.1 675.39 1388.38 675.192 1388.63 L 676.359 1390.61 C 680.883 1391.37 705.845 1388 714.65 1388 C 728.52 1387.99 741.897 1390.35 755.64 1391.17 C 780.443 1394.13 806.816 1398.69 831.78 1397.83 C 832.006 1411.08 832.376 1424.33 832.89 1437.57 C 812.004 1434.75 791.363 1430.67 770.614 1427.05 C 739.821 1421.68 708.115 1417.42 678.896 1405.84 C 666.104 1400.77 654.519 1393.78 643.411 1385.72 C 657.564 1376.09 665.482 1366.2 669.457 1349.34 C 672.039 1348.07 675.083 1346.84 677.438 1345.2 C 679.689 1343.63 680.003 1342.49 680.447 1339.89 C 677.593 1333.84 665.138 1330.05 659.026 1327.33 C 647.302 1308.75 614.565 1257.71 610.99 1239.46 z"/>
<path transform="translate(0,0)" fill="rgb(51,51,47)" d="M 805.561 1242.07 L 808.896 1238.36 C 820.148 1275.47 832.148 1311.44 849.245 1346.31 C 853.862 1355.72 870.711 1382 870.643 1389.93 C 869.398 1391.67 869.167 1391.78 867.161 1392.56 L 857.767 1391.36 C 860.476 1390.72 862.442 1390.18 864.877 1388.76 C 866.165 1381.98 853.486 1363.43 850.101 1356.95 C 830.844 1320.08 818.612 1281.4 805.561 1242.07 z"/>
<path transform="translate(0,0)" fill="rgb(51,51,47)" d="M 1413.73 1256.64 C 1405.51 1278.18 1378.84 1327.05 1378.01 1345.07 C 1377.6 1354.02 1381.21 1362.08 1381.94 1370.86 L 1380.95 1371.59 C 1378.5 1370.23 1377.29 1367.67 1376.21 1365.17 C 1366.11 1341.62 1385.02 1310.57 1394.75 1289.93 C 1400.38 1277.98 1405.62 1266.1 1410.11 1253.67 C 1411.98 1254.63 1412.47 1254.87 1413.73 1256.64 z"/>
<path transform="translate(0,0)" fill="rgb(254,229,167)" d="M 602.019 1398.23 L 601.115 1397 C 602.502 1394.75 604.63 1393.34 606.636 1391.68 C 618.122 1382.17 625.733 1370.81 635.236 1359.61 L 664.687 1351.52 C 660.889 1360.35 652.266 1377.2 642.405 1380.76 C 641.662 1381.03 641.115 1381.1 640.33 1381.27 C 637.951 1381.79 635.58 1382.28 633.186 1382.73 C 632.665 1386.35 634.475 1389.72 636.659 1392.54 C 650.358 1410.23 686.002 1422.03 706.98 1427.25 C 716.286 1429.57 727.152 1430.82 735.786 1434.93 C 746.519 1440.04 755.906 1448.23 766.251 1454.15 C 791.171 1468.23 816.943 1480.75 843.418 1491.63 C 850.363 1518.85 857.732 1546.3 869.225 1572.02 L 868.774 1573.54 C 853.793 1569.87 838.903 1564.57 824.243 1559.76 C 750.969 1535.72 603.623 1477.91 553.622 1420.91 C 562.445 1416.96 571.639 1413.97 580.244 1409.48 C 586.514 1406.21 591.959 1401.92 598.012 1398.34 L 599.567 1399.21 C 602.756 1404.58 607.729 1408.97 612.528 1412.91 C 625.403 1423.47 678.289 1459.27 693.129 1457.12 C 695.167 1456.83 694.434 1457.21 695.615 1455.54 C 691.924 1451.7 666.882 1441.31 659.219 1437.07 C 638.816 1425.79 620.806 1411.89 602.019 1398.23 z"/>
<path transform="translate(0,0)" fill="rgb(183,213,220)" d="M 1408.11 1404.64 C 1406.14 1395.62 1405.17 1386.19 1404.75 1376.98 C 1404.48 1371.05 1403.51 1362.47 1407.63 1357.97 C 1417 1360.52 1429.35 1369.52 1435.95 1376.72 C 1438.56 1379.56 1441.71 1384.11 1441.03 1388.2 C 1440.34 1392.38 1436.13 1394.39 1432.88 1396.38 C 1424.9 1400.03 1416.52 1402.25 1408.11 1404.64 z"/>
<path transform="translate(0,0)" fill="rgb(58,58,53)" d="M 755.64 1391.17 C 741.897 1390.35 728.52 1387.99 714.65 1388 C 705.845 1388 680.883 1391.37 676.359 1390.61 L 675.192 1388.63 C 675.39 1388.38 675.552 1388.1 675.785 1387.88 C 678.878 1384.97 686.443 1385.02 690.504 1384.63 C 712.873 1382.5 733.039 1383.44 755.254 1386.16 L 755.64 1391.17 z"/>
<path transform="translate(0,0)" fill="url(#Gradient2)" d="M 755.254 1386.16 C 778.178 1388.83 801.953 1393.06 825.057 1393.18 C 836.027 1393.15 846.85 1392.38 857.767 1391.36 L 867.161 1392.56 C 855.978 1397.93 843.915 1397.62 831.78 1397.83 C 806.816 1398.69 780.443 1394.13 755.64 1391.17 L 755.254 1386.16 z"/>
<path transform="translate(0,0)" fill="rgb(58,58,53)" d="M 599.567 1399.21 L 602.019 1398.23 C 620.806 1411.89 638.816 1425.79 659.219 1437.07 C 666.882 1441.31 691.924 1451.7 695.615 1455.54 C 694.434 1457.21 695.167 1456.83 693.129 1457.12 C 678.289 1459.27 625.403 1423.47 612.528 1412.91 C 607.729 1408.97 602.756 1404.58 599.567 1399.21 z"/>
<path transform="translate(0,0)" fill="rgb(183,213,220)" d="M 1397.9 1422.31 C 1412.17 1411.22 1429.74 1413.9 1446.38 1400.29 C 1465.31 1406.05 1482.36 1417.12 1499.9 1426.07 C 1499.67 1426.24 1499.44 1426.41 1499.21 1426.6 C 1493.17 1431.44 1488.39 1438.45 1483.3 1444.31 C 1475.43 1453.37 1466.71 1462.25 1457.36 1469.8 C 1435.47 1487.48 1411.03 1501.94 1386.89 1516.27 C 1357.1 1534.02 1326.95 1551.13 1296.43 1567.59 C 1261.12 1585.99 1224.03 1600.77 1185.73 1611.69 C 1180.03 1601.43 1171.56 1591.84 1164.74 1582.23 C 1156.19 1570.19 1148.6 1557.54 1141.2 1544.76 C 1132.64 1529.98 1129.05 1513.79 1121.24 1499.01 C 1121.08 1498.72 1120.92 1498.44 1120.77 1498.15 C 1134.4 1487.01 1148.32 1476.94 1161.47 1465.09 C 1210.11 1464.3 1260.29 1462.8 1307.56 1450.21 C 1320.83 1446.63 1333.99 1442.6 1346.99 1438.13 C 1359.58 1433.71 1375.44 1425.21 1388.68 1424.36 C 1364.99 1450.95 1333.06 1466.06 1300.59 1479.02 C 1289.95 1483.26 1278.64 1487.01 1268.56 1492.43 C 1268.18 1492.63 1267.82 1492.84 1267.44 1493.04 C 1302.3 1486.9 1342.38 1468.28 1370.51 1447.29 C 1380.47 1439.86 1389.22 1431.15 1397.9 1422.31 z"/>
<path transform="translate(0,0)" fill="rgb(51,51,47)" d="M 1388.68 1424.36 C 1389.45 1423.78 1390.62 1422.85 1391.42 1422.4 C 1394.31 1420.81 1394.93 1421.33 1397.9 1422.31 C 1389.22 1431.15 1380.47 1439.86 1370.51 1447.29 C 1342.38 1468.28 1302.3 1486.9 1267.44 1493.04 C 1267.82 1492.84 1268.18 1492.63 1268.56 1492.43 C 1278.64 1487.01 1289.95 1483.26 1300.59 1479.02 C 1333.06 1466.06 1364.99 1450.95 1388.68 1424.36 z"/>
<path transform="translate(0,0)" fill="rgb(254,229,167)" d="M 547.185 1423.01 C 606.057 1482.73 719.323 1530.04 797.779 1557.07 C 823.733 1566.01 850.558 1572.7 876.275 1582.23 C 881.678 1595.11 885.321 1608.61 888.724 1622.14 C 850.797 1639.71 813.326 1655.46 773.994 1669.6 C 769.255 1671.31 760.06 1676.01 755.081 1675.58 C 753.361 1675.43 751.047 1674.3 749.402 1673.7 C 747.44 1674.74 746.918 1675.38 745.95 1677.37 C 746.649 1689.33 773.007 1728.26 780.637 1740.32 C 750.98 1750.78 720.645 1759.21 689.841 1765.55 C 679.298 1767.64 655.847 1767.08 647.704 1772.28 C 639.314 1765.34 631.847 1755.66 624.549 1747.51 C 593.821 1713.19 567.186 1678.74 547.189 1636.97 C 526.293 1593.32 497.768 1500.33 514.586 1453.77 C 520.682 1436.89 531.827 1430.22 547.185 1423.01 z"/>
<path transform="translate(0,0)" fill="rgb(51,51,47)" d="M 1296.43 1567.59 C 1326.95 1551.13 1357.1 1534.02 1386.89 1516.27 C 1411.03 1501.94 1435.47 1487.48 1457.36 1469.8 C 1466.71 1462.25 1475.43 1453.37 1483.3 1444.31 C 1488.39 1438.45 1493.17 1431.44 1499.21 1426.6 C 1499.44 1426.41 1499.67 1426.24 1499.9 1426.07 L 1503.56 1428.76 C 1494.4 1438.32 1486.11 1448.63 1476.73 1457.98 C 1463.65 1471 1448.87 1481.92 1433.63 1492.25 C 1417.73 1503.03 1399.98 1512.1 1384.81 1523.7 C 1365.26 1538.65 1348.9 1557.39 1328.26 1571.33 C 1252.3 1630.19 1175.43 1657.09 1085.33 1685.69 C 1056.66 1694.79 1026.61 1702.44 998.882 1714.09 L 994.446 1715.81 L 991.971 1712.42 L 1004.49 1706.41 C 1049.99 1691.19 1095.98 1677.12 1141.61 1662.19 C 1166.7 1653.98 1192.18 1646.69 1216.28 1635.75 C 1255.42 1617.98 1290.45 1595.16 1324.96 1569.82 C 1340.06 1557.81 1357.13 1545.97 1370.13 1531.72 C 1352.07 1542.36 1320.96 1562.28 1302.9 1569.66 L 1301.47 1569.3 L 1301.28 1568.55 C 1310.11 1565.28 1316.86 1558.77 1325.4 1555.23 C 1325.73 1555.09 1326.07 1554.97 1326.4 1554.83 L 1328.11 1554.11 C 1328.46 1553.97 1328.81 1553.83 1329.16 1553.7 L 1328.99 1552.77 C 1319.7 1554.38 1310.77 1563.28 1302 1566.93 C 1299.48 1567.98 1299.03 1568.6 1296.43 1567.59 z"/>
<path transform="translate(0,0)" fill="rgb(183,213,220)" d="M 1503.56 1428.76 C 1515.54 1436.37 1534.91 1443.34 1538.51 1458.48 C 1539.03 1460.67 1539.42 1462.92 1539.84 1465.13 C 1526.35 1474.58 1516.71 1489.27 1502.45 1497.72 C 1504.29 1489.75 1505.01 1482.88 1504.19 1474.71 L 1503.23 1474.65 C 1499.68 1483.99 1498.82 1495.08 1497.16 1504.96 C 1468.3 1528.59 1439.81 1552.81 1409.66 1574.82 C 1338.56 1626.75 1148.91 1751.58 1062.86 1743.38 C 1040.36 1741.23 1014.02 1731.63 998.882 1714.09 C 1026.61 1702.44 1056.66 1694.79 1085.33 1685.69 C 1175.43 1657.09 1252.3 1630.19 1328.26 1571.33 C 1348.9 1557.39 1365.26 1538.65 1384.81 1523.7 C 1399.98 1512.1 1417.73 1503.03 1433.63 1492.25 C 1448.87 1481.92 1463.65 1471 1476.73 1457.98 C 1486.11 1448.63 1494.4 1438.32 1503.56 1428.76 z"/>
<path transform="translate(0,0)" fill="rgb(254,229,167)" d="M 762.057 1438.23 C 785.469 1443.18 809.239 1446.48 832.725 1451.16 C 833.835 1457.46 836.296 1470.57 832.783 1475.97 C 808.51 1466.11 783.465 1453.33 762.057 1438.23 z"/>
<path transform="translate(0,0)" fill="rgb(177,209,218)" d="M 832.725 1451.16 C 862.724 1455.82 892.633 1461.04 922.435 1466.83 C 940.333 1470.12 958.805 1474.58 977.033 1475.13 C 980.375 1486.1 981.733 1497.66 983.913 1508.91 C 987.608 1527.97 991.627 1547.11 994.021 1566.39 C 978.758 1575.31 962.744 1583.62 946.818 1591.31 C 920.03 1586.89 894.602 1582.13 868.774 1573.54 L 869.225 1572.02 C 857.732 1546.3 850.363 1518.85 843.418 1491.63 C 860.263 1497.95 876.867 1504.38 894.362 1508.7 C 896.327 1507.91 896.286 1508.34 897.285 1506.26 C 892.7 1498.73 844.061 1481.57 832.783 1475.97 C 836.296 1470.57 833.835 1457.46 832.725 1451.16 z"/>
<path transform="translate(0,0)" fill="rgb(177,209,218)" d="M 990.444 1477.14 C 1023.09 1475.15 1055.33 1468.38 1088.11 1466.49 C 1107 1466.41 1125.84 1465.79 1144.74 1465.9 C 1129.25 1477.02 1114.44 1489.23 1099.12 1500.62 C 1077.25 1517.18 1054.33 1532.29 1030.49 1545.86 C 1022.22 1550.91 1013.51 1555.73 1004.53 1559.38 C 1001.5 1531.6 994.127 1504.74 990.444 1477.14 z"/>
<path transform="translate(0,0)" fill="rgb(51,51,47)" d="M 1497.16 1504.96 C 1498.82 1495.08 1499.68 1483.99 1503.23 1474.65 L 1504.19 1474.71 C 1505.01 1482.88 1504.29 1489.75 1502.45 1497.72 C 1502.34 1498.08 1502.22 1498.44 1502.11 1498.8 C 1497.9 1512.72 1496.91 1527.44 1492.69 1541.48 C 1488.05 1556.87 1481.29 1571.96 1475.42 1586.93 C 1463.94 1616.15 1452.84 1649.78 1434.83 1675.78 C 1431.36 1680.8 1427.28 1685.4 1421.77 1688.21 C 1414.68 1691.83 1408.01 1691.34 1400.65 1688.97 C 1394.1 1685.64 1388.71 1680.27 1382.54 1676.3 C 1378.73 1673.85 1372.64 1672.31 1369.87 1668.8 L 1371 1667.69 C 1382.98 1666.27 1392.77 1680.04 1402.91 1685.14 C 1403.19 1685.28 1403.48 1685.41 1403.77 1685.55 C 1404.88 1685.78 1405.55 1685.96 1406.64 1686.06 C 1413.23 1686.7 1421.46 1683.84 1426.38 1679.45 C 1441.25 1666.15 1481.91 1562.9 1489.74 1538.54 C 1493.28 1527.53 1496.54 1516.55 1497.16 1504.96 z"/>
<path transform="translate(0,0)" fill="rgb(254,229,167)" d="M 428.215 1716.09 C 422.943 1706.92 419.169 1697.11 415.41 1687.26 C 402.167 1652.53 402.024 1624.78 411.631 1588.66 C 421.372 1552.04 441.518 1527.85 470.874 1504.81 C 479.182 1498.29 487.689 1491.4 496.768 1486 C 500.427 1508.68 500.731 1531.43 505.521 1554.06 C 522.832 1635.84 570.742 1715.97 632.982 1771.51 C 625.618 1772.45 617.164 1771.56 609.698 1771.24 C 568.927 1769.46 530.303 1761.88 492.185 1747.02 C 477.675 1741.36 462.65 1734.42 449.1 1726.81 C 445.462 1724.77 433.864 1716.27 430.571 1715.74 C 429.787 1715.61 429.001 1715.97 428.215 1716.09 z"/>
<path transform="translate(0,0)" fill="rgb(177,209,218)" d="M 894.755 1631.39 C 927.3 1615.14 959.509 1598.21 991.361 1580.64 C 1017.78 1566.34 1044.31 1552.38 1069.45 1535.85 C 1087.2 1524.18 1103.96 1511.12 1120.77 1498.15 C 1120.92 1498.44 1121.08 1498.72 1121.24 1499.01 C 1129.05 1513.79 1132.64 1529.98 1141.2 1544.76 C 1148.6 1557.54 1156.19 1570.19 1164.74 1582.23 C 1171.56 1591.84 1180.03 1601.43 1185.73 1611.69 L 1063.68 1645.1 C 1051.88 1648.25 1040.2 1653.16 1028.3 1655.61 L 1028.71 1653.78 C 1018.52 1650.2 970.749 1665.65 958.456 1668.96 C 952.79 1668.11 947.071 1668.32 941.377 1667.28 C 918.536 1663.14 907.334 1649.34 894.755 1631.39 z"/>
<path transform="translate(0,0)" fill="rgb(183,213,220)" d="M 1302.9 1569.66 C 1320.96 1562.28 1352.07 1542.36 1370.13 1531.72 C 1357.13 1545.97 1340.06 1557.81 1324.96 1569.82 C 1290.45 1595.16 1255.42 1617.98 1216.28 1635.75 C 1192.18 1646.69 1166.7 1653.98 1141.61 1662.19 C 1095.98 1677.12 1049.99 1691.19 1004.49 1706.41 C 999.856 1695.75 988.083 1688.14 978.758 1681.91 C 1004.86 1674.03 1030.21 1663.52 1056.44 1655.79 C 1096.97 1643.84 1137.75 1632.96 1178.22 1620.67 C 1217.85 1608.63 1268.38 1593.2 1302.9 1569.66 z"/>
<path transform="translate(0,0)" fill="rgb(58,58,53)" d="M 1185.73 1611.69 C 1224.03 1600.77 1261.12 1585.99 1296.43 1567.59 C 1299.03 1568.6 1299.48 1567.98 1302 1566.93 C 1310.77 1563.28 1319.7 1554.38 1328.99 1552.77 L 1329.16 1553.7 C 1328.81 1553.83 1328.46 1553.97 1328.11 1554.11 L 1326.4 1554.83 C 1326.07 1554.97 1325.73 1555.09 1325.4 1555.23 C 1316.86 1558.77 1310.11 1565.28 1301.28 1568.55 L 1301.47 1569.3 L 1302.9 1569.66 C 1268.38 1593.2 1217.85 1608.63 1178.22 1620.67 C 1137.75 1632.96 1096.97 1643.84 1056.44 1655.79 C 1030.21 1663.52 1004.86 1674.03 978.758 1681.91 C 952.53 1691.34 927.018 1701.71 906.507 1721.11 C 910.738 1755.3 935.196 1784.07 947.265 1815.17 C 948.519 1818.4 949.191 1818.9 947.8 1822.04 C 946.114 1822.75 946.321 1823.15 944.978 1822.49 C 936.978 1818.58 908.406 1758.67 903.987 1747.32 C 900.364 1738.02 895.86 1724.91 900.36 1715.35 C 912.745 1689.03 999.288 1665.3 1028.3 1655.61 C 1040.2 1653.16 1051.88 1648.25 1063.68 1645.1 L 1185.73 1611.69 z"/>
<path transform="translate(0,0)" fill="rgb(177,209,218)" d="M 876.275 1582.23 C 897.457 1587.18 918.519 1592.08 940.09 1595.07 C 923.335 1604.78 906.199 1613.81 888.724 1622.14 C 885.321 1608.61 881.678 1595.11 876.275 1582.23 z"/>
<path transform="translate(0,0)" fill="rgb(254,229,167)" d="M 789.73 1734.83 C 780.551 1718.55 767.722 1702.59 760.542 1685.43 C 763.147 1680.87 777.894 1678.72 783.088 1677.18 C 821.935 1665.63 858.113 1648.45 894.755 1631.39 C 907.334 1649.34 918.536 1663.14 941.377 1667.28 C 947.071 1668.32 952.79 1668.11 958.456 1668.96 C 941.265 1675.95 922.753 1677.76 905.411 1683.79 C 880.751 1692.35 857.608 1706.24 833.748 1716.82 C 819.77 1723.01 802.633 1727.14 789.73 1734.83 z"/>
<path transform="translate(0,0)" fill="rgb(254,229,167)" d="M 399.996 1695.12 C 400.454 1683.63 400.955 1672.16 400.87 1660.66 C 404.613 1676.72 411.044 1691.8 417.85 1706.77 C 411.411 1703.8 405.714 1699.26 399.996 1695.12 z"/>
<path transform="translate(0,0)" fill="rgb(51,51,47)" d="M 1634.59 1668.47 L 1635.23 1670.3 C 1634.03 1673.1 1629.29 1681.4 1629.71 1683.79 C 1632 1681.13 1633.88 1673.72 1636.24 1672.33 L 1636.64 1673.75 C 1629.39 1696.22 1598.62 1733.47 1584.46 1755 C 1576.96 1766.39 1570.86 1778.66 1563.39 1790.04 C 1561.89 1792.33 1560.63 1794.18 1557.87 1794.72 L 1557.63 1794.18 C 1559.48 1776.34 1603.43 1720.08 1615.54 1701.58 C 1622.55 1690.88 1628.6 1679.76 1634.59 1668.47 z"/>
<path transform="translate(0,0)" fill="rgb(58,58,53)" d="M 941.716 1721.69 C 964.569 1709.9 975.174 1720.69 983.01 1716.46 C 985.947 1714.88 988.864 1713.63 991.971 1712.42 L 994.446 1715.81 C 990.188 1717.39 986.148 1719.67 982.102 1721.73 C 985.012 1726.19 987.635 1731.12 989.456 1736.14 C 992.759 1745.24 993.655 1754.92 989.155 1763.81 C 985.346 1771.34 978.015 1776.85 969.979 1779.17 C 962.366 1781.41 954.168 1780.43 947.299 1776.46 C 939.756 1772.2 933.796 1765.1 931.773 1756.58 C 928.578 1743.14 934.915 1732.6 941.716 1721.69 z M 961.515 1721.37 C 953.911 1722.38 948.306 1724.27 943.475 1730.56 C 939.16 1736.18 937.607 1743.6 938.682 1750.55 C 939.851 1758.1 943.887 1765.33 950.27 1769.69 C 954.124 1772.33 958.258 1773.06 962.787 1773.77 C 971.885 1770.5 979.032 1766.02 983.072 1756.84 C 986.137 1749.89 986.236 1741.99 983.345 1734.96 C 981.042 1729.51 976.332 1724.91 970.819 1722.73 C 967.896 1721.57 964.615 1721.52 961.515 1721.37 z"/>
<path transform="translate(0,0)" fill="rgb(253,252,246)" d="M 962.787 1773.77 C 958.258 1773.06 954.124 1772.33 950.27 1769.69 C 943.887 1765.33 939.851 1758.1 938.682 1750.55 C 937.607 1743.6 939.16 1736.18 943.475 1730.56 C 948.306 1724.27 953.911 1722.38 961.515 1721.37 C 964.615 1721.52 967.896 1721.57 970.819 1722.73 C 976.332 1724.91 981.042 1729.51 983.345 1734.96 C 986.236 1741.99 986.137 1749.89 983.072 1756.84 C 979.032 1766.02 971.885 1770.5 962.787 1773.77 z"/>
</svg>