<svg version="1.1" xmlns="http://www.w3.org/2000/svg" style="display: block;" viewBox="0 0 2048 2048" width="1024" height="1024">
<path transform="translate(0,0)" fill="rgb(254,254,254)" d="M 0 0 L 2048 0 L 2048 2048 L 0 2048 L 0 0 z M 1014.5 83.5213 C 960.624 87.6311 913.471 93.8226 869.167 127.84 C 857.899 136.491 847.542 146.796 837.285 156.607 C 816.586 176.408 796.883 196.387 778.18 218.133 C 755.764 244.197 732.219 270.592 711.861 298.272 C 667.852 358.11 631.212 422.936 596.497 488.464 C 585.893 508.482 574.816 528.313 564.662 548.559 C 538.893 600.629 515.111 653.658 493.367 707.532 C 486.424 724.809 481.276 742.673 474.661 760.057 C 452.668 817.853 428.14 843.617 433.345 910.273 C 438.16 971.945 479.372 1033.46 525.864 1072.55 C 547.575 1090.81 577.522 1112.57 602.763 1125.15 C 607.843 1137.15 608.478 1151.45 614.357 1162.65 C 618.615 1170.76 626.112 1176.73 631.008 1184.45 C 630.752 1184.78 630.499 1185.12 630.239 1185.44 C 619.601 1198.9 596.59 1204.96 598.825 1225.42 C 599.705 1233.47 604.017 1241.87 608.398 1248.54 C 585.998 1250.65 545.676 1269.13 530.841 1286.85 C 520.43 1299.28 516.505 1312.54 518.076 1328.73 C 519.584 1344.27 524.795 1357.41 529.051 1372.22 C 528.793 1372.53 528.54 1372.85 528.276 1373.15 C 520.054 1382.68 508.815 1389.58 499.681 1398.27 C 478.009 1418.89 459.035 1444.35 443.72 1470.01 C 417.708 1513.61 402.049 1562.17 385.885 1609.98 C 374.889 1642.5 361.663 1674.9 352.049 1707.82 C 344.84 1732.5 339.937 1757.66 334.464 1782.75 C 329.291 1806.46 323.238 1829.98 318.114 1853.72 C 312.433 1880.05 307.148 1905.76 304.472 1932.6 C 303.836 1938.98 302.661 1945.91 303.098 1952.31 C 303.213 1953.99 303.632 1955.36 304.237 1956.92 L 305.917 1957.91 C 308.405 1956.72 308.948 1954.14 309.824 1951.58 C 313.44 1940.99 314.306 1928.7 316.497 1917.71 C 321.299 1893.63 326.216 1869.38 331.704 1845.45 C 349.656 1765.67 372.093 1686.97 398.911 1609.72 C 415.337 1562.49 431.757 1516.1 458.556 1473.49 C 481.376 1437.21 514.566 1400.94 552.377 1380.4 C 570.41 1399.87 586.655 1426.7 596.394 1451.31 C 602.488 1466.71 607.813 1483.09 612.277 1499.02 C 621.824 1533.09 642.54 1624.02 661.518 1649.18 C 665.762 1654.81 671.888 1658 678.921 1658.36 C 695.755 1659.23 715.782 1645.58 729.537 1636.89 C 734.224 1633.93 739.387 1629.92 744.596 1628.09 C 746.292 1627.49 748.159 1627.14 749.557 1628.46 C 756.852 1635.34 761.18 1662.54 764.44 1672.65 C 705.98 1763.11 665.715 1864.09 645.898 1969.96 C 643.683 1981.9 636.567 1998.18 639.315 2009.96 C 640.368 2014.48 642.005 2017.8 645.995 2020.32 C 648.766 2020.47 650.049 2020.41 652.279 2018.6 C 657.446 2014.42 671.548 1973.75 675.931 1964.49 C 683.885 1947.69 721.729 1877.9 731.554 1869.08 C 738.405 1875.9 736.867 1902.82 749.786 1903.21 C 752.182 1903.29 752.925 1902.81 754.897 1901.64 C 758.444 1895.26 756.004 1887.72 754.131 1881.16 C 751.252 1871.08 748.913 1859.42 744.133 1850.17 C 769.499 1807.3 799.142 1771.84 832.88 1735.49 C 849.442 1717.64 866.266 1699.74 884.709 1683.79 C 882.135 1693.34 881.459 1704.09 881.64 1713.96 C 882.062 1737 895.918 1870.88 903.167 1883.97 C 904.158 1885.75 905.484 1886.7 907.214 1887.76 C 909.724 1888.22 911.656 1888.36 913.906 1886.87 C 916.778 1884.97 918.176 1880.88 918.423 1877.58 C 919.259 1866.44 916.053 1853.28 914.549 1842.13 C 910.028 1808.61 903.386 1775.13 901.868 1741.33 C 912.718 1741.9 923.438 1744.05 934.224 1745.31 C 969.644 1749.59 1004.92 1755.02 1039.98 1761.61 C 1058.23 1765.15 1076.11 1769.74 1094.46 1773.04 C 1090.34 1805.83 1080.83 1837.78 1076.41 1870.64 C 1075.41 1878.12 1073.64 1886.55 1074.24 1894.06 C 1074.55 1897.96 1076.24 1902.64 1078.61 1905.75 C 1079.7 1907.18 1080.68 1907.91 1082.37 1908.57 C 1084.82 1908.02 1085.79 1907.47 1087.17 1905.28 C 1094.61 1893.41 1096.12 1858.9 1099.09 1843.37 C 1103.01 1822.94 1135.03 1671.29 1144.35 1665.09 C 1155.65 1672.33 1203.61 1725.92 1214.47 1739.08 C 1219.48 1745.15 1223.97 1751.64 1228.63 1757.98 L 1228.23 1759.6 C 1224.5 1774.22 1217.88 1788.07 1213.18 1802.4 C 1203.99 1830.38 1183.32 1904.42 1185.39 1931.42 C 1185.7 1935.15 1186.86 1938.75 1188.81 1941.94 C 1189.99 1943.91 1191.15 1945.32 1193.41 1946.04 C 1196.23 1944.92 1197.26 1943.48 1198.4 1940.66 C 1202.5 1930.56 1202.89 1918.26 1204.76 1907.52 C 1206.9 1895.83 1209.47 1884.22 1212.45 1872.72 C 1217.8 1853.25 1223.82 1833.98 1230.51 1814.94 C 1234.99 1802.49 1240.23 1790.29 1244.18 1777.66 C 1250.73 1792.97 1262.8 1807.46 1271.94 1821.52 C 1291.92 1852.24 1312.36 1883.33 1330.24 1915.32 C 1335.49 1924.7 1345.86 1949.97 1354.52 1954.56 C 1357.69 1954.6 1358.21 1954.44 1360.97 1952.86 C 1363.81 1949.3 1363.07 1944.01 1362.58 1939.75 C 1359.61 1913.89 1353.34 1887.44 1347.36 1862.07 C 1332.89 1800.59 1315.14 1740.71 1290.47 1682.42 C 1283.37 1665.64 1273.42 1650.32 1266.27 1633.71 C 1278.15 1645.78 1290.34 1659.25 1308.66 1659.68 C 1320.78 1659.97 1330.92 1654.22 1339.29 1645.86 C 1350.5 1634.65 1359.34 1620.2 1367.71 1606.8 C 1380.84 1585.78 1391.95 1564.74 1401.78 1541.99 C 1423.75 1491.13 1431.3 1458.05 1468.85 1414.28 C 1476.19 1405.73 1483.58 1396.96 1492.04 1389.48 C 1517.94 1415.39 1542.47 1441.71 1562.52 1472.54 C 1607.39 1541.52 1632.02 1624.22 1654.64 1702.63 C 1663.9 1734.75 1673.88 1767.07 1681.23 1799.68 C 1689.49 1836.36 1696.87 1873.93 1702.89 1911.04 C 1705.49 1927.03 1706.35 1943.89 1709.51 1959.65 C 1710.16 1962.87 1710.96 1967.39 1713.94 1969.14 C 1717.92 1965.9 1719.01 1956.99 1719.49 1951.89 C 1722.49 1920.22 1712.23 1869.64 1705.94 1837.34 C 1700.39 1808.84 1696.02 1779.67 1688.99 1751.53 C 1680.75 1718.57 1668.99 1686.58 1658.19 1654.41 C 1629.26 1568.23 1599.56 1480.01 1538.8 1410.35 C 1538.02 1409.45 1537.23 1408.56 1536.43 1407.68 C 1548.53 1392.5 1556.62 1362.04 1554.26 1342.91 C 1552.43 1328.04 1544.97 1315.74 1533.1 1306.77 C 1522.69 1298.91 1510.28 1293 1499.02 1286.39 C 1474.21 1271.81 1449.23 1253.36 1430.55 1231.41 C 1436.68 1217.25 1443.59 1207.01 1447.36 1191.7 C 1442.53 1173.1 1431.69 1171.46 1417.96 1160.85 C 1421.85 1128.1 1446.09 1101.58 1471.11 1081.87 C 1493.73 1064.06 1519.25 1048.54 1543.09 1032.28 C 1563.02 1018.68 1584.97 1006.55 1598.09 985.561 C 1605.24 974.12 1608.44 959.77 1610.14 946.543 C 1613.73 918.717 1608.88 878.436 1601.34 851.204 C 1596.04 832.057 1586.39 813.469 1578.24 795.361 C 1565.47 767.002 1554.08 738.994 1537.49 712.55 C 1534.71 708.119 1537.63 704.359 1534.6 700.27 C 1532.21 699.175 1531.02 698.942 1528.4 699.213 C 1526.24 700.879 1525.73 701.262 1525.26 704.138 C 1523.67 713.859 1544.09 749.372 1549.42 760.532 C 1553.71 769.507 1556.66 778.764 1560.59 787.852 C 1579.76 832.243 1590.9 861.388 1598.15 909.891 C 1599.63 919.825 1601.68 931.408 1600.41 941.423 C 1598.27 958.351 1587.15 977.567 1574.79 989.017 C 1561.28 1001.53 1544.58 1010.98 1529.38 1021.31 C 1508.37 1035.59 1487.41 1050.43 1466.72 1065.19 C 1446.8 1079.41 1428.78 1096.64 1410.25 1112.55 C 1395.08 1125.58 1379.19 1137.83 1364.2 1151.05 C 1333.73 1177.93 1279.19 1232.33 1261.6 1268.8 C 1259.29 1273.58 1259.19 1283.79 1257.08 1290.15 C 1265.25 1283.07 1270.37 1271.46 1276.39 1262.52 C 1282.98 1252.72 1290.07 1242.98 1297.4 1233.72 C 1322.24 1202.35 1355.2 1172.25 1385.64 1146.36 C 1384.3 1153.14 1341.23 1195.14 1341.55 1200.66 L 1344.57 1202.62 C 1348.61 1200.53 1404.31 1133.84 1411.73 1124.59 C 1411.61 1124.92 1411.49 1125.25 1411.36 1125.57 C 1406.24 1138.63 1393.58 1151.82 1399.59 1166.74 C 1404.49 1178.9 1421.37 1185.52 1429.86 1195.72 C 1423.01 1206.65 1410.59 1220.82 1414.2 1234.59 C 1416.48 1243.28 1424.12 1250.3 1430.11 1256.62 C 1439.69 1266.73 1449.18 1276.67 1460.21 1285.23 C 1475.4 1297.02 1514.77 1320.09 1524.8 1331.92 C 1526.69 1334.15 1527.73 1337 1528.84 1339.66 L 1529.51 1341.21 C 1516.05 1346.69 1505.81 1356.86 1495.16 1366.48 C 1458.67 1399.45 1430.38 1434.84 1411.25 1480.45 C 1392.68 1524.74 1379.99 1568.21 1350.74 1607.38 C 1339.88 1621.94 1329.54 1633.79 1312.49 1641.08 C 1304.56 1640.1 1298.88 1638.27 1292.42 1633.22 C 1276.52 1620.8 1264.16 1601.58 1250.25 1586.81 C 1235.88 1571.57 1218.96 1560 1203.47 1546.15 C 1196.85 1540.22 1191.43 1533.07 1185.17 1526.78 C 1180.11 1521.69 1173.86 1517.33 1168.1 1513.02 C 1156.92 1504.65 1145.68 1497.33 1132.6 1492.27 C 1128.56 1490.71 1124.28 1489.05 1120.06 1488.08 C 1112.34 1486.32 1101.09 1487.52 1094.85 1482.27 C 1094.6 1478.83 1097.49 1475.93 1099.69 1473.39 C 1113.63 1457.26 1128.66 1442.13 1141.92 1425.4 C 1152.31 1412.29 1161.7 1397.44 1170.43 1383.19 C 1177.31 1371.96 1183.11 1360 1189.16 1348.31 C 1210.55 1306.93 1227.92 1264.88 1244.51 1221.42 C 1253.39 1198.17 1263.11 1175.06 1271.29 1151.57 C 1280.85 1124.13 1288.7 1095.62 1296.12 1067.52 C 1302.81 1042.18 1307.53 1015.81 1313.15 990.17 C 1320.26 957.794 1327.9 925.278 1331.63 892.298 C 1335.74 855.885 1335.84 807.352 1333.31 770.62 C 1332.94 765.158 1332.46 759.704 1331.88 754.261 C 1336.84 761.608 1350.91 776.465 1351.31 784.924 C 1349.92 787.667 1349.2 788.404 1350.34 791.486 C 1351.2 793.823 1352.3 794.429 1354.33 795.428 C 1359.93 798.192 1368.52 816.44 1370.66 822.602 L 1368.93 825.561 C 1371.46 833.689 1381.71 833.112 1378.71 841.526 C 1380.07 850.066 1391.92 858.727 1392 863.849 C 1392.03 865.127 1390.77 867.002 1390.13 868.11 C 1390.69 874.367 1400.33 883.183 1399.44 884.98 L 1396.82 886.484 L 1396.57 888.5 C 1398.99 891.298 1402.55 891.811 1406.11 892.477 C 1409.23 893.062 1411.34 895.572 1413.51 897.728 C 1408.01 901.02 1400.2 904.374 1397.68 910.615 C 1397.95 913.476 1398.19 914.848 1400.37 916.877 C 1412.4 928.088 1472.29 931.552 1488.89 929.759 C 1496.21 928.968 1517.91 927.56 1522.35 921.14 C 1523.21 919.899 1522.87 920.133 1522.45 918.481 C 1516.33 915.909 1502.47 920.688 1495.63 921.484 C 1474.68 923.923 1456.63 922.08 1435.95 919.023 C 1432.01 918.442 1423.22 918.254 1421.16 914.594 C 1422.37 912.38 1423.84 911.242 1426.26 910.563 C 1439.18 906.937 1506.18 906.362 1511.83 901.679 L 1510.92 900.193 C 1496.69 896.875 1455.85 904.893 1438.76 905.199 C 1432.3 905.896 1417.68 905.754 1413.23 910.438 L 1415.01 913.096 C 1413.64 914.058 1414.3 913.949 1412.41 913.544 C 1410.34 913.099 1409.4 912.476 1407.76 911.237 C 1408.55 908.493 1411.75 906.554 1414.18 905.15 C 1429.74 896.167 1466.65 893.673 1485.4 892.205 C 1493.21 891.593 1501.63 891.58 1509.29 889.945 C 1511.95 889.376 1515.17 888.759 1516.19 886.048 C 1501.46 880.112 1435.6 898.488 1420.83 893.266 C 1417.86 892.213 1414.48 888.687 1412.03 886.617 C 1428.29 884.271 1495.01 881.509 1503.09 877.601 L 1502.8 876.635 C 1485.29 872.361 1427.21 879.454 1407.03 882.006 C 1404.61 878.36 1402.07 874.79 1399.42 871.301 C 1403.18 869.197 1407.1 866.784 1411.26 865.607 C 1427.72 860.951 1453.07 861.373 1470.17 861.761 C 1473.76 861.842 1477.61 863.499 1480.93 863.436 C 1483.55 863.386 1483.99 863.074 1485.31 861.105 C 1484.3 859.015 1483.43 858.303 1481.18 857.536 C 1470.76 853.972 1415.95 859.104 1400.01 859.426 C 1398 857.115 1395.79 854.864 1394.21 852.23 C 1416.12 847.363 1438.41 845.326 1460.31 840.092 C 1454.37 838.773 1449.15 837.659 1443.02 838.235 C 1430.83 839.383 1403.71 842.815 1394 849.279 L 1391.84 849.21 C 1389.83 846.754 1387.97 844.303 1386.2 841.667 C 1390.39 839.243 1394.56 836.23 1398.98 834.276 C 1421.82 824.161 1455.37 820.169 1480.41 814.101 C 1486.44 819.371 1491.44 825.599 1496.6 831.703 C 1515.47 854.013 1527.42 876.15 1537.77 903.371 C 1533.41 917.499 1526.47 929.872 1513.03 937.294 C 1508.43 939.836 1498.14 942.563 1496.48 947.742 C 1497.71 949.327 1497.24 949.385 1498.98 949.667 C 1507.6 951.062 1530.56 941.542 1537.06 936.248 C 1544.74 930.001 1550.37 920.086 1550.94 910.114 C 1551.42 901.665 1548.46 892.986 1545.86 885.062 C 1532.58 844.65 1505.72 815.52 1477.28 785.022 C 1457.59 763.903 1435.55 747.937 1411.69 731.883 C 1351.77 691.571 1281.28 655.849 1210.42 639.733 C 1173.73 631.387 1134.15 629.362 1096.64 626.922 C 1083.51 626.067 1070.36 624.33 1057.21 623.955 C 1029.68 623.168 1000.68 623.61 973.367 626.733 C 953.844 628.965 934.599 633.238 915.042 635.091 C 885.962 637.847 856.277 636.738 827.596 642.934 C 791.915 650.641 757.581 665.352 723.845 678.954 C 662.95 703.506 599.18 726.469 550.535 772.442 C 518.951 802.293 475.567 861.072 474.403 905.883 C 473.32 947.571 492.648 988.878 521.134 1018.7 C 545.973 1044.69 590.356 1072.66 621.442 1092.59 C 642.447 1106.05 661.224 1117.31 679.202 1135 C 702.196 1157.62 721.09 1181.29 741.816 1205.77 C 761.856 1229.43 782.471 1252.52 801.387 1277.13 C 815.558 1295.56 825.8 1319.94 843.507 1335.2 C 835.557 1314.67 823.292 1295 810.506 1277.08 C 794.565 1254.74 775.649 1234.09 757.91 1213.15 C 728.934 1178.95 699.644 1142.37 665.145 1113.45 C 652.671 1103 638.508 1094.07 624.948 1085.09 C 611.125 1075.94 597.815 1066.26 584.3 1056.66 C 574.911 1050 565.009 1043.81 556.126 1036.47 C 531.958 1016.5 511.786 988.003 502.633 957.994 C 508.912 967.675 516.293 982.25 526.881 987.576 C 528.614 987.574 529.411 987.99 530.783 986.761 C 533.342 984.469 533.266 981.682 533.352 978.521 C 536.812 974.751 542.056 977.014 541.638 970.339 C 541.097 961.7 529.609 954.172 527.236 941.461 C 525.314 931.168 527.348 920.318 528.623 910.031 C 530.824 920.577 536.736 936.965 546.077 943.376 C 547.759 944.53 547.851 944.227 549.728 944.126 C 552.724 939.955 551.64 935.853 551.119 930.956 C 558.499 917.352 561.949 899.711 567.126 885.014 C 572.124 870.826 612.635 767.148 617.218 762.191 L 619.784 762.337 C 620.415 764.7 620.17 765.54 619.442 767.921 C 617.081 775.648 613.302 783.153 610.649 790.863 C 602.202 815.409 594.029 840.19 584.704 864.413 C 577.649 882.739 569.35 900.602 562.455 918.985 C 561.112 922.564 557.183 931.835 560.851 934.365 C 575.505 926.198 619.894 780.741 634.228 754.477 C 639.153 752.144 642.536 749.004 646.437 745.32 C 631.804 787.202 615.877 828.621 598.679 869.516 C 591.885 885.783 583.637 901.641 577.342 918.07 C 576.17 921.128 574.966 924.196 575.551 927.504 C 578.71 927.308 580.826 924.559 582.83 922.204 C 599.227 902.934 618.409 855.44 627.277 830.951 C 634.178 811.894 652.242 745.291 664.036 734.702 C 658.51 750.038 653.253 765.561 647.331 780.744 C 645.475 785.502 641.892 789.434 640.503 794.286 C 639.682 797.152 639.073 800.805 640.329 803.618 C 640.484 803.964 640.718 804.268 640.913 804.593 C 643.19 804.758 642.47 805.138 644.039 803.84 C 653.218 796.248 668.712 741.375 681.263 725.887 C 675.793 742.833 654.358 786.129 655.931 801.178 L 657.207 802.197 C 669.043 794.346 685.928 731.777 693.308 728.286 C 691.534 738.548 689.096 748.797 687.805 759.122 C 686.72 767.798 687.005 776.374 686.48 785.067 C 685.328 804.166 683.868 822.339 684.849 841.542 C 685.984 863.733 690.217 886.011 693.911 907.901 C 704.356 969.81 718.8 1030.44 735.349 1090.95 C 742.232 1116.11 747.702 1141.53 759.081 1165.19 C 773.569 1195.33 793.579 1222.59 812.155 1250.23 C 830.462 1277.47 848.139 1305.71 865.248 1333.72 C 892.847 1378.91 912.847 1428.7 935.542 1476.39 C 930.467 1478.14 922.988 1481.44 917.755 1479.78 C 917.206 1477.79 918.453 1473.56 916.532 1467.71 C 911.631 1452.79 881.335 1385.79 870.05 1378.97 C 867.922 1377.69 867.154 1378 864.876 1378.43 C 863.979 1384.75 872.767 1394.13 876.004 1399.92 C 890.961 1426.71 905.777 1454.24 915.855 1483.27 C 908.947 1487.82 902.179 1492.36 896.092 1497.99 C 888.449 1505.07 881.414 1513.18 873.065 1519.42 C 862.698 1527.17 850.736 1532.64 839.437 1538.88 C 830.914 1543.59 822.723 1548.91 814.61 1554.29 C 805.693 1560.2 796.711 1566.18 788.225 1572.69 C 775.635 1582.36 763.952 1593.15 751.277 1602.71 C 740.207 1611.07 695.005 1642.02 681.899 1639.1 C 675.597 1637.7 670.888 1629.51 668.287 1624.27 C 656.364 1600.22 649.433 1570.13 642.052 1544.36 C 638.297 1531.24 633.814 1518.35 629.82 1505.31 C 622.045 1479.92 614.425 1453.44 602.952 1429.45 C 595.221 1413.29 585.146 1398.06 575.522 1382.96 C 572.329 1377.95 569.025 1373.01 565.004 1368.62 C 554.979 1357.67 536.874 1345 534.822 1329.46 C 533.882 1322.35 535.898 1314.41 537.235 1307.41 C 544.596 1317.7 555.583 1325.86 564.459 1334.89 C 576.481 1347.12 587.811 1361.12 597.944 1374.96 C 606.714 1386.94 619.286 1414.93 628.395 1422.49 L 630.383 1422.65 C 631.668 1420.28 631.648 1419.22 630.915 1416.59 C 629.149 1410.25 624.871 1403.88 621.622 1398.15 C 606.478 1371.43 589.299 1346 567.573 1324.11 C 558.889 1315.36 548.268 1308.4 539.874 1299.57 C 559.946 1273.85 599.862 1263.74 630.597 1259.62 L 632.369 1260.46 C 644.918 1266.49 656.468 1274.36 668.485 1281.35 C 699.094 1299.15 730.574 1316.98 758.367 1339.12 C 763.383 1343.12 773.762 1358.09 780.104 1356.35 C 779.961 1349.45 770.025 1337.93 764.964 1333.21 C 753.956 1322.94 730.527 1307.94 717.259 1299.85 C 694.936 1286.24 619.877 1247.28 614.928 1223.86 C 616.053 1216.27 624.963 1210.9 630.736 1206.62 C 636.307 1202.48 641.909 1198.48 647.139 1193.91 C 671.926 1215.48 699.354 1233.53 724.308 1254.77 C 734.419 1263.38 744.042 1277.94 756.425 1282.86 L 758.593 1282.56 C 759.233 1280.6 759.166 1280.19 758.747 1278.15 C 749.139 1267.35 739.824 1257.19 728.758 1247.76 C 716.16 1237.17 703.408 1226.76 690.507 1216.54 C 665.665 1196.98 633.604 1175.77 624.688 1143.61 C 623.781 1140.34 622.798 1137.14 621.609 1133.96 C 634.281 1142.78 647.658 1150.65 660.193 1159.6 C 675.615 1170.6 690.299 1183.97 704.167 1196.87 C 718.637 1210.33 732.004 1225.39 744.835 1240.4 C 749.389 1245.72 753.316 1251.84 758.106 1256.9 C 760.114 1259.03 761.824 1260.67 764.51 1261.84 L 766.378 1261.16 C 767.154 1258.24 765.824 1255.5 764.398 1253 C 756.873 1239.79 743.697 1226.87 733.631 1215.5 C 720.214 1200.33 705.909 1184.94 690.278 1172.03 C 666.578 1152.47 640.858 1134.99 614.994 1118.44 C 604.215 1111.54 592.935 1105.33 582.37 1098.12 C 527.09 1060.37 482.372 1012.07 460.66 947.845 C 449.699 915.419 445.285 881.448 453.669 847.721 C 466.895 794.523 514.883 747.634 553.302 710.774 C 561.802 702.619 569.647 693.633 578.694 686.084 C 608.915 661.089 641.069 638.528 674.854 618.612 C 700.85 603.444 727.837 590.04 755.632 578.491 C 760.599 576.469 776.54 571.788 779.227 567.451 L 778.741 565.481 C 772.265 562.514 759.208 568.585 752.725 570.99 C 670.47 601.506 598.59 652.071 533.987 710.591 C 519.913 723.339 504.851 735.952 492.393 750.255 C 502.641 718.79 515.298 688.091 528.1 657.585 C 560.638 578.874 599.423 502.894 644.083 430.371 C 668.799 389.468 694.665 348.703 723.407 310.47 C 738.325 290.626 755.189 272.088 771.239 253.154 C 796.648 223.177 821.041 194.609 851.145 169.153 C 866.033 156.564 877.226 142.095 894.966 133.024 C 917.228 121.64 964.174 105.661 989.306 101.026 C 1018.75 95.5952 1091.38 95.4848 1119.68 104.928 C 1129.31 108.142 1138.18 112.916 1146.99 117.89 C 1178.67 135.778 1193.28 151.663 1218.46 176.896 C 1230.16 188.62 1242.29 200.202 1252.82 213.014 C 1265.87 228.904 1277.44 246.166 1289.92 262.523 C 1302.1 278.489 1315.36 293.736 1327.23 309.913 C 1346.09 335.613 1362.92 364.179 1379.13 391.635 C 1389.03 408.396 1397.41 426.121 1406.31 443.421 C 1417.1 464.383 1428.26 485.132 1438.66 506.293 C 1450.1 529.586 1505.09 668.452 1520.45 674.324 C 1523.13 675.35 1524.03 674.595 1526.35 673.383 C 1527.9 671.048 1528.84 669.873 1528.33 666.978 C 1526.73 657.996 1510.23 629.94 1505.54 620.53 C 1499.21 607.838 1493.37 594.804 1487.65 581.829 C 1480.8 566.284 1475.1 550.244 1468.25 534.718 C 1455.79 506.508 1441.17 479.236 1427.41 451.662 C 1403.7 404.151 1382.72 361.631 1351.83 317.822 C 1330.65 287.785 1306.07 260.858 1282.62 232.665 C 1273.99 222.294 1265.98 211.422 1257.31 201.086 C 1220.99 157.788 1191.06 131.554 1142.46 102.385 C 1134.24 97.4522 1125.93 93.1326 1116.62 90.6604 C 1100.89 86.481 1028.58 80.2361 1014.5 83.5213 z M 1002.84 488.5 C 959.762 490.894 915.76 506.953 875.026 520.28 C 861.022 524.862 846.545 528.796 833.001 534.593 L 831.294 536.632 L 831.498 538.718 C 838.753 542.384 885.402 525.731 895.656 522.519 C 936.715 511.019 999.157 491.571 1041.28 500.19 C 1048.93 501.754 1070.44 511.002 1075.94 504.688 C 1075.63 501.297 1073.7 498.749 1071.06 496.687 C 1057.52 486.119 1019.29 487.351 1002.84 488.5 z M 1233.08 538.039 C 1233.01 540.776 1232.4 542.409 1234.74 544.337 C 1238.94 547.794 1249.09 548.938 1254.6 550.564 C 1268.07 554.54 1281.47 559.892 1294.48 565.17 C 1314.5 573.293 1334.35 582.823 1353.48 592.824 C 1365 598.844 1378.01 609.294 1390.68 612.159 C 1390.75 609.22 1390.76 608.145 1388.56 606.034 C 1367.45 585.744 1263.68 541.533 1233.08 538.039 z M 1425.32 629.386 C 1423.88 632.245 1423.35 632.445 1424.13 635.496 C 1432.78 643.035 1445.25 647.911 1454.95 654.577 C 1467.86 663.444 1480.05 675.293 1493.37 683.142 C 1494.18 680.863 1494.65 680.413 1493.52 678.13 C 1489.45 669.95 1438.47 633.22 1428.92 630.194 C 1427.72 629.814 1426.56 629.55 1425.32 629.386 z M 1300.04 1260.54 C 1294.17 1263.66 1288.87 1266.91 1285.24 1272.66 L 1284.94 1274.99 C 1286.45 1276.64 1286.67 1276.8 1288.83 1277.38 C 1293.51 1273.12 1298.87 1268.93 1302.45 1263.7 L 1302.34 1261.65 L 1300.04 1260.54 z M 1255.19 1290.59 C 1245.99 1297.01 1239.11 1313.36 1233.14 1322.86 C 1217.43 1347.91 1176.51 1408.86 1171.46 1435.17 C 1170.77 1438.78 1171.22 1441.64 1173.46 1444.57 C 1173.63 1444.79 1173.84 1444.98 1174.03 1445.19 C 1176.21 1444.07 1178.07 1443.13 1179.55 1441.09 C 1183.37 1435.84 1186.15 1427.66 1189.01 1421.72 C 1194.11 1411.09 1199.45 1400.57 1205.02 1390.16 C 1213.91 1373.65 1223.13 1357.32 1232.68 1341.18 C 1240.8 1327.33 1251.89 1311.74 1256.57 1296.43 C 1257.21 1294.35 1257.35 1293.72 1256.71 1291.59 L 1255.19 1290.59 z M 1349.47 1385.35 C 1320.97 1388.67 1243.28 1419.44 1225.5 1443.09 C 1223.48 1445.78 1221.94 1448.98 1222.31 1452.45 C 1222.72 1456.29 1225.4 1459.42 1228.51 1461.48 C 1237.45 1467.4 1290.66 1496.39 1297.87 1495.61 C 1298.93 1494.63 1299.47 1494.63 1299.49 1493.07 C 1299.52 1491.44 1299.11 1490.71 1298.36 1489.33 C 1298.1 1489.11 1297.84 1488.89 1297.58 1488.68 C 1285.46 1478.98 1238.92 1461.11 1233.67 1452.83 C 1233.41 1449.59 1233.78 1447.82 1235.97 1445.31 C 1250.62 1428.58 1305.4 1406.69 1327.75 1400.21 C 1335.11 1398.08 1342.62 1396.24 1350.24 1395.36 C 1354.75 1394.85 1359.83 1395.06 1364.21 1394.15 C 1366.55 1393.67 1367.67 1393.06 1369.03 1391.06 C 1367.95 1388.06 1365.92 1386.56 1362.97 1385.36 C 1359.4 1383.9 1353.3 1384.87 1349.47 1385.35 z M 674.505 1496.6 C 672.972 1503.71 679.613 1517.24 683.708 1523.41 C 685.679 1526.38 686.949 1526.59 690.345 1527.41 C 691.981 1519.95 686.811 1508.96 682.753 1502.57 C 680.377 1498.83 678.965 1497.64 674.505 1496.6 z M 1483.28 1554.42 C 1481.57 1590.44 1483.39 1626.78 1482.93 1662.85 C 1482.31 1712.45 1479.61 1762.2 1476.63 1811.71 C 1475.36 1832.85 1474.29 1854.46 1471.92 1875.49 C 1470.04 1892.16 1462.37 1912.51 1465.38 1929.13 L 1466.44 1929.95 C 1468.59 1926.7 1469.9 1923.2 1471.79 1919.83 C 1476.83 1906.18 1480.38 1892.55 1482.21 1878.11 C 1487 1840.44 1487.97 1802.49 1489.6 1764.6 C 1490.7 1739.17 1492.49 1713.81 1493.17 1688.36 C 1493.98 1657.91 1493.48 1627.35 1493.1 1596.89 C 1492.99 1588.58 1494.02 1565.58 1491.33 1558.76 C 1490.4 1556.42 1489.49 1555.46 1487.06 1554.66 C 1486.07 1554.33 1484.27 1554.44 1483.28 1554.42 z M 620.216 1637.52 C 610.543 1650.25 605.559 1666.16 600.054 1681 C 593.193 1699.48 585.884 1717.9 580.284 1736.82 C 575.927 1751.55 572.822 1766.63 568.826 1781.46 C 565.043 1795.49 560.701 1809.5 557.466 1823.67 C 553.381 1841.57 551.486 1860.02 546.724 1877.75 C 543.301 1890.27 539.52 1902.69 535.387 1914.99 C 531.913 1925.16 526.55 1936.56 525.183 1947.15 C 526.115 1948.92 526.643 1949.49 528.621 1950.11 C 529.138 1950.27 529.69 1950.28 530.225 1950.37 C 551.737 1913 557.403 1866.07 566.806 1824.79 C 570.204 1809.86 574.856 1795.29 578.837 1780.52 C 584.745 1758.6 589.785 1737.21 597.449 1715.74 C 603.823 1697.88 610.065 1679.86 616.972 1662.21 C 619.004 1657.02 622.161 1652.28 624.031 1647.03 C 624.978 1644.38 625.685 1642.35 625.137 1639.5 C 623.299 1637.78 622.747 1637.9 620.216 1637.52 z"/>
<path transform="translate(0,0)" fill="rgb(0,0,0)" d="M 602.763 1125.15 C 577.522 1112.57 547.575 1090.81 525.864 1072.55 C 479.372 1033.46 438.16 971.945 433.345 910.273 C 428.14 843.617 452.668 817.853 474.661 760.057 C 481.276 742.673 486.424 724.809 493.367 707.532 C 515.111 653.658 538.893 600.629 564.662 548.559 C 574.816 528.313 585.893 508.482 596.497 488.464 C 631.212 422.936 667.852 358.11 711.861 298.272 C 732.219 270.592 755.764 244.197 778.18 218.133 C 796.883 196.387 816.586 176.408 837.285 156.607 C 847.542 146.796 857.899 136.491 869.167 127.84 C 913.471 93.8226 960.624 87.6311 1014.5 83.5213 C 1028.58 80.2361 1100.89 86.481 1116.62 90.6604 C 1125.93 93.1326 1134.24 97.4522 1142.46 102.385 C 1191.06 131.554 1220.99 157.788 1257.31 201.086 C 1265.98 211.422 1273.99 222.294 1282.62 232.665 C 1306.07 260.858 1330.65 287.785 1351.83 317.822 C 1382.72 361.631 1403.7 404.151 1427.41 451.662 C 1441.17 479.236 1455.79 506.508 1468.25 534.718 C 1475.1 550.244 1480.8 566.284 1487.65 581.829 C 1493.37 594.804 1499.21 607.838 1505.54 620.53 C 1510.23 629.94 1526.73 657.996 1528.33 666.978 C 1528.84 669.873 1527.9 671.048 1526.35 673.383 C 1524.03 674.595 1523.13 675.35 1520.45 674.324 C 1505.09 668.452 1450.1 529.586 1438.66 506.293 C 1428.26 485.132 1417.1 464.383 1406.31 443.421 C 1397.41 426.121 1389.03 408.396 1379.13 391.635 C 1362.92 364.179 1346.09 335.613 1327.23 309.913 C 1315.36 293.736 1302.1 278.489 1289.92 262.523 C 1277.44 246.166 1265.87 228.904 1252.82 213.014 C 1242.29 200.202 1230.16 188.62 1218.46 176.896 C 1193.28 151.663 1178.67 135.778 1146.99 117.89 C 1138.18 112.916 1129.31 108.142 1119.68 104.928 C 1091.38 95.4848 1018.75 95.5952 989.306 101.026 C 964.174 105.661 917.228 121.64 894.966 133.024 C 877.226 142.095 866.033 156.564 851.145 169.153 C 821.041 194.609 796.648 223.177 771.239 253.154 C 755.189 272.088 738.325 290.626 723.407 310.47 C 694.665 348.703 668.799 389.468 644.083 430.371 C 599.423 502.894 560.638 578.874 528.1 657.585 C 515.298 688.091 502.641 718.79 492.393 750.255 C 504.851 735.952 519.913 723.339 533.987 710.591 C 598.59 652.071 670.47 601.506 752.725 570.99 C 759.208 568.585 772.265 562.514 778.741 565.481 L 779.227 567.451 C 776.54 571.788 760.599 576.469 755.632 578.491 C 727.837 590.04 700.85 603.444 674.854 618.612 C 641.069 638.528 608.915 661.089 578.694 686.084 C 569.647 693.633 561.802 702.619 553.302 710.774 C 514.883 747.634 466.895 794.523 453.669 847.721 C 445.285 881.448 449.699 915.419 460.66 947.845 C 482.372 1012.07 527.09 1060.37 582.37 1098.12 C 592.935 1105.33 604.215 1111.54 614.994 1118.44 C 640.858 1134.99 666.578 1152.47 690.278 1172.03 C 705.909 1184.94 720.214 1200.33 733.631 1215.5 C 743.697 1226.87 756.873 1239.79 764.398 1253 C 765.824 1255.5 767.154 1258.24 766.378 1261.16 L 764.51 1261.84 C 761.824 1260.67 760.114 1259.03 758.106 1256.9 C 753.316 1251.84 749.389 1245.72 744.835 1240.4 C 732.004 1225.39 718.637 1210.33 704.167 1196.87 C 690.299 1183.97 675.615 1170.6 660.193 1159.6 C 647.658 1150.65 634.281 1142.78 621.609 1133.96 C 622.798 1137.14 623.781 1140.34 624.688 1143.61 C 633.604 1175.77 665.665 1196.98 690.507 1216.54 C 703.408 1226.76 716.16 1237.17 728.758 1247.76 C 739.824 1257.19 749.139 1267.35 758.747 1278.15 C 759.166 1280.19 759.233 1280.6 758.593 1282.56 L 756.425 1282.86 C 744.042 1277.94 734.419 1263.38 724.308 1254.77 C 699.354 1233.53 671.926 1215.48 647.139 1193.91 C 641.909 1198.48 636.307 1202.48 630.736 1206.62 C 624.963 1210.9 616.053 1216.27 614.928 1223.86 C 619.877 1247.28 694.936 1286.24 717.259 1299.85 C 730.527 1307.94 753.956 1322.94 764.964 1333.21 C 770.025 1337.93 779.961 1349.45 780.104 1356.35 C 773.762 1358.09 763.383 1343.12 758.367 1339.12 C 730.574 1316.98 699.094 1299.15 668.485 1281.35 C 656.468 1274.36 644.918 1266.49 632.369 1260.46 L 630.597 1259.62 C 599.862 1263.74 559.946 1273.85 539.874 1299.57 C 548.268 1308.4 558.889 1315.36 567.573 1324.11 C 589.299 1346 606.478 1371.43 621.622 1398.15 C 624.871 1403.88 629.149 1410.25 630.915 1416.59 C 631.648 1419.22 631.668 1420.28 630.383 1422.65 L 628.395 1422.49 C 619.286 1414.93 606.714 1386.94 597.944 1374.96 C 587.811 1361.12 576.481 1347.12 564.459 1334.89 C 555.583 1325.86 544.596 1317.7 537.235 1307.41 C 535.898 1314.41 533.882 1322.35 534.822 1329.46 C 536.874 1345 554.979 1357.67 565.004 1368.62 C 569.025 1373.01 572.329 1377.95 575.522 1382.96 C 585.146 1398.06 595.221 1413.29 602.952 1429.45 C 614.425 1453.44 622.045 1479.92 629.82 1505.31 C 633.814 1518.35 638.297 1531.24 642.052 1544.36 C 649.433 1570.13 656.364 1600.22 668.287 1624.27 C 670.888 1629.51 675.597 1637.7 681.899 1639.1 C 695.005 1642.02 740.207 1611.07 751.277 1602.71 C 763.952 1593.15 775.635 1582.36 788.225 1572.69 C 796.711 1566.18 805.693 1560.2 814.61 1554.29 C 822.723 1548.91 830.914 1543.59 839.437 1538.88 C 850.736 1532.64 862.698 1527.17 873.065 1519.42 C 881.414 1513.18 888.449 1505.07 896.092 1497.99 C 902.179 1492.36 908.947 1487.82 915.855 1483.27 C 905.777 1454.24 890.961 1426.71 876.004 1399.92 C 872.767 1394.13 863.979 1384.75 864.876 1378.43 C 867.154 1378 867.922 1377.69 870.05 1378.97 C 881.335 1385.79 911.631 1452.79 916.532 1467.71 C 918.453 1473.56 917.206 1477.79 917.755 1479.78 C 922.988 1481.44 930.467 1478.14 935.542 1476.39 C 912.847 1428.7 892.847 1378.91 865.248 1333.72 C 848.139 1305.71 830.462 1277.47 812.155 1250.23 C 793.579 1222.59 773.569 1195.33 759.081 1165.19 C 747.702 1141.53 742.232 1116.11 735.349 1090.95 C 718.8 1030.44 704.356 969.81 693.911 907.901 C 690.217 886.011 685.984 863.733 684.849 841.542 C 683.868 822.339 685.328 804.166 686.48 785.067 C 687.005 776.374 686.72 767.798 687.805 759.122 C 689.096 748.797 691.534 738.548 693.308 728.286 C 685.928 731.777 669.043 794.346 657.207 802.197 L 655.931 801.178 C 654.358 786.129 675.793 742.833 681.263 725.887 C 668.712 741.375 653.218 796.248 644.039 803.84 C 642.47 805.138 643.19 804.758 640.913 804.593 C 640.718 804.268 640.484 803.964 640.329 803.618 C 639.073 800.805 639.682 797.152 640.503 794.286 C 641.892 789.434 645.475 785.502 647.331 780.744 C 653.253 765.561 658.51 750.038 664.036 734.702 C 652.242 745.291 634.178 811.894 627.277 830.951 C 618.409 855.44 599.227 902.934 582.83 922.204 C 580.826 924.559 578.71 927.308 575.551 927.504 C 574.966 924.196 576.17 921.128 577.342 918.07 C 583.637 901.641 591.885 885.783 598.679 869.516 C 615.877 828.621 631.804 787.202 646.437 745.32 C 642.536 749.004 639.153 752.144 634.228 754.477 C 619.894 780.741 575.505 926.198 560.851 934.365 C 557.183 931.835 561.112 922.564 562.455 918.985 C 569.35 900.602 577.649 882.739 584.704 864.413 C 594.029 840.19 602.202 815.409 610.649 790.863 C 613.302 783.153 617.081 775.648 619.442 767.921 C 620.17 765.54 620.415 764.7 619.784 762.337 L 617.218 762.191 C 612.635 767.148 572.124 870.826 567.126 885.014 C 561.949 899.711 558.499 917.352 551.119 930.956 C 551.64 935.853 552.724 939.955 549.728 944.126 C 547.851 944.227 547.759 944.53 546.077 943.376 C 536.736 936.965 530.824 920.577 528.623 910.031 C 527.348 920.318 525.314 931.168 527.236 941.461 C 529.609 954.172 541.097 961.7 541.638 970.339 C 542.056 977.014 536.812 974.751 533.352 978.521 C 533.266 981.682 533.342 984.469 530.783 986.761 C 529.411 987.99 528.614 987.574 526.881 987.576 C 516.293 982.25 508.912 967.675 502.633 957.994 C 511.786 988.003 531.958 1016.5 556.126 1036.47 C 565.009 1043.81 574.911 1050 584.3 1056.66 C 597.815 1066.26 611.125 1075.94 624.948 1085.09 C 638.508 1094.07 652.671 1103 665.145 1113.45 C 699.644 1142.37 728.934 1178.95 757.91 1213.15 C 775.649 1234.09 794.565 1254.74 810.506 1277.08 C 823.292 1295 835.557 1314.67 843.507 1335.2 C 825.8 1319.94 815.558 1295.56 801.387 1277.13 C 782.471 1252.52 761.856 1229.43 741.816 1205.77 C 721.09 1181.29 702.196 1157.62 679.202 1135 C 661.224 1117.31 642.447 1106.05 621.442 1092.59 C 590.356 1072.66 545.973 1044.69 521.134 1018.7 C 492.648 988.878 473.32 947.571 474.403 905.883 C 475.567 861.072 518.951 802.293 550.535 772.442 C 599.18 726.469 662.95 703.506 723.845 678.954 C 757.581 665.352 791.915 650.641 827.596 642.934 C 856.277 636.738 885.962 637.847 915.042 635.091 C 934.599 633.238 953.844 628.965 973.367 626.733 C 1000.68 623.61 1029.68 623.168 1057.21 623.955 C 1070.36 624.33 1083.51 626.067 1096.64 626.922 C 1134.15 629.362 1173.73 631.387 1210.42 639.733 C 1281.28 655.849 1351.77 691.571 1411.69 731.883 C 1435.55 747.937 1457.59 763.903 1477.28 785.022 C 1505.72 815.52 1532.58 844.65 1545.86 885.062 C 1548.46 892.986 1551.42 901.665 1550.94 910.114 C 1550.37 920.086 1544.74 930.001 1537.06 936.248 C 1530.56 941.542 1507.6 951.062 1498.98 949.667 C 1497.24 949.385 1497.71 949.327 1496.48 947.742 C 1498.14 942.563 1508.43 939.836 1513.03 937.294 C 1526.47 929.872 1533.41 917.499 1537.77 903.371 C 1527.42 876.15 1515.47 854.013 1496.6 831.703 C 1491.44 825.599 1486.44 819.371 1480.41 814.101 C 1455.37 820.169 1421.82 824.161 1398.98 834.276 C 1394.56 836.23 1390.39 839.243 1386.2 841.667 C 1387.97 844.303 1389.83 846.754 1391.84 849.21 L 1394 849.279 C 1403.71 842.815 1430.83 839.383 1443.02 838.235 C 1449.15 837.659 1454.37 838.773 1460.31 840.092 C 1438.41 845.326 1416.12 847.363 1394.21 852.23 C 1395.79 854.864 1398 857.115 1400.01 859.426 C 1415.95 859.104 1470.76 853.972 1481.18 857.536 C 1483.43 858.303 1484.3 859.015 1485.31 861.105 C 1483.99 863.074 1483.55 863.386 1480.93 863.436 C 1477.61 863.499 1473.76 861.842 1470.17 861.761 C 1453.07 861.373 1427.72 860.951 1411.26 865.607 C 1407.1 866.784 1403.18 869.197 1399.42 871.301 C 1402.07 874.79 1404.61 878.36 1407.03 882.006 C 1427.21 879.454 1485.29 872.361 1502.8 876.635 L 1503.09 877.601 C 1495.01 881.509 1428.29 884.271 1412.03 886.617 C 1414.48 888.687 1417.86 892.213 1420.83 893.266 C 1435.6 898.488 1501.46 880.112 1516.19 886.048 C 1515.17 888.759 1511.95 889.376 1509.29 889.945 C 1501.63 891.58 1493.21 891.593 1485.4 892.205 C 1466.65 893.673 1429.74 896.167 1414.18 905.15 C 1411.75 906.554 1408.55 908.493 1407.76 911.237 C 1409.4 912.476 1410.34 913.099 1412.41 913.544 C 1414.3 913.949 1413.64 914.058 1415.01 913.096 L 1413.23 910.438 C 1417.68 905.754 1432.3 905.896 1438.76 905.199 C 1455.85 904.893 1496.69 896.875 1510.92 900.193 L 1511.83 901.679 C 1506.18 906.362 1439.18 906.937 1426.26 910.563 C 1423.84 911.242 1422.37 912.38 1421.16 914.594 C 1423.22 918.254 1432.01 918.442 1435.95 919.023 C 1456.63 922.08 1474.68 923.923 1495.63 921.484 C 1502.47 920.688 1516.33 915.909 1522.45 918.481 C 1522.87 920.133 1523.21 919.899 1522.35 921.14 C 1517.91 927.56 1496.21 928.968 1488.89 929.759 C 1472.29 931.552 1412.4 928.088 1400.37 916.877 C 1398.19 914.848 1397.95 913.476 1397.68 910.615 C 1400.2 904.374 1408.01 901.02 1413.51 897.728 C 1411.34 895.572 1409.23 893.062 1406.11 892.477 C 1402.55 891.811 1398.99 891.298 1396.57 888.5 L 1396.82 886.484 L 1399.44 884.98 C 1400.33 883.183 1390.69 874.367 1390.13 868.11 C 1390.77 867.002 1392.03 865.127 1392 863.849 C 1391.92 858.727 1380.07 850.066 1378.71 841.526 C 1381.71 833.112 1371.46 833.689 1368.93 825.561 L 1370.66 822.602 C 1368.52 816.44 1359.93 798.192 1354.33 795.428 C 1352.3 794.429 1351.2 793.823 1350.34 791.486 C 1349.2 788.404 1349.92 787.667 1351.31 784.924 C 1350.91 776.465 1336.84 761.608 1331.88 754.261 C 1332.46 759.704 1332.94 765.158 1333.31 770.62 C 1335.84 807.352 1335.74 855.885 1331.63 892.298 C 1327.9 925.278 1320.26 957.794 1313.15 990.17 C 1307.53 1015.81 1302.81 1042.18 1296.12 1067.52 C 1288.7 1095.62 1280.85 1124.13 1271.29 1151.57 C 1263.11 1175.06 1253.39 1198.17 1244.51 1221.42 C 1227.92 1264.88 1210.55 1306.93 1189.16 1348.31 C 1183.11 1360 1177.31 1371.96 1170.43 1383.19 C 1161.7 1397.44 1152.31 1412.29 1141.92 1425.4 C 1128.66 1442.13 1113.63 1457.26 1099.69 1473.39 C 1097.49 1475.93 1094.6 1478.83 1094.85 1482.27 C 1101.09 1487.52 1112.34 1486.32 1120.06 1488.08 C 1124.28 1489.05 1128.56 1490.71 1132.6 1492.27 C 1145.68 1497.33 1156.92 1504.65 1168.1 1513.02 C 1173.86 1517.33 1180.11 1521.69 1185.17 1526.78 C 1191.43 1533.07 1196.85 1540.22 1203.47 1546.15 C 1218.96 1560 1235.88 1571.57 1250.25 1586.81 C 1264.16 1601.58 1276.52 1620.8 1292.42 1633.22 C 1298.88 1638.27 1304.56 1640.1 1312.49 1641.08 C 1329.54 1633.79 1339.88 1621.94 1350.74 1607.38 C 1379.99 1568.21 1392.68 1524.74 1411.25 1480.45 C 1430.38 1434.84 1458.67 1399.45 1495.16 1366.48 C 1505.81 1356.86 1516.05 1346.69 1529.51 1341.21 L 1528.84 1339.66 C 1527.73 1337 1526.69 1334.15 1524.8 1331.92 C 1514.77 1320.09 1475.4 1297.02 1460.21 1285.23 C 1449.18 1276.67 1439.69 1266.73 1430.11 1256.62 C 1424.12 1250.3 1416.48 1243.28 1414.2 1234.59 C 1410.59 1220.82 1423.01 1206.65 1429.86 1195.72 C 1421.37 1185.52 1404.49 1178.9 1399.59 1166.74 C 1393.58 1151.82 1406.24 1138.63 1411.36 1125.57 C 1411.49 1125.25 1411.61 1124.92 1411.73 1124.59 C 1404.31 1133.84 1348.61 1200.53 1344.57 1202.62 L 1341.55 1200.66 C 1341.23 1195.14 1384.3 1153.14 1385.64 1146.36 C 1355.2 1172.25 1322.24 1202.35 1297.4 1233.72 C 1290.07 1242.98 1282.98 1252.72 1276.39 1262.52 C 1270.37 1271.46 1265.25 1283.07 1257.08 1290.15 C 1259.19 1283.79 1259.29 1273.58 1261.6 1268.8 C 1279.19 1232.33 1333.73 1177.93 1364.2 1151.05 C 1379.19 1137.83 1395.08 1125.58 1410.25 1112.55 C 1428.78 1096.64 1446.8 1079.41 1466.72 1065.19 C 1487.41 1050.43 1508.37 1035.59 1529.38 1021.31 C 1544.58 1010.98 1561.28 1001.53 1574.79 989.017 C 1587.15 977.567 1598.27 958.351 1600.41 941.423 C 1601.68 931.408 1599.63 919.825 1598.15 909.891 C 1590.9 861.388 1579.76 832.243 1560.59 787.852 C 1556.66 778.764 1553.71 769.507 1549.42 760.532 C 1544.09 749.372 1523.67 713.859 1525.26 704.138 C 1525.73 701.262 1526.24 700.879 1528.4 699.213 C 1531.02 698.942 1532.21 699.175 1534.6 700.27 C 1537.63 704.359 1534.71 708.119 1537.49 712.55 C 1554.08 738.994 1565.47 767.002 1578.24 795.361 C 1586.39 813.469 1596.04 832.057 1601.34 851.204 C 1608.88 878.436 1613.73 918.717 1610.14 946.543 C 1608.44 959.77 1605.24 974.12 1598.09 985.561 C 1584.97 1006.55 1563.02 1018.68 1543.09 1032.28 C 1519.25 1048.54 1493.73 1064.06 1471.11 1081.87 C 1446.09 1101.58 1421.85 1128.1 1417.96 1160.85 C 1431.69 1171.46 1442.53 1173.1 1447.36 1191.7 C 1443.59 1207.01 1436.68 1217.25 1430.55 1231.41 C 1449.23 1253.36 1474.21 1271.81 1499.02 1286.39 C 1510.28 1293 1522.69 1298.91 1533.1 1306.77 C 1544.97 1315.74 1552.43 1328.04 1554.26 1342.91 C 1556.62 1362.04 1548.53 1392.5 1536.43 1407.68 C 1537.23 1408.56 1538.02 1409.45 1538.8 1410.35 C 1599.56 1480.01 1629.26 1568.23 1658.19 1654.41 C 1668.99 1686.58 1680.75 1718.57 1688.99 1751.53 C 1696.02 1779.67 1700.39 1808.84 1705.94 1837.34 C 1712.23 1869.64 1722.49 1920.22 1719.49 1951.89 C 1719.01 1956.99 1717.92 1965.9 1713.94 1969.14 C 1710.96 1967.39 1710.16 1962.87 1709.51 1959.65 C 1706.35 1943.89 1705.49 1927.03 1702.89 1911.04 C 1696.87 1873.93 1689.49 1836.36 1681.23 1799.68 C 1673.88 1767.07 1663.9 1734.75 1654.64 1702.63 C 1632.02 1624.22 1607.39 1541.52 1562.52 1472.54 C 1542.47 1441.71 1517.94 1415.39 1492.04 1389.48 C 1483.58 1396.96 1476.19 1405.73 1468.85 1414.28 C 1431.3 1458.05 1423.75 1491.13 1401.78 1541.99 C 1391.95 1564.74 1380.84 1585.78 1367.71 1606.8 C 1359.34 1620.2 1350.5 1634.65 1339.29 1645.86 C 1330.92 1654.22 1320.78 1659.97 1308.66 1659.68 C 1290.34 1659.25 1278.15 1645.78 1266.27 1633.71 C 1273.42 1650.32 1283.37 1665.64 1290.47 1682.42 C 1315.14 1740.71 1332.89 1800.59 1347.36 1862.07 C 1353.34 1887.44 1359.61 1913.89 1362.58 1939.75 C 1363.07 1944.01 1363.81 1949.3 1360.97 1952.86 C 1358.21 1954.44 1357.69 1954.6 1354.52 1954.56 C 1345.86 1949.97 1335.49 1924.7 1330.24 1915.32 C 1312.36 1883.33 1291.92 1852.24 1271.94 1821.52 C 1262.8 1807.46 1250.73 1792.97 1244.18 1777.66 C 1240.23 1790.29 1234.99 1802.49 1230.51 1814.94 C 1223.82 1833.98 1217.8 1853.25 1212.45 1872.72 C 1209.47 1884.22 1206.9 1895.83 1204.76 1907.52 C 1202.89 1918.26 1202.5 1930.56 1198.4 1940.66 C 1197.26 1943.48 1196.23 1944.92 1193.41 1946.04 C 1191.15 1945.32 1189.99 1943.91 1188.81 1941.94 C 1186.86 1938.75 1185.7 1935.15 1185.39 1931.42 C 1183.32 1904.42 1203.99 1830.38 1213.18 1802.4 C 1217.88 1788.07 1224.5 1774.22 1228.23 1759.6 L 1228.63 1757.98 C 1223.97 1751.64 1219.48 1745.15 1214.47 1739.08 C 1203.61 1725.92 1155.65 1672.33 1144.35 1665.09 C 1135.03 1671.29 1103.01 1822.94 1099.09 1843.37 C 1096.12 1858.9 1094.61 1893.41 1087.17 1905.28 C 1085.79 1907.47 1084.82 1908.02 1082.37 1908.57 C 1080.68 1907.91 1079.7 1907.18 1078.61 1905.75 C 1076.24 1902.64 1074.55 1897.96 1074.24 1894.06 C 1073.64 1886.55 1075.41 1878.12 1076.41 1870.64 C 1080.83 1837.78 1090.34 1805.83 1094.46 1773.04 C 1076.11 1769.74 1058.23 1765.15 1039.98 1761.61 C 1004.92 1755.02 969.644 1749.59 934.224 1745.31 C 923.438 1744.05 912.718 1741.9 901.868 1741.33 C 903.386 1775.13 910.028 1808.61 914.549 1842.13 C 916.053 1853.28 919.259 1866.44 918.423 1877.58 C 918.176 1880.88 916.778 1884.97 913.906 1886.87 C 911.656 1888.36 909.724 1888.22 907.214 1887.76 C 905.484 1886.7 904.158 1885.75 903.167 1883.97 C 895.918 1870.88 882.062 1737 881.64 1713.96 C 881.459 1704.09 882.135 1693.34 884.709 1683.79 C 866.266 1699.74 849.442 1717.64 832.88 1735.49 C 799.142 1771.84 769.499 1807.3 744.133 1850.17 C 748.913 1859.42 751.252 1871.08 754.131 1881.16 C 756.004 1887.72 758.444 1895.26 754.897 1901.64 C 752.925 1902.81 752.182 1903.29 749.786 1903.21 C 736.867 1902.82 738.405 1875.9 731.554 1869.08 C 721.729 1877.9 683.885 1947.69 675.931 1964.49 C 671.548 1973.75 657.446 2014.42 652.279 2018.6 C 650.049 2020.41 648.766 2020.47 645.995 2020.32 C 642.005 2017.8 640.368 2014.48 639.315 2009.96 C 636.567 1998.18 643.683 1981.9 645.898 1969.96 C 665.715 1864.09 705.98 1763.11 764.44 1672.65 C 761.18 1662.54 756.852 1635.34 749.557 1628.46 C 748.159 1627.14 746.292 1627.49 744.596 1628.09 C 739.387 1629.92 734.224 1633.93 729.537 1636.89 C 715.782 1645.58 695.755 1659.23 678.921 1658.36 C 671.888 1658 665.762 1654.81 661.518 1649.18 C 642.54 1624.02 621.824 1533.09 612.277 1499.02 C 607.813 1483.09 602.488 1466.71 596.394 1451.31 C 586.655 1426.7 570.41 1399.87 552.377 1380.4 C 514.566 1400.94 481.376 1437.21 458.556 1473.49 C 431.757 1516.1 415.337 1562.49 398.911 1609.72 C 372.093 1686.97 349.656 1765.67 331.704 1845.45 C 326.216 1869.38 321.299 1893.63 316.497 1917.71 C 314.306 1928.7 313.44 1940.99 309.824 1951.58 C 308.948 1954.14 308.405 1956.72 305.917 1957.91 L 304.237 1956.92 C 303.632 1955.36 303.213 1953.99 303.098 1952.31 C 302.661 1945.91 303.836 1938.98 304.472 1932.6 C 307.148 1905.76 312.433 1880.05 318.114 1853.72 C 323.238 1829.98 329.291 1806.46 334.464 1782.75 C 339.937 1757.66 344.84 1732.5 352.049 1707.82 C 361.663 1674.9 374.889 1642.5 385.885 1609.98 C 402.049 1562.17 417.708 1513.61 443.72 1470.01 C 459.035 1444.35 478.009 1418.89 499.681 1398.27 C 508.815 1389.58 520.054 1382.68 528.276 1373.15 C 528.54 1372.85 528.793 1372.53 529.051 1372.22 C 524.795 1357.41 519.584 1344.27 518.076 1328.73 C 516.505 1312.54 520.43 1299.28 530.841 1286.85 C 545.676 1269.13 585.998 1250.65 608.398 1248.54 C 604.017 1241.87 599.705 1233.47 598.825 1225.42 C 596.59 1204.96 619.601 1198.9 630.239 1185.44 C 630.499 1185.12 630.752 1184.78 631.008 1184.45 C 626.112 1176.73 618.615 1170.76 614.357 1162.65 C 608.478 1151.45 607.843 1137.15 602.763 1125.15 z M 574.703 836.089 C 577.587 829.882 598.676 778.346 598.195 776.785 C 588.969 782.768 574.055 822.309 569.234 833.757 C 559.298 854.166 544.084 897.91 539.051 920.201 L 544.462 927.79 C 553.833 896.656 562.585 866.39 574.703 836.089 z M 1303.29 1764.33 C 1303.32 1763 1303.4 1762.15 1303.25 1760.87 C 1302.12 1751 1295.83 1738.82 1291.99 1729.49 C 1268.32 1672.06 1213.88 1575.67 1166.35 1536.64 C 1150.82 1523.9 1116.48 1500.61 1096.18 1502.63 C 1094.94 1510.69 1094.78 1522.07 1091.23 1529.23 C 1088.17 1535.39 1073.75 1559.11 1073.94 1563.89 C 1071.16 1567.36 1068.21 1570.49 1065.03 1573.61 C 1092.67 1598.59 1123.06 1620.78 1150.09 1646.26 C 1175.51 1670.22 1201.78 1697.8 1223.63 1724.97 C 1248.29 1755.63 1270.19 1788.94 1291.48 1821.99 C 1309.28 1849.62 1326.7 1877.28 1341.2 1906.82 C 1332.66 1875.43 1326.34 1843.39 1317.81 1811.91 C 1314.65 1800.26 1304.57 1773.97 1303.29 1764.33 z M 718.08 699.68 C 715.118 701.038 713.322 701.369 712.005 704.582 C 708.823 712.347 707.889 722.082 706.422 730.377 C 699.026 772.202 696.331 813.728 699.786 856.136 C 700.828 868.925 703.749 881.851 705.968 894.497 C 710.042 918.368 714.499 942.171 719.339 965.899 C 724.109 989.634 727.582 1014.76 734.434 1037.94 C 742 1034.76 749.538 1031.39 757.263 1028.61 C 765.963 1025.21 775.013 1025.25 783.617 1022.13 C 750.954 947.685 725.542 883.809 719.502 801.365 C 717.41 772.808 716.793 745.389 719.283 716.882 C 719.466 714.796 721.227 702.154 720.101 700.658 C 719.876 700.359 719.427 700.332 719.09 700.169 L 718.08 699.68 z M 1307.22 720.848 C 1317.33 779.421 1317.51 860.905 1299.34 917.531 C 1292.93 937.53 1256.63 1011.89 1257.49 1026.4 C 1259.79 1026.95 1261.89 1027.21 1264.23 1027.39 C 1270.29 1028.4 1281.37 1031.52 1287.21 1029.81 C 1293 1019.09 1293.79 1002.11 1296.67 989.989 C 1306.06 950.495 1315.5 911.07 1318.81 870.487 C 1321.13 842.138 1319.67 811.645 1317.92 783.262 C 1316.81 765.418 1316.49 746.269 1311.23 729.056 C 1310.29 725.984 1309.3 723.328 1307.22 720.848 z M 1348.12 723.785 L 1346.5 724.221 C 1344.97 724.621 1344.13 724.626 1342.5 724.677 C 1340.09 724.753 1339.27 725.343 1337.27 726.56 L 1336.47 728.446 C 1339.52 734.514 1342.85 740.426 1345.46 746.7 C 1348.89 745.622 1352.56 744.788 1355.67 742.978 C 1360.47 741.957 1365.06 739.385 1369.44 737.213 C 1363.32 732.403 1356.25 726.188 1348.78 723.702 L 1348.12 723.785 z M 1373.58 741.89 C 1367.32 744.2 1352.51 747.962 1349.62 754.036 C 1348.44 756.501 1349.16 757.983 1349.84 760.422 C 1351.8 761.858 1352.9 762.647 1355.43 762.129 C 1359.19 761.36 1363.05 759.641 1366.73 758.45 C 1376.03 755.84 1385.12 753.089 1394.83 752.538 C 1389.61 749.521 1379.58 742.153 1373.58 741.89 z M 902.022 755.118 C 885.475 759.209 873.955 770.889 865.331 785.103 C 849.761 810.764 840.29 845.579 847.586 875.35 C 849.702 883.987 853.286 892.787 861.278 897.5 C 866.317 900.471 872.565 901.853 878.25 903.048 C 893.501 902.943 904.458 899.767 915.43 888.489 C 934.09 869.307 935.899 838.789 935.028 813.627 C 934.424 796.151 931.71 773.672 918.047 761.197 C 912.85 756.452 908.587 756.25 902.022 755.118 z M 1391.93 757.53 C 1389.58 758.456 1387.75 758.918 1385.24 759.227 C 1374.49 760.555 1361.99 765.483 1352.12 769.811 C 1356.07 773.318 1359.2 775.376 1364.22 776.983 C 1369 775.643 1373.84 774.041 1378.7 773.079 C 1385.44 771.04 1412.86 766.081 1416.26 762.305 C 1413.05 758.754 1402.65 757.852 1397.98 757.597 C 1396.05 757.492 1393.8 757.851 1391.93 757.53 z M 1125.69 761.141 C 1111.89 768.118 1103.09 779.232 1098.36 793.798 C 1090.02 819.498 1091.42 855.581 1104.23 879.698 C 1110.28 891.097 1120.15 901.698 1132.93 905.164 C 1138.31 906.624 1143.91 905.984 1149.36 905.259 C 1161.81 900.374 1169.67 892.35 1175.05 880.005 C 1185.59 855.828 1181.29 825.905 1171.8 802.074 C 1165.74 786.834 1155.16 770.084 1139.6 763.293 C 1134.83 761.209 1130.84 760.731 1125.69 761.141 z M 1425.9 769.2 C 1414.06 770.748 1368.16 778.531 1361.34 785.477 C 1362.44 788.641 1364.54 790.178 1366.98 792.286 C 1368.06 793.219 1368.58 794.153 1369.27 795.379 C 1380.85 792.465 1425.26 778.297 1433.8 773.564 C 1432.93 771.577 1431.67 770.36 1429.59 769.598 C 1428.49 769.196 1427.03 769.242 1425.9 769.2 z M 1437.43 777.881 C 1427.03 781.741 1416.47 785.07 1406.06 788.865 C 1394.26 793.164 1382.82 798.101 1370.67 801.376 C 1372.97 805.907 1376.54 815.483 1381.35 817.504 C 1396.51 813.47 1411.64 809.35 1426.75 805.142 C 1436.75 802.381 1449.8 800.13 1458.27 794.098 L 1458.22 792.488 C 1455.24 789.732 1452.52 788.875 1448.43 788.97 C 1433.43 789.322 1419.52 797.215 1404.06 796.687 C 1411.94 793.729 1438.52 787.543 1443 782.292 C 1442.25 780.373 1440.9 778.678 1438.79 778.045 C 1438.35 777.914 1437.88 777.936 1437.43 777.881 z M 579.832 785.859 C 576.078 790.514 571.199 795.578 568.427 800.852 C 559.782 817.295 529.833 887.954 530.384 903.523 C 530.493 906.625 531.728 907.435 533.631 909.605 C 540.779 900.034 543.049 882.052 546.721 870.505 C 551.119 856.677 555.819 842.172 562.092 829.094 L 560.891 826.85 C 564.932 818.553 579.045 793.82 579.832 785.859 z M 1462.85 799.15 C 1435.5 812.245 1403.08 813.483 1376.22 827.856 C 1378.93 830.036 1381.85 833.021 1385.36 833.531 L 1387.24 832.471 C 1416.03 820.704 1445.44 817.548 1474.94 809.087 C 1472.22 805.071 1469.9 800.299 1464.69 799.413 C 1464.08 799.309 1463.46 799.238 1462.85 799.15 z M 545.49 818.728 C 540.779 825.959 525.4 851.834 526.78 859.44 C 527.206 861.783 527.147 860.833 527.065 862.827 L 524.182 864.452 L 523.844 866.514 C 525.161 867.413 526.345 867.974 527.838 868.531 L 526.527 869.776 L 523.101 869.054 C 518.803 874.576 518.413 881.615 519.21 888.261 L 519.366 889.478 C 518.023 890.333 516.665 891.118 515.271 891.885 C 513.687 898.825 508.473 914.005 510.645 920.445 C 512.892 922.339 513.952 922.861 516.882 923.17 C 518.985 921.799 519.304 920.936 519.76 918.451 C 520.193 916.088 520.396 913.649 520.659 911.261 C 521.565 903.187 523.151 895.302 525.132 887.427 C 526.817 880.732 531.42 870.984 531.139 864.312 L 528.963 861.609 C 530.47 861.074 531.435 860.863 532.985 860.688 C 534.224 857.941 536.046 855.793 535.106 852.851 L 532.528 851.062 C 532.243 849.43 532.163 848.81 532.529 847.143 L 533.221 846.686 L 534.107 850.406 L 535.594 851.304 C 537.6 850.369 538.48 849.64 539.827 847.885 L 539.33 846.621 C 538.702 844.974 538.885 845.657 538.633 844.176 C 538.927 844.037 539.243 843.937 539.515 843.759 C 542.86 841.571 545.846 834.113 546.474 830.299 C 546.619 829.422 546.593 828.987 546.619 828.05 L 545.484 827.072 C 544.092 828.626 543.074 830.174 542.009 831.966 L 541.17 831.023 C 542.205 828.325 543.458 827.339 546.071 826.127 C 546.893 825.747 547.74 825.422 548.578 825.081 C 547.727 823.955 546.816 823.02 545.829 822.014 L 545.49 818.728 z M 511.547 924.2 C 510.484 925.394 509.56 926.529 508.613 927.829 C 507.201 926.585 507.941 927.353 506.517 925.412 C 504.134 929.676 505.571 935.388 506.785 939.824 C 508.2 944.993 511.333 953.844 516.07 956.959 C 516.845 957.468 517.283 957.5 518.104 957.675 C 518.69 956.292 519.269 954.922 519.789 953.513 C 518.709 951.506 516.47 944.662 515.24 943.519 C 510.707 939.307 507.19 941.909 508.315 933.856 L 509.812 933.08 C 512.425 934.455 514.51 936.341 517.472 935.8 C 517.423 932.962 517.283 930.112 517.562 927.283 C 515.897 925.708 513.928 924.35 511.547 924.2 z M 789.211 1041.43 C 777.902 1043.02 748.71 1049.67 742.221 1059.23 C 740.004 1062.49 750.243 1095.24 751.768 1100.26 C 761.168 1131.18 776.521 1177.09 799.574 1199.67 C 803.946 1203.95 809.241 1206.97 814.62 1209.79 C 843.03 1224.71 882.536 1242.76 914.648 1245.89 C 947.458 1249.09 996.182 1242.61 1028.72 1235.43 C 1040.3 1232.87 1070.28 1223.59 1080.56 1224.22 C 1086.5 1224.58 1091.3 1230.61 1094.73 1234.89 C 1093.43 1245.26 1091.54 1251.08 1082.97 1257.93 C 1062.87 1274.01 995.901 1294.92 969.549 1300.37 C 952.875 1303.82 914.557 1307.96 901.81 1316.47 C 901.928 1318.88 903.253 1321.02 905.079 1322.58 C 916.729 1332.52 946.859 1340.92 955.051 1353.5 L 955.028 1355.55 C 952.707 1357.32 950.664 1357.48 947.779 1357.09 C 931.912 1354.95 897.512 1336.36 888.337 1322.84 C 887.106 1321.02 886.401 1318.8 886.817 1316.6 C 887.66 1312.15 891.56 1308.78 895.387 1306.81 C 915.126 1296.66 951.225 1293.44 973.473 1288.55 C 996.203 1283.55 1072.54 1260.73 1082.4 1241.97 L 1082.53 1239.2 C 1081.01 1237.7 1080.85 1237.39 1078.58 1237.44 C 1065.88 1237.73 1037.18 1246.85 1022.86 1249.75 C 1000.5 1254.28 978.185 1256.74 955.432 1258.18 C 940.377 1259.14 924.546 1260.52 909.488 1259.27 C 877.273 1256.6 840.703 1239.24 812.749 1223.45 C 818.269 1230.71 823.72 1237.85 830.406 1244.11 C 835.048 1248.46 840.553 1252.35 844.854 1256.99 C 846.068 1258.3 846.743 1259.99 846.916 1261.75 L 846.368 1272.6 C 856.478 1289.7 868.511 1305.61 878.534 1322.77 C 898.608 1357.13 915.208 1393.74 932.285 1429.63 C 939.109 1443.97 947.465 1458.04 953.416 1472.74 C 958.818 1462.28 964.509 1451.12 976.517 1447.15 C 993.755 1441.46 1009.56 1453.26 1024.41 1459.97 C 1032.97 1452.9 1046.02 1449.96 1057 1450.79 C 1068.27 1451.65 1076.6 1457.22 1085.36 1463.77 C 1101.53 1445.3 1118.42 1428.29 1133.03 1408.41 C 1160.16 1371.48 1187.97 1318.38 1205.97 1275.95 C 1216.46 1251.21 1225.15 1225.4 1234.7 1200.26 C 1239.33 1188.05 1244.8 1176.15 1249.61 1164.01 C 1256.44 1146.81 1259.23 1128.23 1266.96 1111.35 C 1264.02 1114.67 1261.05 1118.25 1257.49 1120.91 C 1239.86 1134.07 1200.77 1147.72 1179.23 1151.64 C 1162.8 1154.63 1146.03 1155.35 1129.55 1157.86 C 1114.07 1160.22 1099.25 1165.23 1083.47 1166.16 C 1033.37 1169.1 989.218 1162.14 939.942 1155.65 C 913.476 1152.16 885.83 1149.58 859.878 1143.37 C 851.482 1141.36 843.709 1137.48 835.388 1135.26 C 814.215 1129.63 791.504 1127.38 774.493 1112.04 C 773.55 1111.19 772.702 1110.3 771.84 1109.37 C 770.167 1102.06 768.501 1095.3 772.901 1088.45 C 775.965 1083.69 781.502 1081.1 786.95 1080.24 C 795.309 1078.92 803.152 1081.92 811.197 1083.8 C 805.858 1073.75 797.994 1047.92 790.591 1041.65 L 789.211 1041.43 z M 1248.98 1045.64 C 1241.18 1063.47 1234.07 1082.39 1224.69 1099.4 C 1232.72 1091.84 1242.06 1086.2 1251.15 1080.04 C 1251.73 1079.86 1252.3 1079.67 1252.89 1079.52 C 1260.71 1077.48 1269.45 1085.55 1273.89 1083.12 C 1278.73 1074.67 1280.37 1062.31 1282.58 1052.84 C 1271.87 1048.39 1260.12 1048.46 1248.98 1045.64 z M 1531.46 1353.74 C 1521.43 1362.41 1511.15 1370.88 1501.95 1380.43 C 1505.4 1382.41 1508.91 1384.28 1512.06 1386.71 L 1522.57 1397.19 C 1527.22 1384.45 1534.71 1367.54 1531.46 1353.74 z M 986.025 1460.5 C 977.464 1464.01 971.404 1470.08 966.452 1477.78 C 978.788 1484.05 985.973 1497.48 990.208 1510.2 C 994.781 1523.93 999.602 1545.82 992.866 1559.34 C 992.21 1560.66 991.472 1561.89 990.634 1563.1 C 1003.47 1570.91 1016.32 1578.41 1031.97 1574.76 C 1047.68 1571.08 1059.05 1559.49 1067.11 1546.08 C 1070.34 1540.68 1073.06 1535 1075.25 1529.11 C 1080.97 1509.03 1079.95 1496.23 1072.78 1476.99 C 1062.68 1470.86 1053.99 1467.51 1041.92 1470.53 C 1037.87 1471.54 1033.52 1473.31 1031.25 1477.03 C 1027.7 1482.83 1031.12 1496.44 1031.11 1503.15 C 1031.07 1509.12 1030.39 1515.06 1029.09 1520.89 C 1027.93 1525.85 1025.69 1530.19 1023.37 1534.68 C 1023.08 1515.67 1023.76 1483.94 1008.66 1470.12 C 1002.63 1464.6 995.73 1463.38 988.266 1461.73 C 987.42 1461.54 986.715 1460.98 986.025 1460.5 z M 953.819 1489.23 C 944.21 1491.18 934.83 1492.91 926.037 1497.47 C 896.019 1513.01 860.13 1563.59 841.136 1592.19 C 820.765 1622.87 799.347 1652.72 778.491 1683.07 C 766.45 1700.59 753.672 1718.3 743.276 1736.87 C 725.241 1769.08 707.904 1813.7 694.799 1848.94 C 688.61 1865.58 683.226 1882.22 678.674 1899.38 C 674.116 1916.57 670.502 1934.09 664.325 1950.79 C 664.548 1950.45 664.775 1950.12 664.994 1949.78 C 669.623 1942.62 673.086 1934.79 677.113 1927.29 C 686.032 1910.68 695.442 1893.28 705.486 1877.33 C 712.78 1865.74 721.208 1854.8 728.881 1843.45 C 757.362 1801.34 783.144 1764.68 817.776 1727.31 C 831.977 1711.99 847.567 1698.17 862.293 1683.38 C 890.186 1653.41 918.916 1624.41 946.076 1593.74 C 957.593 1580.74 971.544 1567.11 979.227 1551.45 C 981.249 1547.33 981.748 1542.87 981.492 1538.33 C 980.919 1528.18 976.062 1506.34 968.262 1499.53 C 967.401 1498.77 966.485 1498.11 965.551 1497.45 C 958.879 1498.82 951.615 1499.81 945.84 1503.66 C 917.828 1522.35 833.799 1641.52 812.07 1674.48 C 802.979 1688.28 780.306 1731.67 769.242 1738.6 L 767.805 1737.81 C 766.854 1718.94 855.635 1595.75 870.954 1575.19 C 884.806 1556.6 898.976 1538.12 914.526 1520.92 C 926.795 1507.34 935.265 1496.2 953.639 1491.25 L 954.513 1489.96 L 953.819 1489.23 z M 855.245 1541.05 C 842.076 1548.68 788.512 1577.62 783.72 1588.35 L 783.864 1588.92 C 796.345 1583.16 829.354 1570.27 837.779 1563.15 C 844.385 1557.56 849.367 1549.91 855.115 1543.49 C 855.396 1541.37 855.543 1542.17 855.245 1541.05 z M 982.407 1578.56 C 977.239 1583.55 973.027 1589.6 969.224 1595.67 C 988.763 1596.14 1005.95 1600.76 1024.93 1604.48 C 1046.38 1608.68 1068.09 1612.43 1089.11 1618.55 L 1089.65 1617.33 C 1083.41 1609.42 1060.4 1588.83 1051.29 1583.44 C 1036.24 1591.25 1019.21 1596.63 1002.29 1591.35 C 993.904 1588.74 989.483 1582.87 982.407 1578.56 z M 813.256 1591.95 C 795.863 1599.57 778.181 1606.75 761.533 1615.91 C 765.542 1628.51 768.873 1641.96 773.94 1654.14 L 775.583 1655.73 C 778.081 1654.52 815.107 1601.09 819.471 1594.3 C 818.16 1592.48 817.497 1592.04 815.062 1591.85 C 814.461 1591.81 813.858 1591.92 813.256 1591.95 z M 954.663 1613.94 C 941.083 1627.17 920.327 1646.29 909.461 1661.37 C 937.458 1657.44 971.231 1660.32 998.816 1666.98 C 1016.72 1671.3 1034.23 1677.36 1052.02 1682.15 C 1065.46 1685.76 1079.29 1687.79 1092.71 1691.42 C 1100.52 1692.13 1107.44 1693.6 1114.74 1696.63 C 1120.64 1681.73 1126.51 1666.08 1130.81 1650.64 C 1124.73 1645.94 1118.12 1640.05 1110.84 1637.32 C 1102.52 1634.21 1092.24 1633.38 1083.45 1631.86 C 1059.43 1627.73 1035.73 1624.45 1011.59 1621.24 C 992.738 1618.73 973.681 1614.59 954.663 1613.94 z M 928.507 1677.36 C 921.818 1678.13 906.95 1678.21 902.517 1683.38 C 902.712 1684.9 902.889 1686.41 903.143 1687.92 C 903.752 1691.55 903.208 1693.87 901.588 1697.14 C 899.768 1700.83 901.135 1707.02 902.314 1710.84 C 906.089 1711.56 927.395 1704.72 933.709 1703.53 C 954.868 1699.56 976.783 1696.87 998.269 1695.38 C 1004.11 1695.12 1034.39 1694.83 1036.78 1692.45 C 1018.45 1685.15 947.655 1673.47 928.507 1677.36 z M 1111.74 1704.5 C 1079.51 1708.74 1046.26 1706.92 1013.73 1709.32 C 999.118 1710.53 984.545 1712.17 970.028 1714.23 C 960.507 1715.67 950.807 1717.82 941.22 1718.49 C 929.54 1719.3 915.626 1722.9 904.646 1726.71 L 904.252 1727.66 C 911.292 1730.6 920.455 1728.54 928.158 1729.79 L 929.202 1729.04 C 941.557 1732.32 955.14 1732.15 967.776 1734.12 C 985.135 1736.83 1002.25 1740.72 1019.5 1744.02 C 1045.8 1749.06 1072.11 1753.26 1096.94 1763.81 C 1099.55 1754.36 1113.02 1711.43 1112.23 1704.98 L 1111.74 1704.5 z"/>
<path transform="translate(0,0)" fill="rgb(0,0,0)" d="M 895.656 522.519 C 885.402 525.731 838.753 542.384 831.498 538.718 L 831.294 536.632 L 833.001 534.593 C 846.545 528.796 861.022 524.862 875.026 520.28 C 915.76 506.953 959.762 490.894 1002.84 488.5 C 1019.29 487.351 1057.52 486.119 1071.06 496.687 C 1073.7 498.749 1075.63 501.297 1075.94 504.688 C 1070.44 511.002 1048.93 501.754 1041.28 500.19 C 999.157 491.571 936.715 511.019 895.656 522.519 z"/>
<path transform="translate(0,0)" fill="rgb(0,0,0)" d="M 1390.68 612.159 C 1378.01 609.294 1365 598.844 1353.48 592.824 C 1334.35 582.823 1314.5 573.293 1294.48 565.17 C 1281.47 559.892 1268.07 554.54 1254.6 550.564 C 1249.09 548.938 1238.94 547.794 1234.74 544.337 C 1232.4 542.409 1233.01 540.776 1233.08 538.039 C 1263.68 541.533 1367.45 585.744 1388.56 606.034 C 1390.76 608.145 1390.75 609.22 1390.68 612.159 z"/>
<path transform="translate(0,0)" fill="rgb(0,0,0)" d="M 1493.37 683.142 C 1480.05 675.293 1467.86 663.444 1454.95 654.577 C 1445.25 647.911 1432.78 643.035 1424.13 635.496 C 1423.35 632.445 1423.88 632.245 1425.32 629.386 C 1426.56 629.55 1427.72 629.814 1428.92 630.194 C 1438.47 633.22 1489.45 669.95 1493.52 678.13 C 1494.65 680.413 1494.18 680.863 1493.37 683.142 z"/>
<path transform="translate(0,0)" fill="rgb(254,254,254)" d="M 734.434 1037.94 C 727.582 1014.76 724.109 989.634 719.339 965.899 C 714.499 942.171 710.042 918.368 705.968 894.497 C 703.749 881.851 700.828 868.925 699.786 856.136 C 696.331 813.728 699.026 772.202 706.422 730.377 C 707.889 722.082 708.823 712.347 712.005 704.582 C 713.322 701.369 715.118 701.038 718.08 699.68 L 719.09 700.169 C 719.427 700.332 719.876 700.359 720.101 700.658 C 721.227 702.154 719.466 714.796 719.283 716.882 C 716.793 745.389 717.41 772.808 719.502 801.365 C 725.542 883.809 750.954 947.685 783.617 1022.13 C 775.013 1025.25 765.963 1025.21 757.263 1028.61 C 749.538 1031.39 742 1034.76 734.434 1037.94 z"/>
<path transform="translate(0,0)" fill="rgb(254,254,254)" d="M 1264.23 1027.39 C 1261.89 1027.21 1259.79 1026.95 1257.49 1026.4 C 1256.63 1011.89 1292.93 937.53 1299.34 917.531 C 1317.51 860.905 1317.33 779.421 1307.22 720.848 C 1309.3 723.328 1310.29 725.984 1311.23 729.056 C 1316.49 746.269 1316.81 765.418 1317.92 783.262 C 1319.67 811.645 1321.13 842.138 1318.81 870.487 C 1315.5 911.07 1306.06 950.495 1296.67 989.989 C 1293.79 1002.11 1293 1019.09 1287.21 1029.81 C 1281.37 1031.52 1270.29 1028.4 1264.23 1027.39 z"/>
<path transform="translate(0,0)" fill="rgb(254,254,254)" d="M 1345.46 746.7 C 1342.85 740.426 1339.52 734.514 1336.47 728.446 L 1337.27 726.56 C 1339.27 725.343 1340.09 724.753 1342.5 724.677 C 1344.13 724.626 1344.97 724.621 1346.5 724.221 L 1348.12 723.785 L 1348.78 723.702 C 1356.25 726.188 1363.32 732.403 1369.44 737.213 C 1365.06 739.385 1360.47 741.957 1355.67 742.978 C 1352.56 744.788 1348.89 745.622 1345.46 746.7 z"/>
<path transform="translate(0,0)" fill="rgb(254,254,254)" d="M 1366.73 758.45 C 1363.05 759.641 1359.19 761.36 1355.43 762.129 C 1352.9 762.647 1351.8 761.858 1349.84 760.422 C 1349.16 757.983 1348.44 756.501 1349.62 754.036 C 1352.51 747.962 1367.32 744.2 1373.58 741.89 C 1379.58 742.153 1389.61 749.521 1394.83 752.538 C 1385.12 753.089 1376.03 755.84 1366.73 758.45 z"/>
<path transform="translate(0,0)" fill="rgb(254,254,254)" d="M 878.25 903.048 C 872.565 901.853 866.317 900.471 861.278 897.5 C 853.286 892.787 849.702 883.987 847.586 875.35 C 840.29 845.579 849.761 810.764 865.331 785.103 C 873.955 770.889 885.475 759.209 902.022 755.118 C 908.587 756.25 912.85 756.452 918.047 761.197 C 931.71 773.672 934.424 796.151 935.028 813.627 C 935.899 838.789 934.09 869.307 915.43 888.489 C 904.458 899.767 893.501 902.943 878.25 903.048 z"/>
<path transform="translate(0,0)" fill="rgb(254,254,254)" d="M 1352.12 769.811 C 1361.99 765.483 1374.49 760.555 1385.24 759.227 C 1387.75 758.918 1389.58 758.456 1391.93 757.53 C 1393.8 757.851 1396.05 757.492 1397.98 757.597 C 1402.65 757.852 1413.05 758.754 1416.26 762.305 C 1412.86 766.081 1385.44 771.04 1378.7 773.079 C 1373.84 774.041 1369 775.643 1364.22 776.983 C 1359.2 775.376 1356.07 773.318 1352.12 769.811 z"/>
<path transform="translate(0,0)" fill="rgb(254,254,254)" d="M 1149.36 905.259 C 1143.91 905.984 1138.31 906.624 1132.93 905.164 C 1120.15 901.698 1110.28 891.097 1104.23 879.698 C 1091.42 855.581 1090.02 819.498 1098.36 793.798 C 1103.09 779.232 1111.89 768.118 1125.69 761.141 C 1130.84 760.731 1134.83 761.209 1139.6 763.293 C 1155.16 770.084 1165.74 786.834 1171.8 802.074 C 1181.29 825.905 1185.59 855.828 1175.05 880.005 C 1169.67 892.35 1161.81 900.374 1149.36 905.259 z"/>
<path transform="translate(0,0)" fill="rgb(254,254,254)" d="M 1369.27 795.379 C 1368.58 794.153 1368.06 793.219 1366.98 792.286 C 1364.54 790.178 1362.44 788.641 1361.34 785.477 C 1368.16 778.531 1414.06 770.748 1425.9 769.2 C 1427.03 769.242 1428.49 769.196 1429.59 769.598 C 1431.67 770.36 1432.93 771.577 1433.8 773.564 C 1425.26 778.297 1380.85 792.465 1369.27 795.379 z"/>
<path transform="translate(0,0)" fill="rgb(254,254,254)" d="M 569.234 833.757 C 574.055 822.309 588.969 782.768 598.195 776.785 C 598.676 778.346 577.587 829.882 574.703 836.089 C 562.585 866.39 553.833 896.656 544.462 927.79 L 539.051 920.201 C 544.084 897.91 559.298 854.166 569.234 833.757 z"/>
<path transform="translate(0,0)" fill="rgb(254,254,254)" d="M 1370.67 801.376 C 1382.82 798.101 1394.26 793.164 1406.06 788.865 C 1416.47 785.07 1427.03 781.741 1437.43 777.881 C 1437.88 777.936 1438.35 777.914 1438.79 778.045 C 1440.9 778.678 1442.25 780.373 1443 782.292 C 1438.52 787.543 1411.94 793.729 1404.06 796.687 C 1419.52 797.215 1433.43 789.322 1448.43 788.97 C 1452.52 788.875 1455.24 789.732 1458.22 792.488 L 1458.27 794.098 C 1449.8 800.13 1436.75 802.381 1426.75 805.142 C 1411.64 809.35 1396.51 813.47 1381.35 817.504 C 1376.54 815.483 1372.97 805.907 1370.67 801.376 z"/>
<path transform="translate(0,0)" fill="rgb(254,254,254)" d="M 533.631 909.605 C 531.728 907.435 530.493 906.625 530.384 903.523 C 529.833 887.954 559.782 817.295 568.427 800.852 C 571.199 795.578 576.078 790.514 579.832 785.859 C 579.045 793.82 564.932 818.553 560.891 826.85 L 562.092 829.094 C 555.819 842.172 551.119 856.677 546.721 870.505 C 543.049 882.052 540.779 900.034 533.631 909.605 z"/>
<path transform="translate(0,0)" fill="rgb(254,254,254)" d="M 1376.22 827.856 C 1403.08 813.483 1435.5 812.245 1462.85 799.15 C 1463.46 799.238 1464.08 799.309 1464.69 799.413 C 1469.9 800.299 1472.22 805.071 1474.94 809.087 C 1445.44 817.548 1416.03 820.704 1387.24 832.471 L 1385.36 833.531 C 1381.85 833.021 1378.93 830.036 1376.22 827.856 z"/>
<path transform="translate(0,0)" fill="rgb(254,254,254)" d="M 520.659 911.261 C 520.396 913.649 520.193 916.088 519.76 918.451 C 519.304 920.936 518.985 921.799 516.882 923.17 C 513.952 922.861 512.892 922.339 510.645 920.445 C 508.473 914.005 513.687 898.825 515.271 891.885 C 516.665 891.118 518.023 890.333 519.366 889.478 L 519.21 888.261 C 518.413 881.615 518.803 874.576 523.101 869.054 L 526.527 869.776 L 527.838 868.531 C 526.345 867.974 525.161 867.413 523.844 866.514 L 524.182 864.452 L 527.065 862.827 C 527.147 860.833 527.206 861.783 526.78 859.44 C 525.4 851.834 540.779 825.959 545.49 818.728 L 545.829 822.014 C 546.816 823.02 547.727 823.955 548.578 825.081 C 547.74 825.422 546.893 825.747 546.071 826.127 C 543.458 827.339 542.205 828.325 541.17 831.023 L 542.009 831.966 C 543.074 830.174 544.092 828.626 545.484 827.072 L 546.619 828.05 C 546.593 828.987 546.619 829.422 546.474 830.299 C 545.846 834.113 542.86 841.571 539.515 843.759 C 539.243 843.937 538.927 844.037 538.633 844.176 C 538.885 845.657 538.702 844.974 539.33 846.621 L 539.827 847.885 C 538.48 849.64 537.6 850.369 535.594 851.304 L 534.107 850.406 L 533.221 846.686 L 532.529 847.143 C 532.163 848.81 532.243 849.43 532.528 851.062 L 535.106 852.851 C 536.046 855.793 534.224 857.941 532.985 860.688 C 531.435 860.863 530.47 861.074 528.963 861.609 L 531.139 864.312 C 531.42 870.984 526.817 880.732 525.132 887.427 C 523.151 895.302 521.565 903.187 520.659 911.261 z"/>
<path transform="translate(0,0)" fill="rgb(254,254,254)" d="M 519.789 953.513 C 519.269 954.922 518.69 956.292 518.104 957.675 C 517.283 957.5 516.845 957.468 516.07 956.959 C 511.333 953.844 508.2 944.993 506.785 939.824 C 505.571 935.388 504.134 929.676 506.517 925.412 C 507.941 927.353 507.201 926.585 508.613 927.829 C 509.56 926.529 510.484 925.394 511.547 924.2 C 513.928 924.35 515.897 925.708 517.562 927.283 C 517.283 930.112 517.423 932.962 517.472 935.8 C 514.51 936.341 512.425 934.455 509.812 933.08 L 508.315 933.856 C 507.19 941.909 510.707 939.307 515.24 943.519 C 516.47 944.662 518.709 951.506 519.789 953.513 z"/>
<path transform="translate(0,0)" fill="rgb(254,254,254)" d="M 1094.73 1234.89 C 1091.3 1230.61 1086.5 1224.58 1080.56 1224.22 C 1070.28 1223.59 1040.3 1232.87 1028.72 1235.43 C 996.182 1242.61 947.458 1249.09 914.648 1245.89 C 882.536 1242.76 843.03 1224.71 814.62 1209.79 C 809.241 1206.97 803.946 1203.95 799.574 1199.67 C 776.521 1177.09 761.168 1131.18 751.768 1100.26 C 750.243 1095.24 740.004 1062.49 742.221 1059.23 C 748.71 1049.67 777.902 1043.02 789.211 1041.43 L 790.591 1041.65 C 797.994 1047.92 805.858 1073.75 811.197 1083.8 C 803.152 1081.92 795.309 1078.92 786.95 1080.24 C 781.502 1081.1 775.965 1083.69 772.901 1088.45 C 768.501 1095.3 770.167 1102.06 771.84 1109.37 C 772.702 1110.3 773.55 1111.19 774.493 1112.04 C 791.504 1127.38 814.215 1129.63 835.388 1135.26 C 843.709 1137.48 851.482 1141.36 859.878 1143.37 C 885.83 1149.58 913.476 1152.16 939.942 1155.65 C 989.218 1162.14 1033.37 1169.1 1083.47 1166.16 C 1099.25 1165.23 1114.07 1160.22 1129.55 1157.86 C 1146.03 1155.35 1162.8 1154.63 1179.23 1151.64 C 1200.77 1147.72 1239.86 1134.07 1257.49 1120.91 C 1261.05 1118.25 1264.02 1114.67 1266.96 1111.35 C 1259.23 1128.23 1256.44 1146.81 1249.61 1164.01 C 1244.8 1176.15 1239.33 1188.05 1234.7 1200.26 C 1225.15 1225.4 1216.46 1251.21 1205.97 1275.95 C 1187.97 1318.38 1160.16 1371.48 1133.03 1408.41 C 1118.42 1428.29 1101.53 1445.3 1085.36 1463.77 C 1076.6 1457.22 1068.27 1451.65 1057 1450.79 C 1046.02 1449.96 1032.97 1452.9 1024.41 1459.97 C 1009.56 1453.26 993.755 1441.46 976.517 1447.15 C 964.509 1451.12 958.818 1462.28 953.416 1472.74 C 947.465 1458.04 939.109 1443.97 932.285 1429.63 C 915.208 1393.74 898.608 1357.13 878.534 1322.77 C 868.511 1305.61 856.478 1289.7 846.368 1272.6 L 846.916 1261.75 C 846.743 1259.99 846.068 1258.3 844.854 1256.99 C 840.553 1252.35 835.048 1248.46 830.406 1244.11 C 823.72 1237.85 818.269 1230.71 812.749 1223.45 C 840.703 1239.24 877.273 1256.6 909.488 1259.27 C 924.546 1260.52 940.377 1259.14 955.432 1258.18 C 978.185 1256.74 1000.5 1254.28 1022.86 1249.75 C 1037.18 1246.85 1065.88 1237.73 1078.58 1237.44 C 1080.85 1237.39 1081.01 1237.7 1082.53 1239.2 L 1082.4 1241.97 C 1072.54 1260.73 996.203 1283.55 973.473 1288.55 C 951.225 1293.44 915.126 1296.66 895.387 1306.81 C 891.56 1308.78 887.66 1312.15 886.817 1316.6 C 886.401 1318.8 887.106 1321.02 888.337 1322.84 C 897.512 1336.36 931.912 1354.95 947.779 1357.09 C 950.664 1357.48 952.707 1357.32 955.028 1355.55 L 955.051 1353.5 C 946.859 1340.92 916.729 1332.52 905.079 1322.58 C 903.253 1321.02 901.928 1318.88 901.81 1316.47 C 914.557 1307.96 952.875 1303.82 969.549 1300.37 C 995.901 1294.92 1062.87 1274.01 1082.97 1257.93 C 1091.54 1251.08 1093.43 1245.26 1094.73 1234.89 z M 1126.71 1209.7 C 1124.53 1211.82 1122.4 1213.85 1122.01 1217.05 C 1121.66 1219.86 1122.49 1220.77 1124.02 1222.9 C 1126.16 1223.98 1127.54 1224.67 1129.96 1224.71 C 1132.67 1221.96 1135.36 1219.36 1135.23 1215.19 C 1135.18 1213.57 1134.24 1212.78 1133.36 1211.51 C 1130.98 1210.39 1129.33 1209.89 1126.71 1209.7 z M 1134.58 1353.13 C 1124.49 1355.7 1047.49 1370.93 1043.92 1373.91 C 1043.29 1374.44 1042.99 1375.28 1042.52 1375.96 C 1042.54 1378.65 1042.44 1378.7 1044.17 1380.74 C 1046.57 1381.21 1048.86 1381.75 1051.32 1381.61 C 1070.77 1377.37 1129.56 1366.99 1142.21 1358.92 C 1143.28 1356.78 1143.15 1356.89 1142.4 1354.6 C 1139.52 1352.69 1138 1352.83 1134.58 1353.13 z"/>
<path transform="translate(0,0)" fill="rgb(254,254,254)" d="M 1224.69 1099.4 C 1234.07 1082.39 1241.18 1063.47 1248.98 1045.64 C 1260.12 1048.46 1271.87 1048.39 1282.58 1052.84 C 1280.37 1062.31 1278.73 1074.67 1273.89 1083.12 C 1269.45 1085.55 1260.71 1077.48 1252.89 1079.52 C 1252.3 1079.67 1251.73 1079.86 1251.15 1080.04 C 1242.06 1086.2 1232.72 1091.84 1224.69 1099.4 z"/>
<path transform="translate(0,0)" fill="rgb(0,0,0)" d="M 1129.96 1224.71 C 1127.54 1224.67 1126.16 1223.98 1124.02 1222.9 C 1122.49 1220.77 1121.66 1219.86 1122.01 1217.05 C 1122.4 1213.85 1124.53 1211.82 1126.71 1209.7 C 1129.33 1209.89 1130.98 1210.39 1133.36 1211.51 C 1134.24 1212.78 1135.18 1213.57 1135.23 1215.19 C 1135.36 1219.36 1132.67 1221.96 1129.96 1224.71 z"/>
<path transform="translate(0,0)" fill="rgb(0,0,0)" d="M 1288.83 1277.38 C 1286.67 1276.8 1286.45 1276.64 1284.94 1274.99 L 1285.24 1272.66 C 1288.87 1266.91 1294.17 1263.66 1300.04 1260.54 L 1302.34 1261.65 L 1302.45 1263.7 C 1298.87 1268.93 1293.51 1273.12 1288.83 1277.38 z"/>
<path transform="translate(0,0)" fill="rgb(0,0,0)" d="M 1174.03 1445.19 C 1173.84 1444.98 1173.63 1444.79 1173.46 1444.57 C 1171.22 1441.64 1170.77 1438.78 1171.46 1435.17 C 1176.51 1408.86 1217.43 1347.91 1233.14 1322.86 C 1239.11 1313.36 1245.99 1297.01 1255.19 1290.59 L 1256.71 1291.59 C 1257.35 1293.72 1257.21 1294.35 1256.57 1296.43 C 1251.89 1311.74 1240.8 1327.33 1232.68 1341.18 C 1223.13 1357.32 1213.91 1373.65 1205.02 1390.16 C 1199.45 1400.57 1194.11 1411.09 1189.01 1421.72 C 1186.15 1427.66 1183.37 1435.84 1179.55 1441.09 C 1178.07 1443.13 1176.21 1444.07 1174.03 1445.19 z"/>
<path transform="translate(0,0)" fill="rgb(0,0,0)" d="M 1051.32 1381.61 C 1048.86 1381.75 1046.57 1381.21 1044.17 1380.74 C 1042.44 1378.7 1042.54 1378.65 1042.52 1375.96 C 1042.99 1375.28 1043.29 1374.44 1043.92 1373.91 C 1047.49 1370.93 1124.49 1355.7 1134.58 1353.13 C 1138 1352.83 1139.52 1352.69 1142.4 1354.6 C 1143.15 1356.89 1143.28 1356.78 1142.21 1358.92 C 1129.56 1366.99 1070.77 1377.37 1051.32 1381.61 z"/>
<path transform="translate(0,0)" fill="rgb(254,254,254)" d="M 1501.95 1380.43 C 1511.15 1370.88 1521.43 1362.41 1531.46 1353.74 C 1534.71 1367.54 1527.22 1384.45 1522.57 1397.19 L 1512.06 1386.71 C 1508.91 1384.28 1505.4 1382.41 1501.95 1380.43 z"/>
<path transform="translate(0,0)" fill="rgb(0,0,0)" d="M 1298.36 1489.33 C 1299.11 1490.71 1299.52 1491.44 1299.49 1493.07 C 1299.47 1494.63 1298.93 1494.63 1297.87 1495.61 C 1290.66 1496.39 1237.45 1467.4 1228.51 1461.48 C 1225.4 1459.42 1222.72 1456.29 1222.31 1452.45 C 1221.94 1448.98 1223.48 1445.78 1225.5 1443.09 C 1243.28 1419.44 1320.97 1388.67 1349.47 1385.35 C 1353.3 1384.87 1359.4 1383.9 1362.97 1385.36 C 1365.92 1386.56 1367.95 1388.06 1369.03 1391.06 C 1367.67 1393.06 1366.55 1393.67 1364.21 1394.15 C 1359.83 1395.06 1354.75 1394.85 1350.24 1395.36 C 1342.62 1396.24 1335.11 1398.08 1327.75 1400.21 C 1305.4 1406.69 1250.62 1428.58 1235.97 1445.31 C 1233.78 1447.82 1233.41 1449.59 1233.67 1452.83 C 1238.92 1461.11 1285.46 1478.98 1297.58 1488.68 C 1297.84 1488.89 1298.1 1489.11 1298.36 1489.33 z"/>
<path transform="translate(0,0)" fill="rgb(254,254,254)" d="M 966.452 1477.78 C 971.404 1470.08 977.464 1464.01 986.025 1460.5 C 986.715 1460.98 987.42 1461.54 988.266 1461.73 C 995.73 1463.38 1002.63 1464.6 1008.66 1470.12 C 1023.76 1483.94 1023.08 1515.67 1023.37 1534.68 C 1025.69 1530.19 1027.93 1525.85 1029.09 1520.89 C 1030.39 1515.06 1031.07 1509.12 1031.11 1503.15 C 1031.12 1496.44 1027.7 1482.83 1031.25 1477.03 C 1033.52 1473.31 1037.87 1471.54 1041.92 1470.53 C 1053.99 1467.51 1062.68 1470.86 1072.78 1476.99 C 1079.95 1496.23 1080.97 1509.03 1075.25 1529.11 C 1073.06 1535 1070.34 1540.68 1067.11 1546.08 C 1059.05 1559.49 1047.68 1571.08 1031.97 1574.76 C 1016.32 1578.41 1003.47 1570.91 990.634 1563.1 C 991.472 1561.89 992.21 1560.66 992.866 1559.34 C 999.602 1545.82 994.781 1523.93 990.208 1510.2 C 985.973 1497.48 978.788 1484.05 966.452 1477.78 z"/>
<path transform="translate(0,0)" fill="rgb(254,254,254)" d="M 664.325 1950.79 C 670.502 1934.09 674.116 1916.57 678.674 1899.38 C 683.226 1882.22 688.61 1865.58 694.799 1848.94 C 707.904 1813.7 725.241 1769.08 743.276 1736.87 C 753.672 1718.3 766.45 1700.59 778.491 1683.07 C 799.347 1652.72 820.765 1622.87 841.136 1592.19 C 860.13 1563.59 896.019 1513.01 926.037 1497.47 C 934.83 1492.91 944.21 1491.18 953.819 1489.23 L 954.513 1489.96 L 953.639 1491.25 C 935.265 1496.2 926.795 1507.34 914.526 1520.92 C 898.976 1538.12 884.806 1556.6 870.954 1575.19 C 855.635 1595.75 766.854 1718.94 767.805 1737.81 L 769.242 1738.6 C 780.306 1731.67 802.979 1688.28 812.07 1674.48 C 833.799 1641.52 917.828 1522.35 945.84 1503.66 C 951.615 1499.81 958.879 1498.82 965.551 1497.45 C 966.485 1498.11 967.401 1498.77 968.262 1499.53 C 976.062 1506.34 980.919 1528.18 981.492 1538.33 C 981.748 1542.87 981.249 1547.33 979.227 1551.45 C 971.544 1567.11 957.593 1580.74 946.076 1593.74 C 918.916 1624.41 890.186 1653.41 862.293 1683.38 C 847.567 1698.17 831.977 1711.99 817.776 1727.31 C 783.144 1764.68 757.362 1801.34 728.881 1843.45 C 721.208 1854.8 712.78 1865.74 705.486 1877.33 C 695.442 1893.28 686.032 1910.68 677.113 1927.29 C 673.086 1934.79 669.623 1942.62 664.994 1949.78 C 664.775 1950.12 664.548 1950.45 664.325 1950.79 z"/>
<path transform="translate(0,0)" fill="rgb(0,0,0)" d="M 690.345 1527.41 C 686.949 1526.59 685.679 1526.38 683.708 1523.41 C 679.613 1517.24 672.972 1503.71 674.505 1496.6 C 678.965 1497.64 680.377 1498.83 682.753 1502.57 C 686.811 1508.96 691.981 1519.95 690.345 1527.41 z"/>
<path transform="translate(0,0)" fill="rgb(30,30,30)" d="M 1105.77 1542.17 C 1103.9 1543.17 1102.03 1544.19 1100.15 1545.16 C 1097.35 1540.57 1094.58 1536.06 1092.33 1531.17 C 1088.26 1541.73 1081.76 1555.66 1073.94 1563.89 C 1073.75 1559.11 1088.17 1535.39 1091.23 1529.23 C 1094.78 1522.07 1094.94 1510.69 1096.18 1502.63 C 1116.48 1500.61 1150.82 1523.9 1166.35 1536.64 C 1213.88 1575.67 1268.32 1672.06 1291.99 1729.49 C 1295.83 1738.82 1302.12 1751 1303.25 1760.87 C 1303.4 1762.15 1303.32 1763 1303.29 1764.33 C 1282.27 1709.37 1257.11 1657.46 1224.31 1608.43 C 1194.16 1563.38 1153.59 1515.06 1097.76 1504.24 C 1097 1510.49 1095.86 1516.74 1094.87 1522.96 C 1099.1 1528.95 1102.12 1535.8 1105.77 1542.17 z"/>
<path transform="translate(0,0)" fill="rgb(254,254,254)" d="M 1105.77 1542.17 C 1102.12 1535.8 1099.1 1528.95 1094.87 1522.96 C 1095.86 1516.74 1097 1510.49 1097.76 1504.24 C 1153.59 1515.06 1194.16 1563.38 1224.31 1608.43 C 1257.11 1657.46 1282.27 1709.37 1303.29 1764.33 C 1304.57 1773.97 1314.65 1800.26 1317.81 1811.91 C 1326.34 1843.39 1332.66 1875.43 1341.2 1906.82 C 1326.7 1877.28 1309.28 1849.62 1291.48 1821.99 C 1270.19 1788.94 1248.29 1755.63 1223.63 1724.97 C 1201.78 1697.8 1175.51 1670.22 1150.09 1646.26 C 1123.06 1620.78 1092.67 1598.59 1065.03 1573.61 C 1068.21 1570.49 1071.16 1567.36 1073.94 1563.89 C 1081.76 1555.66 1088.26 1541.73 1092.33 1531.17 C 1094.58 1536.06 1097.35 1540.57 1100.15 1545.16 C 1104.98 1551.34 1110.86 1556.76 1116.16 1562.53 C 1127.74 1575.15 1139.7 1588.19 1150.21 1601.7 C 1163.95 1619.36 1176.63 1638.35 1189.77 1656.54 C 1196.23 1665.49 1202.52 1675.88 1210.68 1683.3 C 1210.57 1682.93 1210.47 1682.56 1210.36 1682.2 C 1210.16 1681.6 1209.95 1681 1209.75 1680.39 C 1202.88 1659.42 1160.21 1603.81 1144.49 1585 C 1132.16 1570.25 1118.91 1556.19 1105.77 1542.17 z"/>
<path transform="translate(0,0)" fill="rgb(254,254,254)" d="M 783.864 1588.92 L 783.72 1588.35 C 788.512 1577.62 842.076 1548.68 855.245 1541.05 C 855.543 1542.17 855.396 1541.37 855.115 1543.49 C 849.367 1549.91 844.385 1557.56 837.779 1563.15 C 829.354 1570.27 796.345 1583.16 783.864 1588.92 z"/>
<path transform="translate(0,0)" fill="rgb(0,0,0)" d="M 1100.15 1545.16 C 1102.03 1544.19 1103.9 1543.17 1105.77 1542.17 C 1118.91 1556.19 1132.16 1570.25 1144.49 1585 C 1160.21 1603.81 1202.88 1659.42 1209.75 1680.39 C 1209.95 1681 1210.16 1681.6 1210.36 1682.2 C 1210.47 1682.56 1210.57 1682.93 1210.68 1683.3 C 1202.52 1675.88 1196.23 1665.49 1189.77 1656.54 C 1176.63 1638.35 1163.95 1619.36 1150.21 1601.7 C 1139.7 1588.19 1127.74 1575.15 1116.16 1562.53 C 1110.86 1556.76 1104.98 1551.34 1100.15 1545.16 z"/>
<path transform="translate(0,0)" fill="rgb(0,0,0)" d="M 1471.79 1919.83 C 1469.9 1923.2 1468.59 1926.7 1466.44 1929.95 L 1465.38 1929.13 C 1462.37 1912.51 1470.04 1892.16 1471.92 1875.49 C 1474.29 1854.46 1475.36 1832.85 1476.63 1811.71 C 1479.61 1762.2 1482.31 1712.45 1482.93 1662.85 C 1483.39 1626.78 1481.57 1590.44 1483.28 1554.42 C 1484.27 1554.44 1486.07 1554.33 1487.06 1554.66 C 1489.49 1555.46 1490.4 1556.42 1491.33 1558.76 C 1494.02 1565.58 1492.99 1588.58 1493.1 1596.89 C 1493.48 1627.35 1493.98 1657.91 1493.17 1688.36 C 1492.49 1713.81 1490.7 1739.17 1489.6 1764.6 C 1487.97 1802.49 1487 1840.44 1482.21 1878.11 C 1480.38 1892.55 1476.83 1906.18 1471.79 1919.83 z"/>
<path transform="translate(0,0)" fill="rgb(254,254,254)" d="M 969.224 1595.67 C 973.027 1589.6 977.239 1583.55 982.407 1578.56 C 989.483 1582.87 993.904 1588.74 1002.29 1591.35 C 1019.21 1596.63 1036.24 1591.25 1051.29 1583.44 C 1060.4 1588.83 1083.41 1609.42 1089.65 1617.33 L 1089.11 1618.55 C 1068.09 1612.43 1046.38 1608.68 1024.93 1604.48 C 1005.95 1600.76 988.763 1596.14 969.224 1595.67 z"/>
<path transform="translate(0,0)" fill="rgb(254,254,254)" d="M 761.533 1615.91 C 778.181 1606.75 795.863 1599.57 813.256 1591.95 C 813.858 1591.92 814.461 1591.81 815.062 1591.85 C 817.497 1592.04 818.16 1592.48 819.471 1594.3 C 815.107 1601.09 778.081 1654.52 775.583 1655.73 L 773.94 1654.14 C 768.873 1641.96 765.542 1628.51 761.533 1615.91 z"/>
<path transform="translate(0,0)" fill="rgb(254,254,254)" d="M 909.461 1661.37 C 920.327 1646.29 941.083 1627.17 954.663 1613.94 C 973.681 1614.59 992.738 1618.73 1011.59 1621.24 C 1035.73 1624.45 1059.43 1627.73 1083.45 1631.86 C 1092.24 1633.38 1102.52 1634.21 1110.84 1637.32 C 1118.12 1640.05 1124.73 1645.94 1130.81 1650.64 C 1126.51 1666.08 1120.64 1681.73 1114.74 1696.63 C 1107.44 1693.6 1100.52 1692.13 1092.71 1691.42 C 1079.29 1687.79 1065.46 1685.76 1052.02 1682.15 C 1034.23 1677.36 1016.72 1671.3 998.816 1666.98 C 971.231 1660.32 937.458 1657.44 909.461 1661.37 z"/>
<path transform="translate(0,0)" fill="rgb(0,0,0)" d="M 530.225 1950.37 C 529.69 1950.28 529.138 1950.27 528.621 1950.11 C 526.643 1949.49 526.115 1948.92 525.183 1947.15 C 526.55 1936.56 531.913 1925.16 535.387 1914.99 C 539.52 1902.69 543.301 1890.27 546.724 1877.75 C 551.486 1860.02 553.381 1841.57 557.466 1823.67 C 560.701 1809.5 565.043 1795.49 568.826 1781.46 C 572.822 1766.63 575.927 1751.55 580.284 1736.82 C 585.884 1717.9 593.193 1699.48 600.054 1681 C 605.559 1666.16 610.543 1650.25 620.216 1637.52 C 622.747 1637.9 623.299 1637.78 625.137 1639.5 C 625.685 1642.35 624.978 1644.38 624.031 1647.03 C 622.161 1652.28 619.004 1657.02 616.972 1662.21 C 610.065 1679.86 603.823 1697.88 597.449 1715.74 C 589.785 1737.21 584.745 1758.6 578.837 1780.52 C 574.856 1795.29 570.204 1809.86 566.806 1824.79 C 557.403 1866.07 551.737 1913 530.225 1950.37 z"/>
<path transform="translate(0,0)" fill="rgb(254,254,254)" d="M 998.269 1695.38 C 976.783 1696.87 954.868 1699.56 933.709 1703.53 C 927.395 1704.72 906.089 1711.56 902.314 1710.84 C 901.135 1707.02 899.768 1700.83 901.588 1697.14 C 903.208 1693.87 903.752 1691.55 903.143 1687.92 C 902.889 1686.41 902.712 1684.9 902.517 1683.38 C 906.95 1678.21 921.818 1678.13 928.507 1677.36 C 947.655 1673.47 1018.45 1685.15 1036.78 1692.45 C 1034.39 1694.83 1004.11 1695.12 998.269 1695.38 z"/>
<path transform="translate(0,0)" fill="rgb(254,254,254)" d="M 929.202 1729.04 L 928.158 1729.79 C 920.455 1728.54 911.292 1730.6 904.252 1727.66 L 904.646 1726.71 C 915.626 1722.9 929.54 1719.3 941.22 1718.49 C 950.807 1717.82 960.507 1715.67 970.028 1714.23 C 984.545 1712.17 999.118 1710.53 1013.73 1709.32 C 1046.26 1706.92 1079.51 1708.74 1111.74 1704.5 L 1112.23 1704.98 C 1113.02 1711.43 1099.55 1754.36 1096.94 1763.81 C 1072.11 1753.26 1045.8 1749.06 1019.5 1744.02 C 1002.25 1740.72 985.135 1736.83 967.776 1734.12 C 955.14 1732.15 941.557 1732.32 929.202 1729.04 z"/>
</svg>