<svg width="703" height="257" viewBox="0 0 703 257" fill="none" xmlns="http://www.w3.org/2000/svg">
<path d="M555.005 2.35602C576.77 2.24799 598.497 4.1972 619.895 8.17763C679.58 19.5537 702.096 45.9427 702.979 107.412C703.274 128.582 700.979 149.718 694.547 170.196C678.47 221.365 634.623 254.74 580.775 256.493C487.758 259.514 399.933 184.928 387.658 92.5909C387.028 87.8583 385.994 83.1805 385.432 78.4342C383.137 59.0242 371.191 48.2029 351.757 48.0796C332.323 47.9563 318.822 58.8119 317.637 77.8725C312.294 163.841 237.868 237.891 170.292 252.678C89.0233 270.486 10.9807 233.789 1.55504 135.246C0.130234 120.384 -0.801371 105.679 1.00019 90.776C6.93233 41.7649 28.9347 17.821 77.2823 8.78034C122.445 0.335585 168.313 2.28755 213.879 0.787627C260.59 -0.753386 307.389 0.44518 354.154 0.44518C354.148 1.08213 488.052 2.34917 555.005 2.35602ZM262.158 10.3282C262.405 14.828 265.583 14.3554 267.878 15.2458C285.25 21.944 302.854 28.3272 311.609 46.9564C315.335 54.9012 319.055 49.2097 322.637 46.7646C334.098 38.9431 346.613 36.1625 360.347 38.3336C370.622 39.9499 379.301 50.5726 387.062 49.5384C394.597 48.5385 397.241 33.4366 406.763 28.7313C418.25 23.0467 429.772 17.4443 444.301 10.3282H262.158Z" fill="black"/>
</svg>
