<svg width="703" height="221" viewBox="0 0 703 221" fill="none" xmlns="http://www.w3.org/2000/svg">
<path d="M166.195 0.0337373C192.983 0.359001 219.782 0.140273 246.536 2.1199C266.824 3.62284 286.988 6.34272 307.186 8.56909C338.732 12.0404 370.195 12.1582 401.747 7.81764C429.277 4.02663 456.953 0.863703 484.797 0.611343C529.299 0.201959 573.819 -0.745773 618.276 2.24329C642.064 3.84718 665.818 6.02307 689.353 10.0496C700.191 11.9059 701.23 13.1957 702.107 24.0696C702.107 24.2154 702.107 24.3668 702.107 24.507C704.562 35.4202 701.916 44.0846 693.022 51.8068C683.527 60.0561 681.853 72.1862 681.004 84.1817C679.617 103.888 676.167 123.202 669.712 141.944C665.361 154.801 659.456 167.079 652.126 178.508C638.171 200.037 618.304 212.762 593.134 216.357C555.16 221.785 516.905 222.997 478.926 217.192C434.339 210.35 405.472 184.492 391.955 141.512C384.904 119.08 380.853 95.9585 376.268 72.9657C376.072 71.9675 375.802 70.9861 375.583 69.9879C373.942 62.4676 371.482 55.3342 363.065 53.0125C353.368 50.3319 343.66 49.9561 334.693 55.6595C330.406 58.3906 328.917 62.9499 327.951 67.5316C324.58 83.1947 321.675 98.9364 318.153 114.583C313.849 133.65 308.602 152.532 298.399 169.491C282.437 196.056 258.211 210.665 228.17 216.598C213.164 219.548 197.966 220.293 182.741 220.394C160.93 220.535 139.148 220.069 117.411 217.736C80.9428 213.811 56.3684 194.373 41.2102 161.707C30.3276 138.265 24.4565 113.652 22.153 88.0513C21.6586 82.5386 21.0743 77.0147 20.1304 71.5638C18.4449 61.8227 13.1862 53.9154 5.94421 47.4942C1.37654 43.4453 -0.612335 39.0037 0.168607 33.0144C0.730436 28.8308 0.634926 24.5743 1.09563 20.3739C1.76982 14.3229 3.65757 12.1863 9.63543 10.9357C26.8499 7.33535 44.3565 5.88846 61.8181 4.11073C96.5223 0.60573 131.339 -0.179367 166.195 0.0337373ZM532.614 23.2677C510.652 22.8807 488.724 22.791 466.976 26.6325C451.778 29.3243 436.873 32.8013 423.569 41.0114C411.057 48.7785 403.427 59.4337 403.787 74.7267C404.157 91.3656 405.579 107.904 408.843 124.24C416.31 161.813 441.39 187.61 478.959 194.598C514.355 201.209 550.065 200.15 585.51 194.396C614.164 189.752 633.137 172.654 643.654 146.167C652.772 123.174 654.02 99.0598 652.61 74.7435C651.806 60.8805 645.677 49.6813 633.569 42.0432C624.423 36.2782 614.349 32.9639 604.051 30.0589C580.611 23.4527 556.604 23.4808 532.614 23.2677ZM187.157 23.4471C158.548 22.8527 134.412 22.1236 110.607 27.5466C96.174 30.8329 81.8024 34.1976 69.077 42.1834C59.8573 47.9821 53.6828 55.9118 51.8457 66.8586C47.3061 93.8836 49.5983 120.415 59.2674 145.965C69.3803 172.614 88.4151 189.747 117.17 194.356C152.924 200.088 188.904 201.338 224.586 194.497C259.7 187.767 282.201 166.193 292.005 132.024C297.298 113.573 298.314 94.45 299.017 75.3548C299.522 61.7385 293.803 51.4535 283.05 43.6023C271.965 35.5043 259.155 31.5843 246.003 28.4046C225.125 23.3686 203.809 24.6921 187.157 23.4471Z" fill="black"/>
</svg>
