<svg width="703" height="282" viewBox="0 0 703 282" fill="none" xmlns="http://www.w3.org/2000/svg">
<path d="M236.073 1.37938C129.2 3.46326 111.636 4.95175 89.3088 15.3711C55.9669 30.8513 34.8304 58.537 23.8157 101.108L22.3272 107.062H14.5871C8.33549 107.062 6.25162 107.657 3.27466 110.634C1.06464e-06 114.206 0 114.504 0 140.999C0 173.448 0.297697 174.043 14.2894 175.234L22.9226 175.829L26.7927 187.142C42.2729 232.987 78.2941 266.031 126.223 278.535C141.406 282.405 172.664 283 191.121 279.13C220.593 273.176 260.782 256.803 284.895 240.429C319.428 217.209 341.755 189.523 348.9 160.647L351.579 150.227L353.365 159.158C356.64 176.722 372.12 202.027 389.982 218.4C419.752 246.086 464.108 268.413 508.167 277.939C528.708 282.405 558.776 282.405 576.042 277.939C601.346 271.688 623.673 259.184 641.833 241.322C657.908 225.545 672.793 200.538 677.556 181.188L679.343 174.639H687.678C693.632 174.639 696.609 174.043 698.991 171.959C702.265 169.28 702.265 168.685 702.861 143.083C703.456 108.848 702.861 107.359 686.19 106.466L680.236 106.168L676.961 94.2606C666.542 58.2394 645.405 31.4467 615.04 16.5619C591.225 4.95173 577.233 3.16556 478.993 1.08169C409.034 -0.406789 329.55 -0.406794 236.073 1.37938ZM240.241 37.996C260.782 42.1638 279.834 47.5223 294.421 53.1785C301.268 55.8578 306.925 58.5371 306.925 58.8347C306.925 59.1324 256.316 59.4301 194.991 59.4301H82.7595L87.8204 55.2624C99.7282 45.1407 122.055 37.6983 147.062 35.6144C155.397 35.019 176.236 34.7214 193.8 35.0191C218.807 34.7214 228.631 35.3168 240.241 37.996ZM545.677 35.0191C578.126 36.8052 599.262 43.0568 613.552 54.667L618.613 58.8347H506.679C445.056 58.8347 394.447 58.537 394.447 58.2393C394.447 56.7509 420.347 46.9269 433.743 43.3545C453.391 37.6983 462.917 36.2098 481.97 35.0191C505.488 33.8283 519.48 33.8283 545.677 35.0191ZM318.237 99.0237C318.535 104.978 318.535 104.68 317.344 115.992L316.451 125.519H185.167H53.5853V121.649C53.5853 117.183 57.4554 100.512 59.5392 96.6422C60.73 94.2606 68.1724 94.2606 189.335 94.2606H317.939L318.237 99.0237ZM643.619 103.489C644.81 107.955 646.298 114.802 646.894 118.672L647.787 125.816H516.205H384.623L383.135 114.504C382.242 108.252 381.944 101.108 382.242 99.0237L383.135 94.856L512.037 95.1537L640.94 95.4514L643.619 103.489ZM305.139 168.982C303.65 172.852 299.482 179.699 296.505 184.76L290.551 193.393L176.832 193.096L63.1116 192.798L59.2415 182.974C57.1577 177.318 55.0738 170.769 54.4784 167.792L53.5853 162.433H180.702H307.818L305.139 168.982ZM647.489 163.624C647.489 166.005 643.024 180.295 640.047 186.844L637.367 193.691H523.945H410.523L406.355 187.737C401.89 181.783 397.127 172.555 394.745 166.303L393.257 162.731H520.373C590.331 162.433 647.489 163.028 647.489 163.624ZM233.989 234.475C193.502 254.123 152.123 257.993 120.269 244.895C112.231 241.62 93.4766 230.903 93.4766 229.415C93.4766 229.117 127.712 228.819 169.687 229.117H245.599L233.989 234.475ZM605.216 231.796C599.262 236.559 580.805 245.49 570.683 248.765C542.998 257.398 503.404 252.04 467.383 234.773L456.07 229.415H532.281C608.491 228.819 608.789 229.117 605.216 231.796Z" fill="black"/>
</svg>
